STARTFONT 2.1
COMMENT
COMMENT Converted from OpenType font "OpenSans-Italic.ttf" by "otf2bdf 3.0".
COMMENT
FONT -FreeType-Open Sans-Medium-I-Normal--19-140-100-100-P-100-ISO10646-1
SIZE 14 100 100
FONTBOUNDINGBOX 32 26 -9 -5
STARTPROPERTIES 19
FOUNDRY "FreeType"
FAMILY_NAME "Open Sans"
WEIGHT_NAME "Medium"
SLANT "I"
SETWIDTH_NAME "Normal"
ADD_STYLE_NAME ""
PIXEL_SIZE 19
POINT_SIZE 140
RESOLUTION_X 100
RESOLUTION_Y 100
SPACING "P"
AVERAGE_WIDTH 100
CHARSET_REGISTRY "ISO10646"
CHARSET_ENCODING "1"
FONT_ASCENT 20
FONT_DESCENT 5
COPYRIGHT "Copyright 2020 The Open Sans Project Authors (https://github.com/googlefonts/opensans)"
_OTF_FONTFILE "OpenSans-Italic.ttf"
_OTF_PSNAME "OpenSans-Italic"
ENDPROPERTIES
CHARS 1010
STARTCHAR 0000
ENCODING 0
SWIDTH 0 0
DWIDTH 0 0
BBX 0 0 0 0
BITMAP
ENDCHAR
STARTCHAR 000D
ENCODING 13
SWIDTH 257 0
DWIDTH 5 0
BBX 0 0 0 0
BITMAP
ENDCHAR
STARTCHAR 0020
ENCODING 32
SWIDTH 257 0
DWIDTH 5 0
BBX 0 0 0 0
BITMAP
ENDCHAR
STARTCHAR 0021
ENCODING 33
SWIDTH 205 0
DWIDTH 4 0
BBX 5 14 0 0
BITMAP
18
18
18
10
10
30
30
20
20
20
00
00
60
E0
ENDCHAR
STARTCHAR 0022
ENCODING 34
SWIDTH 360 0
DWIDTH 7 0
BBX 6 5 2 9
BITMAP
4C
48
C8
C8
98
ENDCHAR
STARTCHAR 0023
ENCODING 35
SWIDTH 617 0
DWIDTH 12 0
BBX 12 14 1 0
BITMAP
0440
0C40
08C0
0880
7FF0
1980
1100
1100
3100
FFC0
2200
2200
6600
4400
ENDCHAR
STARTCHAR 0024
ENCODING 36
SWIDTH 514 0
DWIDTH 10 0
BBX 9 16 1 -1
BITMAP
0200
0600
1F80
3480
6400
6400
2C00
3800
0E00
0B00
1B00
1300
9600
FC00
1000
3000
ENDCHAR
STARTCHAR 0025
ENCODING 37
SWIDTH 771 0
DWIDTH 15 0
BBX 13 14 2 0
BITMAP
3830
4860
C840
8880
8980
8920
9AF0
F598
6D18
0910
1110
2110
6120
41E0
ENDCHAR
STARTCHAR 0026
ENCODING 38
SWIDTH 668 0
DWIDTH 13 0
BBX 12 14 1 0
BITMAP
0F00
1980
1080
3080
1180
1E00
1C00
7C30
C660
8240
83C0
8180
C7C0
7C40
ENDCHAR
STARTCHAR 0027
ENCODING 39
SWIDTH 205 0
DWIDTH 4 0
BBX 2 5 2 9
BITMAP
40
40
C0
C0
80
ENDCHAR
STARTCHAR 0028
ENCODING 40
SWIDTH 257 0
DWIDTH 5 0
BBX 6 17 1 -3
BITMAP
0C
18
10
20
60
40
40
C0
C0
80
80
80
80
80
C0
C0
40
ENDCHAR
STARTCHAR 0029
ENCODING 41
SWIDTH 257 0
DWIDTH 5 0
BBX 6 17 -1 -3
BITMAP
18
08
08
0C
0C
0C
0C
0C
0C
08
08
18
10
30
20
40
C0
ENDCHAR
STARTCHAR 002A
ENCODING 42
SWIDTH 514 0
DWIDTH 10 0
BBX 9 9 2 6
BITMAP
0C00
0C00
8800
E800
1F80
1800
2400
4400
0600
ENDCHAR
STARTCHAR 002B
ENCODING 43
SWIDTH 565 0
DWIDTH 11 0
BBX 9 10 1 2
BITMAP
0C00
0C00
0C00
0C00
FF80
FF80
0C00
0C00
0C00
0C00
ENDCHAR
STARTCHAR 002C
ENCODING 44
SWIDTH 205 0
DWIDTH 4 0
BBX 4 5 -1 -3
BITMAP
30
60
60
40
80
ENDCHAR
STARTCHAR 002D
ENCODING 45
SWIDTH 308 0
DWIDTH 6 0
BBX 4 2 1 4
BITMAP
F0
F0
ENDCHAR
STARTCHAR 002E
ENCODING 46
SWIDTH 205 0
DWIDTH 4 0
BBX 3 2 0 0
BITMAP
60
E0
ENDCHAR
STARTCHAR 002F
ENCODING 47
SWIDTH 308 0
DWIDTH 6 0
BBX 9 14 -1 0
BITMAP
0080
0180
0100
0300
0600
0400
0C00
0800
1800
1000
3000
2000
6000
C000
ENDCHAR
STARTCHAR 0030
ENCODING 48
SWIDTH 514 0
DWIDTH 10 0
BBX 9 14 1 0
BITMAP
0F00
1980
3180
6080
6080
4080
C080
C180
C180
C180
C100
C300
6600
7C00
ENDCHAR
STARTCHAR 0031
ENCODING 49
SWIDTH 514 0
DWIDTH 10 0
BBX 5 14 3 0
BITMAP
08
38
E8
98
18
10
10
30
30
30
20
20
60
60
ENDCHAR
STARTCHAR 0032
ENCODING 50
SWIDTH 514 0
DWIDTH 10 0
BBX 10 14 0 0
BITMAP
0F80
18C0
00C0
0040
00C0
00C0
0180
0300
0600
0C00
1800
3000
4000
FF80
ENDCHAR
STARTCHAR 0033
ENCODING 51
SWIDTH 514 0
DWIDTH 10 0
BBX 10 14 0 0
BITMAP
0F80
18C0
00C0
0040
00C0
0180
0F00
0700
0180
0180
0180
0180
C300
7E00
ENDCHAR
STARTCHAR 0034
ENCODING 52
SWIDTH 514 0
DWIDTH 10 0
BBX 10 14 0 0
BITMAP
00C0
01C0
03C0
0680
0480
0880
1980
3180
6100
FFC0
FFC0
0300
0300
0200
ENDCHAR
STARTCHAR 0035
ENCODING 53
SWIDTH 514 0
DWIDTH 10 0
BBX 9 14 1 0
BITMAP
1F80
1F80
3000
3000
2000
6000
7E00
0300
0100
0100
0100
0300
8600
FC00
ENDCHAR
STARTCHAR 0036
ENCODING 54
SWIDTH 514 0
DWIDTH 10 0
BBX 10 14 1 0
BITMAP
07C0
1C00
1000
3000
6000
6E00
5F00
E180
C180
C180
C100
C300
6600
3C00
ENDCHAR
STARTCHAR 0037
ENCODING 55
SWIDTH 514 0
DWIDTH 10 0
BBX 9 14 2 0
BITMAP
FF80
FF80
0300
0200
0600
0400
0C00
1800
1800
3000
2000
6000
4000
C000
ENDCHAR
STARTCHAR 0038
ENCODING 56
SWIDTH 514 0
DWIDTH 10 0
BBX 10 14 1 0
BITMAP
0F00
1980
30C0
2080
3080
1300
0E00
3600
4300
C100
C100
C100
C300
7E00
ENDCHAR
STARTCHAR 0039
ENCODING 57
SWIDTH 514 0
DWIDTH 10 0
BBX 9 14 1 0
BITMAP
1F00
3380
6180
6080
4080
4180
6180
7780
3D00
0100
0300
0600
0C00
F800
ENDCHAR
STARTCHAR 003A
ENCODING 58
SWIDTH 205 0
DWIDTH 4 0
BBX 4 11 0 0
BITMAP
10
30
30
00
00
00
00
00
00
60
E0
ENDCHAR
STARTCHAR 003B
ENCODING 59
SWIDTH 205 0
DWIDTH 4 0
BBX 5 14 -1 -3
BITMAP
08
18
18
00
00
00
00
00
00
30
60
40
C0
80
ENDCHAR
STARTCHAR 003C
ENCODING 60
SWIDTH 565 0
DWIDTH 11 0
BBX 10 10 1 2
BITMAP
0040
01C0
0700
1C00
6000
E000
3800
0700
01C0
0040
ENDCHAR
STARTCHAR 003D
ENCODING 61
SWIDTH 565 0
DWIDTH 11 0
BBX 9 5 1 4
BITMAP
FF80
0000
0000
FF80
FF80
ENDCHAR
STARTCHAR 003E
ENCODING 62
SWIDTH 565 0
DWIDTH 11 0
BBX 10 10 1 2
BITMAP
8000
E000
3800
0E00
0380
01C0
0700
3800
E000
8000
ENDCHAR
STARTCHAR 003F
ENCODING 63
SWIDTH 411 0
DWIDTH 8 0
BBX 7 14 2 0
BITMAP
7C
CC
06
06
04
0C
18
30
40
40
00
00
C0
C0
ENDCHAR
STARTCHAR 0040
ENCODING 64
SWIDTH 822 0
DWIDTH 16 0
BBX 15 16 1 -2
BITMAP
03E0
0E38
180C
3006
63E6
4622
CC62
C846
8846
88C4
89CC
C770
4000
6000
3DE0
0F80
ENDCHAR
STARTCHAR 0041
ENCODING 65
SWIDTH 514 0
DWIDTH 10 0
BBX 11 14 -1 0
BITMAP
0180
0180
0380
02C0
06C0
04C0
0CC0
1840
1FC0
3FC0
3060
6060
4060
C060
ENDCHAR
STARTCHAR 0042
ENCODING 66
SWIDTH 565 0
DWIDTH 11 0
BBX 10 14 1 0
BITMAP
1F80
3FC0
3040
3040
2040
20C0
7F00
6380
6080
40C0
4080
C180
C700
FE00
ENDCHAR
STARTCHAR 0043
ENCODING 67
SWIDTH 565 0
DWIDTH 11 0
BBX 11 14 1 0
BITMAP
07E0
0E60
1800
3000
6000
6000
4000
4000
C000
C000
4000
6000
7080
1F80
ENDCHAR
STARTCHAR 0044
ENCODING 68
SWIDTH 617 0
DWIDTH 12 0
BBX 11 14 1 0
BITMAP
1F00
3FC0
3060
3060
2020
2020
6020
6060
6060
4060
40C0
C180
C700
FC00
ENDCHAR
STARTCHAR 0045
ENCODING 69
SWIDTH 514 0
DWIDTH 10 0
BBX 10 14 1 0
BITMAP
1FC0
3F80
3000
3000
2000
2000
7F00
6000
6000
4000
4000
C000
C000
FE00
ENDCHAR
STARTCHAR 0046
ENCODING 70
SWIDTH 462 0
DWIDTH 9 0
BBX 10 14 1 0
BITMAP
1FC0
3FC0
3000
3000
2000
2000
6000
7F00
6000
4000
4000
C000
C000
C000
ENDCHAR
STARTCHAR 0047
ENCODING 71
SWIDTH 668 0
DWIDTH 13 0
BBX 12 14 1 0
BITMAP
07E0
0E70
1800
3000
6000
6000
4000
41E0
C060
C060
4040
6040
30C0
1FC0
ENDCHAR
STARTCHAR 0048
ENCODING 72
SWIDTH 668 0
DWIDTH 13 0
BBX 12 14 1 0
BITMAP
1010
3030
3030
3030
2020
2020
7FE0
6060
6060
4040
4040
C0C0
C0C0
C080
ENDCHAR
STARTCHAR 0049
ENCODING 73
SWIDTH 257 0
DWIDTH 5 0
BBX 4 14 1 0
BITMAP
10
30
30
30
20
20
60
60
60
40
40
C0
C0
80
ENDCHAR
STARTCHAR 004A
ENCODING 74
SWIDTH 257 0
DWIDTH 5 0
BBX 8 18 -3 -4
BITMAP
01
03
03
03
02
02
06
06
06
04
04
0C
0C
0C
08
18
F0
E0
ENDCHAR
STARTCHAR 004B
ENCODING 75
SWIDTH 514 0
DWIDTH 10 0
BBX 11 14 1 0
BITMAP
1060
30C0
3180
3300
2600
2C00
7C00
7C00
6400
4600
4200
C300
C300
C180
ENDCHAR
STARTCHAR 004C
ENCODING 76
SWIDTH 462 0
DWIDTH 9 0
BBX 7 14 1 0
BITMAP
10
30
30
30
20
20
60
60
60
40
40
C0
C0
FE
ENDCHAR
STARTCHAR 004D
ENCODING 77
SWIDTH 822 0
DWIDTH 16 0
BBX 15 14 1 0
BITMAP
1806
380E
380E
2816
2C34
2C24
6C6C
644C
44CC
4488
4588
C518
C618
8618
ENDCHAR
STARTCHAR 004E
ENCODING 78
SWIDTH 668 0
DWIDTH 13 0
BBX 13 14 1 0
BITMAP
1818
3810
3810
2C30
2430
2430
6620
6220
4360
4360
4160
C1C0
C0C0
80C0
ENDCHAR
STARTCHAR 004F
ENCODING 79
SWIDTH 720 0
DWIDTH 14 0
BBX 12 14 1 0
BITMAP
07C0
1CE0
3030
3030
6010
6010
4010
C030
C030
C030
4060
6060
31C0
1F00
ENDCHAR
STARTCHAR 0050
ENCODING 80
SWIDTH 565 0
DWIDTH 11 0
BBX 10 14 1 0
BITMAP
1F00
3F80
30C0
30C0
20C0
20C0
6180
7F00
7800
4000
4000
C000
C000
C000
ENDCHAR
STARTCHAR 0051
ENCODING 81
SWIDTH 720 0
DWIDTH 14 0
BBX 12 17 1 -3
BITMAP
07C0
1CE0
3030
3030
6010
6010
4010
C030
C030
C030
4060
6060
31C0
1F00
0300
0180
0180
ENDCHAR
STARTCHAR 0052
ENCODING 82
SWIDTH 565 0
DWIDTH 11 0
BBX 10 14 1 0
BITMAP
1F00
3F80
30C0
30C0
20C0
20C0
6180
7F00
6600
4200
4300
C300
C100
C180
ENDCHAR
STARTCHAR 0053
ENCODING 83
SWIDTH 462 0
DWIDTH 9 0
BBX 10 14 0 0
BITMAP
0FC0
1CC0
3000
3000
3000
3800
1C00
0700
0300
0180
0180
0100
C700
FE00
ENDCHAR
STARTCHAR 0054
ENCODING 84
SWIDTH 462 0
DWIDTH 9 0
BBX 9 14 2 0
BITMAP
FF80
FF80
1800
1800
1800
1000
1000
3000
3000
3000
2000
2000
6000
6000
ENDCHAR
STARTCHAR 0055
ENCODING 85
SWIDTH 668 0
DWIDTH 13 0
BBX 11 14 2 0
BITMAP
6020
6060
6060
4060
4040
C040
C0C0
C0C0
80C0
8080
8180
8180
C300
7E00
ENDCHAR
STARTCHAR 0056
ENCODING 86
SWIDTH 514 0
DWIDTH 10 0
BBX 10 14 2 0
BITMAP
80C0
C0C0
C180
C180
C300
C300
4600
4600
4C00
4800
5800
7000
7000
6000
ENDCHAR
STARTCHAR 0057
ENCODING 87
SWIDTH 822 0
DWIDTH 16 0
BBX 16 14 2 0
BITMAP
C183
C183
C386
C286
C684
C48C
CC88
C898
D890
50B0
50B0
70A0
60E0
60C0
ENDCHAR
STARTCHAR 0058
ENCODING 88
SWIDTH 514 0
DWIDTH 10 0
BBX 12 14 -1 0
BITMAP
1810
0830
0C60
0CC0
0480
0700
0300
0700
0D00
1900
1180
3080
60C0
C0C0
ENDCHAR
STARTCHAR 0059
ENCODING 89
SWIDTH 462 0
DWIDTH 9 0
BBX 9 14 2 0
BITMAP
8080
C180
C300
4200
4600
6C00
6800
3800
3000
3000
2000
2000
6000
6000
ENDCHAR
STARTCHAR 005A
ENCODING 90
SWIDTH 514 0
DWIDTH 10 0
BBX 11 14 0 0
BITMAP
1FE0
1FE0
00C0
0180
0100
0300
0600
0C00
1800
1000
3000
6000
C000
FF80
ENDCHAR
STARTCHAR 005B
ENCODING 91
SWIDTH 257 0
DWIDTH 5 0
BBX 7 17 0 -3
BITMAP
1E
18
10
10
10
30
30
20
20
60
60
60
40
40
C0
C0
F0
ENDCHAR
STARTCHAR 005C
ENCODING 92
SWIDTH 308 0
DWIDTH 6 0
BBX 4 14 2 0
BITMAP
C0
C0
C0
40
40
40
40
60
60
20
20
20
20
30
ENDCHAR
STARTCHAR 005D
ENCODING 93
SWIDTH 257 0
DWIDTH 5 0
BBX 7 17 -1 -3
BITMAP
1E
06
04
04
04
0C
0C
08
08
18
18
18
10
10
30
30
E0
ENDCHAR
STARTCHAR 005E
ENCODING 94
SWIDTH 565 0
DWIDTH 11 0
BBX 9 9 1 5
BITMAP
0800
1C00
1400
3600
2200
6300
4100
C180
8080
ENDCHAR
STARTCHAR 005F
ENCODING 95
SWIDTH 360 0
DWIDTH 7 0
BBX 8 1 -2 -3
BITMAP
FF
ENDCHAR
STARTCHAR 0060
ENCODING 96
SWIDTH 257 0
DWIDTH 5 0
BBX 3 3 3 12
BITMAP
C0
40
60
ENDCHAR
STARTCHAR 0061
ENCODING 97
SWIDTH 514 0
DWIDTH 10 0
BBX 9 11 1 0
BITMAP
0C00
3E80
6180
6180
C180
C180
C100
C300
C300
CF00
7B00
ENDCHAR
STARTCHAR 0062
ENCODING 98
SWIDTH 565 0
DWIDTH 11 0
BBX 9 15 1 0
BITMAP
1000
3000
3000
3000
2200
2F80
7180
6080
6080
4080
4180
C180
C300
A700
BC00
ENDCHAR
STARTCHAR 0063
ENCODING 99
SWIDTH 411 0
DWIDTH 8 0
BBX 8 11 1 0
BITMAP
0E
3F
60
60
C0
C0
C0
C0
C0
E0
7C
ENDCHAR
STARTCHAR 0064
ENCODING 100
SWIDTH 565 0
DWIDTH 11 0
BBX 11 15 1 0
BITMAP
0060
0040
0040
00C0
0CC0
3E80
6180
6180
C180
C180
C100
C300
C300
CF00
7B00
ENDCHAR
STARTCHAR 0065
ENCODING 101
SWIDTH 462 0
DWIDTH 9 0
BBX 8 11 1 0
BITMAP
0C
3F
63
63
C3
FC
C0
C0
C0
E2
7E
ENDCHAR
STARTCHAR 0066
ENCODING 102
SWIDTH 308 0
DWIDTH 6 0
BBX 11 20 -2 -5
BITMAP
01E0
0340
0200
0600
0600
1F80
0400
0C00
0C00
0C00
0800
0800
1800
1800
1800
1000
1000
3000
E000
C000
ENDCHAR
STARTCHAR 0067
ENCODING 103
SWIDTH 514 0
DWIDTH 10 0
BBX 11 16 -1 -5
BITMAP
0300
0FE0
18C0
10C0
10C0
1080
0F00
1000
3000
3E00
3F80
4080
C080
C180
7F00
3C00
ENDCHAR
STARTCHAR 0068
ENCODING 104
SWIDTH 565 0
DWIDTH 11 0
BBX 9 15 1 0
BITMAP
1000
3000
3000
3000
2200
2F80
7180
6180
6180
4180
4180
C100
C300
8300
8300
ENDCHAR
STARTCHAR 0069
ENCODING 105
SWIDTH 205 0
DWIDTH 4 0
BBX 4 14 1 0
BITMAP
30
30
00
00
20
60
60
60
40
40
C0
C0
80
80
ENDCHAR
STARTCHAR 006A
ENCODING 106
SWIDTH 205 0
DWIDTH 4 0
BBX 7 19 -2 -5
BITMAP
06
06
00
00
04
0C
0C
08
08
08
18
18
10
10
30
30
30
E0
C0
ENDCHAR
STARTCHAR 006B
ENCODING 107
SWIDTH 462 0
DWIDTH 9 0
BBX 9 15 1 0
BITMAP
1000
3000
3000
3000
2000
2380
6600
6C00
5800
7800
E800
CC00
C400
8600
8600
ENDCHAR
STARTCHAR 006C
ENCODING 108
SWIDTH 205 0
DWIDTH 4 0
BBX 4 15 1 0
BITMAP
10
30
30
30
20
20
60
60
40
40
C0
C0
C0
80
80
ENDCHAR
STARTCHAR 006D
ENCODING 109
SWIDTH 822 0
DWIDTH 16 0
BBX 15 11 1 0
BITMAP
0608
2F3E
71C6
6186
6186
4104
4104
C30C
C30C
830C
8208
ENDCHAR
STARTCHAR 006E
ENCODING 110
SWIDTH 565 0
DWIDTH 11 0
BBX 9 11 1 0
BITMAP
0700
2F80
7180
6180
6180
4180
C180
C100
C300
8300
8300
ENDCHAR
STARTCHAR 006F
ENCODING 111
SWIDTH 514 0
DWIDTH 10 0
BBX 9 11 1 0
BITMAP
0C00
3F00
6180
4180
C180
C180
C180
C100
C300
6600
7C00
ENDCHAR
STARTCHAR 0070
ENCODING 112
SWIDTH 565 0
DWIDTH 11 0
BBX 10 16 0 -5
BITMAP
0100
17C0
38C0
3040
3040
2040
20C0
60C0
6180
5380
5E00
C000
C000
C000
8000
8000
ENDCHAR
STARTCHAR 0071
ENCODING 113
SWIDTH 565 0
DWIDTH 11 0
BBX 9 16 1 -5
BITMAP
0C00
3E80
6180
6180
C180
C180
C100
C300
C300
CF00
7B00
0200
0200
0600
0600
0400
ENDCHAR
STARTCHAR 0072
ENCODING 114
SWIDTH 360 0
DWIDTH 7 0
BBX 7 11 1 0
BITMAP
06
2E
70
60
60
40
40
C0
C0
80
80
ENDCHAR
STARTCHAR 0073
ENCODING 115
SWIDTH 411 0
DWIDTH 8 0
BBX 8 11 0 0
BITMAP
0C
3F
60
60
30
38
0E
06
06
86
FC
ENDCHAR
STARTCHAR 0074
ENCODING 116
SWIDTH 308 0
DWIDTH 6 0
BBX 6 13 1 0
BITMAP
10
30
20
FC
60
60
60
40
40
C0
C0
C0
70
ENDCHAR
STARTCHAR 0075
ENCODING 117
SWIDTH 565 0
DWIDTH 11 0
BBX 9 10 1 0
BITMAP
6080
6080
6180
4180
4180
C100
C300
C300
CF00
7B00
ENDCHAR
STARTCHAR 0076
ENCODING 118
SWIDTH 411 0
DWIDTH 8 0
BBX 8 10 1 0
BITMAP
C1
C3
C2
C6
44
4C
48
58
50
60
ENDCHAR
STARTCHAR 0077
ENCODING 119
SWIDTH 668 0
DWIDTH 13 0
BBX 13 10 1 0
BITMAP
C308
C518
C510
C930
C920
D960
D140
F1C0
E180
6180
ENDCHAR
STARTCHAR 0078
ENCODING 120
SWIDTH 462 0
DWIDTH 9 0
BBX 9 10 0 0
BITMAP
3180
3300
1200
1E00
0C00
1C00
3400
6600
4200
C300
ENDCHAR
STARTCHAR 0079
ENCODING 121
SWIDTH 411 0
DWIDTH 8 0
BBX 11 15 -2 -5
BITMAP
1820
1860
1840
08C0
0880
0980
0900
0B00
0E00
0C00
0C00
0800
1800
F000
E000
ENDCHAR
STARTCHAR 007A
ENCODING 122
SWIDTH 411 0
DWIDTH 8 0
BBX 8 10 0 0
BITMAP
3F
03
06
0C
08
10
30
60
C0
FE
ENDCHAR
STARTCHAR 007B
ENCODING 123
SWIDTH 308 0
DWIDTH 6 0
BBX 8 17 0 -3
BITMAP
07
0E
08
08
08
18
18
30
C0
20
30
30
20
20
60
60
30
ENDCHAR
STARTCHAR 007C
ENCODING 124
SWIDTH 514 0
DWIDTH 10 0
BBX 1 20 5 -5
BITMAP
80
80
80
80
80
80
80
80
80
80
80
80
80
80
80
80
80
80
80
80
ENDCHAR
STARTCHAR 007D
ENCODING 125
SWIDTH 308 0
DWIDTH 6 0
BBX 8 17 -1 -3
BITMAP
1C
0C
04
04
04
0C
0C
0C
07
0C
18
18
10
10
30
30
E0
ENDCHAR
STARTCHAR 007E
ENCODING 126
SWIDTH 565 0
DWIDTH 11 0
BBX 10 2 1 6
BITMAP
7840
CF80
ENDCHAR
STARTCHAR 00A0
ENCODING 160
SWIDTH 257 0
DWIDTH 5 0
BBX 0 0 0 0
BITMAP
ENDCHAR
STARTCHAR 00A1
ENCODING 161
SWIDTH 205 0
DWIDTH 4 0
BBX 5 15 0 -4
BITMAP
10
38
30
00
00
20
20
20
60
60
40
40
C0
C0
C0
ENDCHAR
STARTCHAR 00A2
ENCODING 162
SWIDTH 514 0
DWIDTH 10 0
BBX 8 14 2 0
BITMAP
04
04
1F
30
60
40
C0
C0
C0
C0
62
7E
10
30
ENDCHAR
STARTCHAR 00A3
ENCODING 163
SWIDTH 514 0
DWIDTH 10 0
BBX 11 14 0 0
BITMAP
03E0
0660
0C00
0800
0800
1800
1800
7F00
1000
1000
3000
2000
4000
FF80
ENDCHAR
STARTCHAR 00A4
ENCODING 164
SWIDTH 514 0
DWIDTH 10 0
BBX 8 8 2 3
BITMAP
81
FE
42
82
82
C2
6E
BB
ENDCHAR
STARTCHAR 00A5
ENCODING 165
SWIDTH 514 0
DWIDTH 10 0
BBX 11 14 1 0
BITMAP
6060
20C0
2080
3180
3300
1200
1600
7F00
7F00
1800
FE00
1000
1000
1000
ENDCHAR
STARTCHAR 00A6
ENCODING 166
SWIDTH 514 0
DWIDTH 10 0
BBX 1 20 5 -5
BITMAP
80
80
80
80
80
80
80
80
00
00
00
00
80
80
80
80
80
80
80
80
ENDCHAR
STARTCHAR 00A7
ENCODING 167
SWIDTH 462 0
DWIDTH 9 0
BBX 8 15 1 0
BITMAP
1F
31
20
30
18
3E
43
43
42
74
1C
04
04
0C
F8
ENDCHAR
STARTCHAR 00A8
ENCODING 168
SWIDTH 514 0
DWIDTH 10 0
BBX 6 2 4 12
BITMAP
CC
48
ENDCHAR
STARTCHAR 00A9
ENCODING 169
SWIDTH 822 0
DWIDTH 16 0
BBX 14 14 1 0
BITMAP
0FC0
3030
6018
47C8
8C04
8804
8804
8804
8804
8C04
47C8
6018
3030
0FC0
ENDCHAR
STARTCHAR 00AA
ENCODING 170
SWIDTH 308 0
DWIDTH 6 0
BBX 5 7 2 7
BITMAP
78
C8
88
88
98
B0
40
ENDCHAR
STARTCHAR 00AB
ENCODING 171
SWIDTH 462 0
DWIDTH 9 0
BBX 8 8 1 1
BITMAP
11
22
64
CC
C8
4C
64
24
ENDCHAR
STARTCHAR 00AC
ENCODING 172
SWIDTH 565 0
DWIDTH 11 0
BBX 9 6 1 2
BITMAP
FF80
FF80
0080
0080
0080
0080
ENDCHAR
STARTCHAR 00AD
ENCODING 173
SWIDTH 308 0
DWIDTH 6 0
BBX 4 2 1 4
BITMAP
F0
F0
ENDCHAR
STARTCHAR 00AE
ENCODING 174
SWIDTH 822 0
DWIDTH 16 0
BBX 14 14 1 0
BITMAP
0FC0
3030
6018
4F88
8CC4
8C44
8CC4
8F84
8D84
8CC4
4C48
6018
3030
0FC0
ENDCHAR
STARTCHAR 00AF
ENCODING 175
SWIDTH 360 0
DWIDTH 7 0
BBX 8 1 2 15
BITMAP
FF
ENDCHAR
STARTCHAR 00B0
ENCODING 176
SWIDTH 411 0
DWIDTH 8 0
BBX 6 6 1 8
BITMAP
78
C4
84
84
4C
38
ENDCHAR
STARTCHAR 00B1
ENCODING 177
SWIDTH 565 0
DWIDTH 11 0
BBX 10 12 1 0
BITMAP
0C00
0C00
0C00
0C00
FF80
FF80
0C00
0C00
0C00
0C00
0000
FFC0
ENDCHAR
STARTCHAR 00B2
ENCODING 178
SWIDTH 308 0
DWIDTH 6 0
BBX 7 9 1 8
BITMAP
08
34
06
04
0C
18
30
60
FC
ENDCHAR
STARTCHAR 00B3
ENCODING 179
SWIDTH 308 0
DWIDTH 6 0
BBX 6 9 2 8
BITMAP
30
68
0C
08
70
18
08
18
F0
ENDCHAR
STARTCHAR 00B4
ENCODING 180
SWIDTH 257 0
DWIDTH 5 0
BBX 3 3 3 12
BITMAP
60
C0
80
ENDCHAR
STARTCHAR 00B5
ENCODING 181
SWIDTH 565 0
DWIDTH 11 0
BBX 11 15 0 -5
BITMAP
1060
3040
3040
30C0
20C0
2080
6180
6180
6380
7D80
C000
C000
C000
8000
8000
ENDCHAR
STARTCHAR 00B6
ENCODING 182
SWIDTH 617 0
DWIDTH 12 0
BBX 9 17 2 -2
BITMAP
3F80
7F80
FC80
FC80
FC80
FC80
FC80
FC80
7C80
3C80
0480
0480
0480
0480
0480
0480
0480
ENDCHAR
STARTCHAR 00B7
ENCODING 183
SWIDTH 205 0
DWIDTH 4 0
BBX 2 2 2 6
BITMAP
C0
C0
ENDCHAR
STARTCHAR 00B8
ENCODING 184
SWIDTH 154 0
DWIDTH 3 0
BBX 4 5 -2 -5
BITMAP
20
70
10
30
C0
ENDCHAR
STARTCHAR 00B9
ENCODING 185
SWIDTH 308 0
DWIDTH 6 0
BBX 4 8 3 8
BITMAP
70
A0
20
20
60
60
40
40
ENDCHAR
STARTCHAR 00BA
ENCODING 186
SWIDTH 308 0
DWIDTH 6 0
BBX 5 6 2 7
BITMAP
78
C8
88
88
88
D0
ENDCHAR
STARTCHAR 00BB
ENCODING 187
SWIDTH 462 0
DWIDTH 9 0
BBX 7 8 1 1
BITMAP
C8
44
66
26
66
CC
98
10
ENDCHAR
STARTCHAR 00BC
ENCODING 188
SWIDTH 720 0
DWIDTH 14 0
BBX 11 14 2 0
BITMAP
3020
7040
30C0
2180
2100
2200
2660
6CE0
08A0
1160
3240
27E0
4040
80C0
ENDCHAR
STARTCHAR 00BD
ENCODING 189
SWIDTH 771 0
DWIDTH 15 0
BBX 13 14 2 0
BITMAP
3020
7040
30C0
2180
2100
2220
26F0
6418
0810
1030
3060
20C0
4180
83F0
ENDCHAR
STARTCHAR 00BE
ENCODING 190
SWIDTH 771 0
DWIDTH 15 0
BBX 13 14 1 0
BITMAP
3C08
0418
0430
0820
3840
0CC0
0998
D918
6228
0658
0C90
09F8
1010
3010
ENDCHAR
STARTCHAR 00BF
ENCODING 191
SWIDTH 411 0
DWIDTH 8 0
BBX 7 15 0 -4
BITMAP
04
06
04
00
00
0C
08
30
60
C0
80
80
80
FC
78
ENDCHAR
STARTCHAR 00C0
ENCODING 192
SWIDTH 514 0
DWIDTH 10 0
BBX 11 18 -1 0
BITMAP
0180
0080
00C0
0000
0180
0180
0380
02C0
06C0
04C0
0CC0
1840
1FC0
3FC0
3060
6060
4060
C060
ENDCHAR
STARTCHAR 00C1
ENCODING 193
SWIDTH 514 0
DWIDTH 10 0
BBX 11 18 -1 0
BITMAP
0060
00C0
0080
0000
0180
0180
0380
02C0
06C0
04C0
0CC0
1840
1FC0
3FC0
3060
6060
4060
C060
ENDCHAR
STARTCHAR 00C2
ENCODING 194
SWIDTH 514 0
DWIDTH 10 0
BBX 11 18 -1 0
BITMAP
00C0
0160
0620
0000
0180
0180
0380
02C0
06C0
04C0
0CC0
1840
1FC0
3FC0
3060
6060
4060
C060
ENDCHAR
STARTCHAR 00C3
ENCODING 195
SWIDTH 514 0
DWIDTH 10 0
BBX 12 18 -1 0
BITMAP
0110
03F0
0460
0000
0180
0180
0380
02C0
06C0
04C0
0CC0
1840
1FC0
3FC0
3060
6060
4060
C060
ENDCHAR
STARTCHAR 00C4
ENCODING 196
SWIDTH 514 0
DWIDTH 10 0
BBX 11 18 -1 0
BITMAP
0120
0320
0000
0000
0180
0180
0380
02C0
06C0
04C0
0CC0
1840
1FC0
3FC0
3060
6060
4060
C060
ENDCHAR
STARTCHAR 00C5
ENCODING 197
SWIDTH 514 0
DWIDTH 10 0
BBX 11 19 -1 0
BITMAP
01C0
0120
0120
01C0
0000
0180
0180
0380
02C0
06C0
04C0
0CC0
1840
1FC0
3FC0
3060
6060
4060
C060
ENDCHAR
STARTCHAR 00C6
ENCODING 198
SWIDTH 771 0
DWIDTH 15 0
BBX 18 14 -1 0
BITMAP
00FFC0
00FF80
01B000
013000
032000
066000
047F00
0C6000
1FC000
1FC000
30C000
60C000
60C000
C0FE00
ENDCHAR
STARTCHAR 00C7
ENCODING 199
SWIDTH 565 0
DWIDTH 11 0
BBX 11 19 1 -5
BITMAP
07E0
0E60
1800
3000
6000
6000
4000
4000
C000
C000
4000
6000
7080
1F80
0800
0C00
0400
0C00
1800
ENDCHAR
STARTCHAR 00C8
ENCODING 200
SWIDTH 514 0
DWIDTH 10 0
BBX 10 18 1 0
BITMAP
0400
0200
0300
0000
1FC0
3F80
3000
3000
2000
2000
7F00
6000
6000
4000
4000
C000
C000
FE00
ENDCHAR
STARTCHAR 00C9
ENCODING 201
SWIDTH 514 0
DWIDTH 10 0
BBX 10 18 1 0
BITMAP
0180
0300
0600
0000
1FC0
3F80
3000
3000
2000
2000
7F00
6000
6000
4000
4000
C000
C000
FE00
ENDCHAR
STARTCHAR 00CA
ENCODING 202
SWIDTH 514 0
DWIDTH 10 0
BBX 10 18 1 0
BITMAP
0700
0D80
1880
0000
1FC0
3F80
3000
3000
2000
2000
7F00
6000
6000
4000
4000
C000
C000
FE00
ENDCHAR
STARTCHAR 00CB
ENCODING 203
SWIDTH 514 0
DWIDTH 10 0
BBX 10 18 1 0
BITMAP
0480
0C80
0000
0000
1FC0
3F80
3000
3000
2000
2000
7F00
6000
6000
4000
4000
C000
C000
FE00
ENDCHAR
STARTCHAR 00CC
ENCODING 204
SWIDTH 257 0
DWIDTH 5 0
BBX 5 18 1 0
BITMAP
30
10
08
00
10
30
30
30
20
20
60
60
60
40
40
C0
C0
80
ENDCHAR
STARTCHAR 00CD
ENCODING 205
SWIDTH 257 0
DWIDTH 5 0
BBX 7 18 1 0
BITMAP
06
08
10
00
10
30
30
30
20
20
60
60
60
40
40
C0
C0
80
ENDCHAR
STARTCHAR 00CE
ENCODING 206
SWIDTH 257 0
DWIDTH 5 0
BBX 7 18 1 0
BITMAP
1C
34
42
00
10
30
30
30
20
20
60
60
60
40
40
C0
C0
80
ENDCHAR
STARTCHAR 00CF
ENCODING 207
SWIDTH 257 0
DWIDTH 5 0
BBX 7 18 1 0
BITMAP
22
26
00
00
10
30
30
30
20
20
60
60
60
40
40
C0
C0
80
ENDCHAR
STARTCHAR 00D0
ENCODING 208
SWIDTH 617 0
DWIDTH 12 0
BBX 11 14 1 0
BITMAP
1F00
3FC0
3060
3060
2020
2020
FC20
FC60
6060
4060
40C0
C180
C700
FC00
ENDCHAR
STARTCHAR 00D1
ENCODING 209
SWIDTH 668 0
DWIDTH 13 0
BBX 13 18 1 0
BITMAP
0310
07E0
0440
0000
1818
3810
3810
2C30
2430
2430
6620
6220
4360
4360
4160
C1C0
C0C0
80C0
ENDCHAR
STARTCHAR 00D2
ENCODING 210
SWIDTH 720 0
DWIDTH 14 0
BBX 12 18 1 0
BITMAP
0300
0180
0080
0000
07C0
1CE0
3030
3030
6010
6010
4010
C030
C030
C030
4060
6060
31C0
1F00
ENDCHAR
STARTCHAR 00D3
ENCODING 211
SWIDTH 720 0
DWIDTH 14 0
BBX 12 18 1 0
BITMAP
0060
00C0
0100
0000
07C0
1CE0
3030
3030
6010
6010
4010
C030
C030
C030
4060
6060
31C0
1F00
ENDCHAR
STARTCHAR 00D4
ENCODING 212
SWIDTH 720 0
DWIDTH 14 0
BBX 12 18 1 0
BITMAP
01C0
0340
0420
0000
07C0
1CE0
3030
3030
6010
6010
4010
C030
C030
C030
4060
6060
31C0
1F00
ENDCHAR
STARTCHAR 00D5
ENCODING 213
SWIDTH 720 0
DWIDTH 14 0
BBX 12 18 1 0
BITMAP
0310
07E0
0440
0000
07C0
1CE0
3030
3030
6010
6010
4010
C030
C030
C030
4060
6060
31C0
1F00
ENDCHAR
STARTCHAR 00D6
ENCODING 214
SWIDTH 720 0
DWIDTH 14 0
BBX 12 18 1 0
BITMAP
0220
0260
0000
0000
07C0
1CE0
3030
3030
6010
6010
4010
C030
C030
C030
4060
6060
31C0
1F00
ENDCHAR
STARTCHAR 00D7
ENCODING 215
SWIDTH 565 0
DWIDTH 11 0
BBX 8 8 2 3
BITMAP
81
C2
64
38
18
2C
46
C3
ENDCHAR
STARTCHAR 00D8
ENCODING 216
SWIDTH 720 0
DWIDTH 14 0
BBX 13 14 1 0
BITMAP
07D8
1CF0
3070
3070
6090
6190
4310
C610
CC30
C830
5860
7060
71C0
DF00
ENDCHAR
STARTCHAR 00D9
ENCODING 217
SWIDTH 668 0
DWIDTH 13 0
BBX 11 18 2 0
BITMAP
0600
0200
0100
0000
6020
6060
6060
4060
4040
C040
C0C0
C0C0
80C0
8080
8180
8180
C300
7E00
ENDCHAR
STARTCHAR 00DA
ENCODING 218
SWIDTH 668 0
DWIDTH 13 0
BBX 11 18 2 0
BITMAP
0180
0100
0200
0000
6020
6060
6060
4060
4040
C040
C0C0
C0C0
80C0
8080
8180
8180
C300
7E00
ENDCHAR
STARTCHAR 00DB
ENCODING 219
SWIDTH 668 0
DWIDTH 13 0
BBX 11 18 2 0
BITMAP
0300
0580
0880
0000
6020
6060
6060
4060
4040
C040
C0C0
C0C0
80C0
8080
8180
8180
C300
7E00
ENDCHAR
STARTCHAR 00DC
ENCODING 220
SWIDTH 668 0
DWIDTH 13 0
BBX 11 18 2 0
BITMAP
0480
0C80
0000
0000
6020
6060
6060
4060
4040
C040
C0C0
C0C0
80C0
8080
8180
8180
C300
7E00
ENDCHAR
STARTCHAR 00DD
ENCODING 221
SWIDTH 462 0
DWIDTH 9 0
BBX 9 18 2 0
BITMAP
0300
0600
0800
0000
8080
C180
C300
4200
4600
6C00
6800
3800
3000
3000
2000
2000
6000
6000
ENDCHAR
STARTCHAR 00DE
ENCODING 222
SWIDTH 565 0
DWIDTH 11 0
BBX 9 14 1 0
BITMAP
1000
3000
3000
3F80
2180
2080
6080
6080
6180
4700
7C00
C000
C000
C000
ENDCHAR
STARTCHAR 00DF
ENCODING 223
SWIDTH 565 0
DWIDTH 11 0
BBX 13 20 -2 -5
BITMAP
01E0
0330
0618
0610
0430
0460
0CC0
0C80
08C0
0860
0830
1830
1830
1030
13E0
3000
3000
3000
E000
C000
ENDCHAR
STARTCHAR 00E0
ENCODING 224
SWIDTH 514 0
DWIDTH 10 0
BBX 9 15 1 0
BITMAP
0C00
0400
0600
0000
0C00
3E80
6180
6180
C180
C180
C100
C300
C300
CF00
7B00
ENDCHAR
STARTCHAR 00E1
ENCODING 225
SWIDTH 514 0
DWIDTH 10 0
BBX 9 15 1 0
BITMAP
0180
0300
0600
0000
0C00
3E80
6180
6180
C180
C180
C100
C300
C300
CF00
7B00
ENDCHAR
STARTCHAR 00E2
ENCODING 226
SWIDTH 514 0
DWIDTH 10 0
BBX 9 15 1 0
BITMAP
0600
0F00
1900
0000
0C00
3E80
6180
6180
C180
C180
C100
C300
C300
CF00
7B00
ENDCHAR
STARTCHAR 00E3
ENCODING 227
SWIDTH 514 0
DWIDTH 10 0
BBX 9 14 1 0
BITMAP
1E80
1380
0000
0C00
3E80
6180
6180
C180
C180
C100
C300
C300
CF00
7B00
ENDCHAR
STARTCHAR 00E4
ENCODING 228
SWIDTH 514 0
DWIDTH 10 0
BBX 9 14 1 0
BITMAP
0980
0900
0000
0C00
3E80
6180
6180
C180
C180
C100
C300
C300
CF00
7B00
ENDCHAR
STARTCHAR 00E5
ENCODING 229
SWIDTH 514 0
DWIDTH 10 0
BBX 9 16 1 0
BITMAP
0600
0900
0900
0F00
0000
0C00
3E80
6180
6180
C180
C180
C100
C300
C300
CF00
7B00
ENDCHAR
STARTCHAR 00E6
ENCODING 230
SWIDTH 771 0
DWIDTH 15 0
BBX 15 11 1 0
BITMAP
0C18
3EFC
63C6
6184
C10C
C1F8
C300
C300
C700
CF88
72F8
ENDCHAR
STARTCHAR 00E7
ENCODING 231
SWIDTH 411 0
DWIDTH 8 0
BBX 8 16 1 -5
BITMAP
0E
3F
60
60
C0
C0
C0
C0
C0
E0
7C
30
30
10
10
60
ENDCHAR
STARTCHAR 00E8
ENCODING 232
SWIDTH 462 0
DWIDTH 9 0
BBX 8 15 1 0
BITMAP
18
0C
04
00
0C
3F
63
63
C3
FC
C0
C0
C0
E2
7E
ENDCHAR
STARTCHAR 00E9
ENCODING 233
SWIDTH 462 0
DWIDTH 9 0
BBX 8 15 1 0
BITMAP
03
02
04
00
0C
3F
63
63
C3
FC
C0
C0
C0
E2
7E
ENDCHAR
STARTCHAR 00EA
ENCODING 234
SWIDTH 462 0
DWIDTH 9 0
BBX 8 15 1 0
BITMAP
06
0A
13
00
0C
3F
63
63
C3
FC
C0
C0
C0
E2
7E
ENDCHAR
STARTCHAR 00EB
ENCODING 235
SWIDTH 462 0
DWIDTH 9 0
BBX 8 14 1 0
BITMAP
19
11
00
0C
3F
63
63
C3
FC
C0
C0
C0
E2
7E
ENDCHAR
STARTCHAR 00EC
ENCODING 236
SWIDTH 205 0
DWIDTH 4 0
BBX 4 15 1 0
BITMAP
60
20
30
00
00
20
60
60
60
40
40
C0
C0
80
80
ENDCHAR
STARTCHAR 00ED
ENCODING 237
SWIDTH 205 0
DWIDTH 4 0
BBX 6 15 1 0
BITMAP
0C
18
30
00
00
20
60
60
60
40
40
C0
C0
80
80
ENDCHAR
STARTCHAR 00EE
ENCODING 238
SWIDTH 205 0
DWIDTH 4 0
BBX 5 15 1 0
BITMAP
30
78
C8
00
00
20
60
60
60
40
40
C0
C0
80
80
ENDCHAR
STARTCHAR 00EF
ENCODING 239
SWIDTH 205 0
DWIDTH 4 0
BBX 6 14 1 0
BITMAP
4C
48
00
00
20
60
60
60
40
40
C0
C0
80
80
ENDCHAR
STARTCHAR 00F0
ENCODING 240
SWIDTH 565 0
DWIDTH 11 0
BBX 9 14 1 1
BITMAP
0F80
0700
1D00
0180
0180
3E80
6380
4180
C180
C180
8100
C300
C600
7C00
ENDCHAR
STARTCHAR 00F1
ENCODING 241
SWIDTH 565 0
DWIDTH 11 0
BBX 10 14 1 0
BITMAP
1EC0
1380
0000
0700
2F80
7180
6180
6180
4180
C180
C100
C300
8300
8300
ENDCHAR
STARTCHAR 00F2
ENCODING 242
SWIDTH 514 0
DWIDTH 10 0
BBX 9 15 1 0
BITMAP
0800
0C00
0400
0000
0C00
3F00
6180
4180
C180
C180
C180
C100
C300
6600
7C00
ENDCHAR
STARTCHAR 00F3
ENCODING 243
SWIDTH 514 0
DWIDTH 10 0
BBX 9 15 1 0
BITMAP
0100
0300
0400
0000
0C00
3F00
6180
4180
C180
C180
C180
C100
C300
6600
7C00
ENDCHAR
STARTCHAR 00F4
ENCODING 244
SWIDTH 514 0
DWIDTH 10 0
BBX 9 15 1 0
BITMAP
0600
0E00
1100
0000
0C00
3F00
6180
4180
C180
C180
C180
C100
C300
6600
7C00
ENDCHAR
STARTCHAR 00F5
ENCODING 245
SWIDTH 514 0
DWIDTH 10 0
BBX 9 14 1 0
BITMAP
1C80
3700
0000
0C00
3F00
6180
4180
C180
C180
C180
C100
C300
6600
7C00
ENDCHAR
STARTCHAR 00F6
ENCODING 246
SWIDTH 514 0
DWIDTH 10 0
BBX 9 14 1 0
BITMAP
1900
1900
0000
0C00
3F00
6180
4180
C180
C180
C180
C100
C300
6600
7C00
ENDCHAR
STARTCHAR 00F7
ENCODING 247
SWIDTH 565 0
DWIDTH 11 0
BBX 10 9 1 2
BITMAP
0C00
0C00
0000
FFC0
FFC0
0000
0800
0C00
0800
ENDCHAR
STARTCHAR 00F8
ENCODING 248
SWIDTH 514 0
DWIDTH 10 0
BBX 9 12 1 -1
BITMAP
0C80
3F80
6380
4380
C580
CD80
D980
F100
E300
4600
FC00
8000
ENDCHAR
STARTCHAR 00F9
ENCODING 249
SWIDTH 565 0
DWIDTH 11 0
BBX 9 15 1 0
BITMAP
0C00
0400
0600
0000
0000
6080
6080
6180
4180
4180
C100
C300
C300
CF00
7B00
ENDCHAR
STARTCHAR 00FA
ENCODING 250
SWIDTH 565 0
DWIDTH 11 0
BBX 9 15 1 0
BITMAP
0180
0300
0600
0000
0000
6080
6080
6180
4180
4180
C100
C300
C300
CF00
7B00
ENDCHAR
STARTCHAR 00FB
ENCODING 251
SWIDTH 565 0
DWIDTH 11 0
BBX 9 15 1 0
BITMAP
0600
0F00
1900
0000
0000
6080
6080
6180
4180
4180
C100
C300
C300
CF00
7B00
ENDCHAR
STARTCHAR 00FC
ENCODING 252
SWIDTH 565 0
DWIDTH 11 0
BBX 9 14 1 0
BITMAP
0980
0900
0000
0000
6080
6080
6180
4180
4180
C100
C300
C300
CF00
7B00
ENDCHAR
STARTCHAR 00FD
ENCODING 253
SWIDTH 411 0
DWIDTH 8 0
BBX 11 20 -2 -5
BITMAP
00C0
0080
0100
0000
0000
1820
1860
1840
08C0
0880
0980
0900
0B00
0E00
0C00
0C00
0800
1800
F000
E000
ENDCHAR
STARTCHAR 00FE
ENCODING 254
SWIDTH 565 0
DWIDTH 11 0
BBX 10 20 0 -5
BITMAP
0800
1800
1800
1800
1100
17C0
38C0
3040
3040
2040
20C0
60C0
6180
5380
5E00
C000
C000
C000
8000
8000
ENDCHAR
STARTCHAR 00FF
ENCODING 255
SWIDTH 411 0
DWIDTH 8 0
BBX 11 19 -2 -5
BITMAP
0640
0440
0000
0000
1820
1860
1840
08C0
0880
0980
0900
0B00
0E00
0C00
0C00
0800
1800
F000
E000
ENDCHAR
STARTCHAR 0100
ENCODING 256
SWIDTH 514 0
DWIDTH 10 0
BBX 11 17 -1 0
BITMAP
03E0
03E0
0000
0180
0180
0380
02C0
06C0
04C0
0CC0
1840
1FC0
3FC0
3060
6060
4060
C060
ENDCHAR
STARTCHAR 0101
ENCODING 257
SWIDTH 514 0
DWIDTH 10 0
BBX 9 13 1 0
BITMAP
1F80
0000
0C00
3E80
6180
6180
C180
C180
C100
C300
C300
CF00
7B00
ENDCHAR
STARTCHAR 0102
ENCODING 258
SWIDTH 514 0
DWIDTH 10 0
BBX 12 18 -1 0
BITMAP
0210
03E0
01C0
0000
0180
0180
0380
02C0
06C0
04C0
0CC0
1840
1FC0
3FC0
3060
6060
4060
C060
ENDCHAR
STARTCHAR 0103
ENCODING 259
SWIDTH 514 0
DWIDTH 10 0
BBX 9 14 1 0
BITMAP
0980
0F00
0000
0C00
3E80
6180
6180
C180
C180
C100
C300
C300
CF00
7B00
ENDCHAR
STARTCHAR 0104
ENCODING 260
SWIDTH 514 0
DWIDTH 10 0
BBX 11 18 -1 -4
BITMAP
0180
0180
0380
02C0
06C0
04C0
0CC0
1840
1FC0
3FC0
3060
6060
4060
C060
0040
0080
0180
00C0
ENDCHAR
STARTCHAR 0105
ENCODING 261
SWIDTH 514 0
DWIDTH 10 0
BBX 9 15 1 -4
BITMAP
0C00
3E80
6180
6180
C180
C180
C100
C300
C300
CF00
7B00
0600
0C00
0800
0E00
ENDCHAR
STARTCHAR 0106
ENCODING 262
SWIDTH 565 0
DWIDTH 11 0
BBX 11 18 1 0
BITMAP
0040
0080
0100
0000
07E0
0E60
1800
3000
6000
6000
4000
4000
C000
C000
4000
6000
7080
1F80
ENDCHAR
STARTCHAR 0107
ENCODING 263
SWIDTH 411 0
DWIDTH 8 0
BBX 8 15 1 0
BITMAP
03
06
04
00
0E
3F
60
60
C0
C0
C0
C0
C0
E0
7C
ENDCHAR
STARTCHAR 0108
ENCODING 264
SWIDTH 565 0
DWIDTH 11 0
BBX 11 18 1 0
BITMAP
0180
0340
0460
0000
07E0
0E60
1800
3000
6000
6000
4000
4000
C000
C000
4000
6000
7080
1F80
ENDCHAR
STARTCHAR 0109
ENCODING 265
SWIDTH 411 0
DWIDTH 8 0
BBX 8 15 1 0
BITMAP
06
0A
13
00
0E
3F
60
60
C0
C0
C0
C0
C0
E0
7C
ENDCHAR
STARTCHAR 010A
ENCODING 266
SWIDTH 565 0
DWIDTH 11 0
BBX 11 18 1 0
BITMAP
0080
0180
0000
0000
07E0
0E60
1800
3000
6000
6000
4000
4000
C000
C000
4000
6000
7080
1F80
ENDCHAR
STARTCHAR 010B
ENCODING 267
SWIDTH 411 0
DWIDTH 8 0
BBX 8 14 1 0
BITMAP
04
04
00
0E
3F
60
60
C0
C0
C0
C0
C0
E0
7C
ENDCHAR
STARTCHAR 010C
ENCODING 268
SWIDTH 565 0
DWIDTH 11 0
BBX 11 18 1 0
BITMAP
0260
01C0
0180
0000
07E0
0E60
1800
3000
6000
6000
4000
4000
C000
C000
4000
6000
7080
1F80
ENDCHAR
STARTCHAR 010D
ENCODING 269
SWIDTH 411 0
DWIDTH 8 0
BBX 9 15 1 0
BITMAP
1180
0A00
0E00
0000
0E00
3F00
6000
6000
C000
C000
C000
C000
C000
E000
7C00
ENDCHAR
STARTCHAR 010E
ENCODING 270
SWIDTH 617 0
DWIDTH 12 0
BBX 11 18 1 0
BITMAP
0260
0380
0100
0000
1F00
3FC0
3060
3060
2020
2020
6020
6060
6060
4060
40C0
C180
C700
FC00
ENDCHAR
STARTCHAR 010F
ENCODING 271
SWIDTH 565 0
DWIDTH 11 0
BBX 14 15 1 0
BITMAP
004C
0048
0050
00C0
0CC0
3E80
6180
6180
C180
C180
C100
C300
C300
CF00
7B00
ENDCHAR
STARTCHAR 0110
ENCODING 272
SWIDTH 617 0
DWIDTH 12 0
BBX 11 14 1 0
BITMAP
1F00
3FC0
3060
3060
2020
2020
FC20
FC60
6060
4060
40C0
C180
C700
FC00
ENDCHAR
STARTCHAR 0111
ENCODING 273
SWIDTH 565 0
DWIDTH 11 0
BBX 12 15 1 0
BITMAP
0060
0040
07F0
00C0
0CC0
3E80
6180
6180
C180
C180
C100
C300
C300
C700
7B00
ENDCHAR
STARTCHAR 0112
ENCODING 274
SWIDTH 514 0
DWIDTH 10 0
BBX 10 17 1 0
BITMAP
0F80
0F80
0000
1FC0
3F80
3000
3000
2000
2000
7F00
6000
6000
4000
4000
C000
C000
FE00
ENDCHAR
STARTCHAR 0113
ENCODING 275
SWIDTH 462 0
DWIDTH 9 0
BBX 8 13 1 0
BITMAP
1F
00
0C
3F
63
63
C3
FC
C0
C0
C0
E2
7E
ENDCHAR
STARTCHAR 0114
ENCODING 276
SWIDTH 514 0
DWIDTH 10 0
BBX 10 18 1 0
BITMAP
0880
0F80
0700
0000
1FC0
3F80
3000
3000
2000
2000
7F00
6000
6000
4000
4000
C000
C000
FE00
ENDCHAR
STARTCHAR 0115
ENCODING 277
SWIDTH 462 0
DWIDTH 9 0
BBX 8 14 1 0
BITMAP
11
1E
00
0C
3F
63
63
C3
FC
C0
C0
C0
E2
7E
ENDCHAR
STARTCHAR 0116
ENCODING 278
SWIDTH 514 0
DWIDTH 10 0
BBX 10 18 1 0
BITMAP
0300
0300
0000
0000
1FC0
3F80
3000
3000
2000
2000
7F00
6000
6000
4000
4000
C000
C000
FE00
ENDCHAR
STARTCHAR 0117
ENCODING 279
SWIDTH 462 0
DWIDTH 9 0
BBX 8 14 1 0
BITMAP
06
04
00
0C
3F
63
63
C3
FC
C0
C0
C0
E2
7E
ENDCHAR
STARTCHAR 0118
ENCODING 280
SWIDTH 514 0
DWIDTH 10 0
BBX 10 18 1 -4
BITMAP
1FC0
3F80
3000
3000
2000
2000
7F00
6000
6000
4000
4000
C000
C000
FE00
0C00
1800
1000
1C00
ENDCHAR
STARTCHAR 0119
ENCODING 281
SWIDTH 462 0
DWIDTH 9 0
BBX 8 15 1 -4
BITMAP
0C
3F
63
43
C3
FC
C0
C0
C0
E2
7E
08
10
10
1C
ENDCHAR
STARTCHAR 011A
ENCODING 282
SWIDTH 514 0
DWIDTH 10 0
BBX 10 18 1 0
BITMAP
0C80
0700
0200
0000
1FC0
3F80
3000
3000
2000
2000
7F00
6000
6000
4000
4000
C000
C000
FE00
ENDCHAR
STARTCHAR 011B
ENCODING 283
SWIDTH 462 0
DWIDTH 9 0
BBX 9 15 1 0
BITMAP
1180
0B00
0E00
0000
0C00
3F00
6300
6300
C300
FC00
C000
C000
C000
E200
7E00
ENDCHAR
STARTCHAR 011C
ENCODING 284
SWIDTH 668 0
DWIDTH 13 0
BBX 12 18 1 0
BITMAP
01C0
0340
0620
0000
07E0
0E70
1800
3000
6000
6000
4000
41E0
C060
C060
4040
6040
30C0
1FC0
ENDCHAR
STARTCHAR 011D
ENCODING 285
SWIDTH 514 0
DWIDTH 10 0
BBX 11 20 -1 -5
BITMAP
0180
0380
0440
0000
0300
0FE0
18C0
10C0
10C0
1080
0F00
1000
3000
3E00
3F80
4080
C080
C180
7F00
3C00
ENDCHAR
STARTCHAR 011E
ENCODING 286
SWIDTH 668 0
DWIDTH 13 0
BBX 12 18 1 0
BITMAP
0220
03E0
01C0
0000
07E0
0E70
1800
3000
6000
6000
4000
41E0
C060
C060
4040
6040
30C0
1FC0
ENDCHAR
STARTCHAR 011F
ENCODING 287
SWIDTH 514 0
DWIDTH 10 0
BBX 11 19 -1 -5
BITMAP
04C0
0780
0000
0300
0FE0
18C0
10C0
10C0
1080
0F00
1000
3000
3E00
3F80
4080
C080
C180
7F00
3C00
ENDCHAR
STARTCHAR 0120
ENCODING 288
SWIDTH 668 0
DWIDTH 13 0
BBX 12 18 1 0
BITMAP
0080
0080
0000
0000
07E0
0E70
1800
3000
6000
6000
4000
41E0
C060
C060
4040
6040
30C0
1FC0
ENDCHAR
STARTCHAR 0121
ENCODING 289
SWIDTH 514 0
DWIDTH 10 0
BBX 11 19 -1 -5
BITMAP
0300
0100
0000
0300
0FE0
18C0
10C0
10C0
1080
0F00
1000
3000
3E00
3F80
4080
C080
C180
7F00
3C00
ENDCHAR
STARTCHAR 0122
ENCODING 290
SWIDTH 668 0
DWIDTH 13 0
BBX 12 18 1 -4
BITMAP
07E0
0E70
1800
3000
6000
6000
4000
41E0
C060
C060
4040
6040
30C0
1FC0
0000
0400
0C00
0800
ENDCHAR
STARTCHAR 0123
ENCODING 291
SWIDTH 514 0
DWIDTH 10 0
BBX 11 20 -1 -5
BITMAP
0080
0100
0300
0000
0300
0FE0
18C0
10C0
10C0
1080
0F00
1000
3000
3E00
3F80
4080
C080
C180
7F00
3C00
ENDCHAR
STARTCHAR 0124
ENCODING 292
SWIDTH 668 0
DWIDTH 13 0
BBX 12 18 1 0
BITMAP
0180
02C0
0440
0000
1010
3030
3030
3030
2020
2020
7FE0
6060
6060
4040
4040
C0C0
C0C0
C080
ENDCHAR
STARTCHAR 0125
ENCODING 293
SWIDTH 565 0
DWIDTH 11 0
BBX 9 19 1 0
BITMAP
1800
2C00
4400
0000
1000
3000
3000
3000
2200
2F80
7180
6180
6180
4180
4180
C100
C300
8300
8300
ENDCHAR
STARTCHAR 0126
ENCODING 294
SWIDTH 668 0
DWIDTH 13 0
BBX 14 14 1 0
BITMAP
1010
3030
FFFC
FFF8
2020
2020
7FE0
6060
6060
4040
40C0
C0C0
C0C0
C080
ENDCHAR
STARTCHAR 0127
ENCODING 295
SWIDTH 565 0
DWIDTH 11 0
BBX 9 15 1 0
BITMAP
1000
3000
7E00
3000
2000
2F80
7180
6180
6180
4180
4100
C100
C300
8300
8300
ENDCHAR
STARTCHAR 0128
ENCODING 296
SWIDTH 257 0
DWIDTH 5 0
BBX 8 18 1 0
BITMAP
31
7E
44
00
10
30
30
30
20
20
60
60
60
40
40
C0
C0
80
ENDCHAR
STARTCHAR 0129
ENCODING 297
SWIDTH 205 0
DWIDTH 4 0
BBX 6 14 1 0
BITMAP
F4
9C
00
00
20
60
60
60
40
40
C0
C0
80
80
ENDCHAR
STARTCHAR 012A
ENCODING 298
SWIDTH 257 0
DWIDTH 5 0
BBX 7 17 1 0
BITMAP
3E
7C
00
10
30
30
30
20
20
60
60
60
40
40
C0
C0
80
ENDCHAR
STARTCHAR 012B
ENCODING 299
SWIDTH 205 0
DWIDTH 4 0
BBX 6 13 1 0
BITMAP
FC
00
00
20
60
60
60
40
40
C0
C0
80
80
ENDCHAR
STARTCHAR 012C
ENCODING 300
SWIDTH 257 0
DWIDTH 5 0
BBX 7 18 1 0
BITMAP
42
3C
18
00
10
30
30
30
20
20
60
60
60
40
40
C0
C0
80
ENDCHAR
STARTCHAR 012D
ENCODING 301
SWIDTH 205 0
DWIDTH 4 0
BBX 6 14 1 0
BITMAP
CC
78
00
00
20
60
60
60
40
40
C0
C0
80
80
ENDCHAR
STARTCHAR 012E
ENCODING 302
SWIDTH 257 0
DWIDTH 5 0
BBX 6 18 -1 -4
BITMAP
04
0C
0C
0C
08
08
18
18
18
10
10
30
30
20
20
40
C0
E0
ENDCHAR
STARTCHAR 012F
ENCODING 303
SWIDTH 205 0
DWIDTH 4 0
BBX 6 18 -1 -4
BITMAP
0C
0C
00
00
08
18
18
18
10
10
30
30
20
20
20
40
C0
E0
ENDCHAR
STARTCHAR 0130
ENCODING 304
SWIDTH 257 0
DWIDTH 5 0
BBX 5 18 1 0
BITMAP
08
18
00
00
10
30
30
30
20
20
60
60
60
40
40
C0
C0
80
ENDCHAR
STARTCHAR 0131
ENCODING 305
SWIDTH 205 0
DWIDTH 4 0
BBX 3 10 1 0
BITMAP
20
60
60
60
40
40
C0
C0
80
80
ENDCHAR
STARTCHAR 0132
ENCODING 306
SWIDTH 514 0
DWIDTH 10 0
BBX 10 18 1 -4
BITMAP
10C0
3080
3080
3180
2180
2180
6100
6300
6300
4300
4200
C200
C600
8600
0600
0C00
7C00
7000
ENDCHAR
STARTCHAR 0133
ENCODING 307
SWIDTH 462 0
DWIDTH 9 0
BBX 9 19 1 -5
BITMAP
3180
3180
0000
0000
2300
6300
6300
6200
4200
4600
C600
C600
8400
8400
0C00
0C00
0800
7800
7000
ENDCHAR
STARTCHAR 0134
ENCODING 308
SWIDTH 257 0
DWIDTH 5 0
BBX 11 22 -3 -4
BITMAP
0180
02C0
0460
0000
0100
0300
0300
0300
0200
0200
0600
0600
0600
0400
0400
0C00
0C00
0C00
0800
1800
F000
E000
ENDCHAR
STARTCHAR 0135
ENCODING 309
SWIDTH 205 0
DWIDTH 4 0
BBX 8 20 -2 -5
BITMAP
06
0F
19
00
00
04
0C
0C
08
08
08
18
18
10
10
30
30
30
E0
C0
ENDCHAR
STARTCHAR 0136
ENCODING 310
SWIDTH 514 0
DWIDTH 10 0
BBX 11 18 1 -4
BITMAP
1060
30C0
3180
3300
2600
2C00
7C00
7C00
6400
4600
4200
C300
C300
C180
0000
1800
1000
2000
ENDCHAR
STARTCHAR 0137
ENCODING 311
SWIDTH 462 0
DWIDTH 9 0
BBX 9 19 1 -4
BITMAP
1000
3000
3000
3000
2000
2380
6600
6C00
5800
7800
E800
CC00
C400
8600
8600
0000
3000
2000
2000
ENDCHAR
STARTCHAR 0138
ENCODING 312
SWIDTH 462 0
DWIDTH 9 0
BBX 9 10 1 0
BITMAP
2380
6600
6C00
5800
7800
E800
CC00
C400
8600
8600
ENDCHAR
STARTCHAR 0139
ENCODING 313
SWIDTH 462 0
DWIDTH 9 0
BBX 7 18 1 0
BITMAP
06
0C
10
00
10
30
30
30
20
20
60
60
60
40
40
C0
C0
FE
ENDCHAR
STARTCHAR 013A
ENCODING 314
SWIDTH 205 0
DWIDTH 4 0
BBX 6 19 1 0
BITMAP
0C
08
10
00
10
30
30
30
20
20
60
60
40
40
C0
C0
C0
80
80
ENDCHAR
STARTCHAR 013B
ENCODING 315
SWIDTH 462 0
DWIDTH 9 0
BBX 7 18 1 -4
BITMAP
10
30
30
30
20
20
60
60
60
40
40
C0
C0
FE
00
10
30
20
ENDCHAR
STARTCHAR 013C
ENCODING 316
SWIDTH 205 0
DWIDTH 4 0
BBX 5 19 0 -4
BITMAP
08
18
18
18
10
10
30
30
20
20
60
60
60
40
40
00
40
C0
80
ENDCHAR
STARTCHAR 013D
ENCODING 317
SWIDTH 462 0
DWIDTH 9 0
BBX 9 14 1 0
BITMAP
1180
3100
3300
3000
2000
2000
6000
6000
6000
4000
4000
C000
C000
FE00
ENDCHAR
STARTCHAR 013E
ENCODING 318
SWIDTH 257 0
DWIDTH 5 0
BBX 7 15 1 0
BITMAP
12
36
34
30
20
20
60
60
40
40
C0
C0
C0
80
80
ENDCHAR
STARTCHAR 013F
ENCODING 319
SWIDTH 462 0
DWIDTH 9 0
BBX 7 14 1 0
BITMAP
10
30
30
30
20
20
62
62
60
40
40
C0
C0
FE
ENDCHAR
STARTCHAR 0140
ENCODING 320
SWIDTH 257 0
DWIDTH 5 0
BBX 6 15 1 0
BITMAP
10
30
30
30
20
20
60
6C
48
40
C0
C0
C0
80
80
ENDCHAR
STARTCHAR 0141
ENCODING 321
SWIDTH 462 0
DWIDTH 9 0
BBX 7 14 1 0
BITMAP
10
30
30
30
20
20
78
70
E0
40
40
C0
C0
FE
ENDCHAR
STARTCHAR 0142
ENCODING 322
SWIDTH 205 0
DWIDTH 4 0
BBX 5 15 0 0
BITMAP
08
18
18
18
10
10
38
38
60
E0
60
60
60
40
40
ENDCHAR
STARTCHAR 0143
ENCODING 323
SWIDTH 668 0
DWIDTH 13 0
BBX 13 18 1 0
BITMAP
0060
00C0
0100
0000
1818
3810
3810
2C30
2430
2430
6620
6220
4360
4360
4160
C1C0
C0C0
80C0
ENDCHAR
STARTCHAR 0144
ENCODING 324
SWIDTH 565 0
DWIDTH 11 0
BBX 9 15 1 0
BITMAP
0180
0300
0600
0000
0700
2F80
7180
6180
6180
4180
C180
C100
C300
8300
8300
ENDCHAR
STARTCHAR 0145
ENCODING 325
SWIDTH 668 0
DWIDTH 13 0
BBX 13 18 1 -4
BITMAP
1818
3810
3810
2C30
2430
2430
6620
6220
4360
4360
4160
C1C0
C0C0
80C0
0000
0C00
0800
1000
ENDCHAR
STARTCHAR 0146
ENCODING 326
SWIDTH 565 0
DWIDTH 11 0
BBX 9 15 1 -4
BITMAP
0700
2F80
7180
6180
6180
4180
C180
C100
C300
8300
8300
0000
1000
3000
2000
ENDCHAR
STARTCHAR 0147
ENCODING 327
SWIDTH 668 0
DWIDTH 13 0
BBX 13 18 1 0
BITMAP
0260
01C0
0180
0000
1818
3810
3810
2C30
2430
2430
6620
6220
4360
4360
4160
C1C0
C0C0
80C0
ENDCHAR
STARTCHAR 0148
ENCODING 328
SWIDTH 565 0
DWIDTH 11 0
BBX 9 15 1 0
BITMAP
0880
0D00
0600
0000
0700
2F80
7180
6180
6180
4180
C180
C100
C300
8300
8300
ENDCHAR
STARTCHAR 0149
ENCODING 329
SWIDTH 617 0
DWIDTH 12 0
BBX 11 14 1 0
BITMAP
3000
6000
6000
C180
97C0
1C60
1860
3040
3040
30C0
20C0
60C0
6080
6180
ENDCHAR
STARTCHAR 014A
ENCODING 330
SWIDTH 668 0
DWIDTH 13 0
BBX 13 18 1 -4
BITMAP
1818
3810
3810
2C30
2430
2430
6620
6220
4360
4360
4160
C1C0
C0C0
80C0
00C0
0080
0F80
0600
ENDCHAR
STARTCHAR 014B
ENCODING 331
SWIDTH 565 0
DWIDTH 11 0
BBX 9 16 1 -5
BITMAP
0200
2F80
7180
6180
6180
4180
4180
C100
C300
8300
8300
0200
0200
0600
1C00
1800
ENDCHAR
STARTCHAR 014C
ENCODING 332
SWIDTH 720 0
DWIDTH 14 0
BBX 12 17 1 0
BITMAP
03E0
07E0
0000
07C0
1CE0
3030
3030
6010
6010
4010
C030
C030
C030
4060
6060
31C0
1F00
ENDCHAR
STARTCHAR 014D
ENCODING 333
SWIDTH 514 0
DWIDTH 10 0
BBX 9 13 1 0
BITMAP
1F00
0000
0C00
3F00
6180
4180
C180
C180
C180
C100
C300
6600
7C00
ENDCHAR
STARTCHAR 014E
ENCODING 334
SWIDTH 720 0
DWIDTH 14 0
BBX 12 18 1 0
BITMAP
0220
03E0
0180
0000
07C0
1CE0
3030
3030
6010
6010
4010
C030
C030
C030
4060
6060
31C0
1F00
ENDCHAR
STARTCHAR 014F
ENCODING 335
SWIDTH 514 0
DWIDTH 10 0
BBX 9 14 1 0
BITMAP
1100
0F00
0000
0C00
3F00
6180
4180
C180
C180
C180
C100
C300
6600
7C00
ENDCHAR
STARTCHAR 0150
ENCODING 336
SWIDTH 720 0
DWIDTH 14 0
BBX 12 18 1 0
BITMAP
0190
0120
0240
0000
07C0
1CE0
3030
3030
6010
6010
4010
C030
C030
C030
4060
6060
31C0
1F00
ENDCHAR
STARTCHAR 0151
ENCODING 337
SWIDTH 514 0
DWIDTH 10 0
BBX 10 15 1 0
BITMAP
06C0
0C80
0900
0000
0C00
3F00
6180
4180
C180
C180
C180
C100
C300
6600
7C00
ENDCHAR
STARTCHAR 0152
ENCODING 338
SWIDTH 822 0
DWIDTH 16 0
BBX 16 14 1 0
BITMAP
07FF
1C7F
3060
3040
6040
60C0
40FE
C080
C080
C180
4180
6180
3100
1FFC
ENDCHAR
STARTCHAR 0153
ENCODING 339
SWIDTH 822 0
DWIDTH 16 0
BBX 15 11 1 0
BITMAP
0408
3F3E
61C2
41C2
C186
C1FC
C180
C180
C380
66C4
7C7C
ENDCHAR
STARTCHAR 0154
ENCODING 340
SWIDTH 565 0
DWIDTH 11 0
BBX 10 18 1 0
BITMAP
0180
0100
0200
0000
1F00
3F80
30C0
30C0
20C0
20C0
6180
7F00
6600
4200
4300
C300
C100
C180
ENDCHAR
STARTCHAR 0155
ENCODING 341
SWIDTH 360 0
DWIDTH 7 0
BBX 8 15 1 0
BITMAP
03
06
0C
00
06
2E
70
60
60
40
40
C0
C0
80
80
ENDCHAR
STARTCHAR 0156
ENCODING 342
SWIDTH 565 0
DWIDTH 11 0
BBX 10 18 1 -4
BITMAP
1F00
3F80
30C0
30C0
20C0
20C0
6180
7F00
6600
4200
4300
C300
C100
C180
0000
1800
1000
2000
ENDCHAR
STARTCHAR 0157
ENCODING 343
SWIDTH 360 0
DWIDTH 7 0
BBX 8 15 0 -4
BITMAP
03
17
38
30
30
20
20
60
60
40
40
00
40
C0
80
ENDCHAR
STARTCHAR 0158
ENCODING 344
SWIDTH 565 0
DWIDTH 11 0
BBX 10 18 1 0
BITMAP
04C0
0700
0300
0000
1F00
3F80
30C0
30C0
20C0
20C0
6180
7F00
6600
4200
4300
C300
C100
C180
ENDCHAR
STARTCHAR 0159
ENCODING 345
SWIDTH 360 0
DWIDTH 7 0
BBX 8 15 1 0
BITMAP
31
1E
0C
00
06
2E
70
60
60
40
40
C0
C0
80
80
ENDCHAR
STARTCHAR 015A
ENCODING 346
SWIDTH 462 0
DWIDTH 9 0
BBX 10 18 0 0
BITMAP
0180
0100
0200
0000
0FC0
1CC0
3000
3000
3000
3800
1C00
0700
0300
0180
0180
0100
C700
FE00
ENDCHAR
STARTCHAR 015B
ENCODING 347
SWIDTH 411 0
DWIDTH 8 0
BBX 8 15 0 0
BITMAP
03
02
04
00
0C
3F
60
60
30
38
0E
06
06
86
FC
ENDCHAR
STARTCHAR 015C
ENCODING 348
SWIDTH 462 0
DWIDTH 9 0
BBX 10 18 0 0
BITMAP
0300
0480
08C0
0000
0FC0
1CC0
3000
3000
3000
3800
1C00
0700
0300
0180
0180
0100
C700
FE00
ENDCHAR
STARTCHAR 015D
ENCODING 349
SWIDTH 411 0
DWIDTH 8 0
BBX 8 15 0 0
BITMAP
06
0A
13
00
0C
3F
60
60
30
38
0E
06
06
86
FC
ENDCHAR
STARTCHAR 015E
ENCODING 350
SWIDTH 462 0
DWIDTH 9 0
BBX 10 19 0 -5
BITMAP
0FC0
1CC0
3000
3000
3000
3800
1C00
0700
0300
0180
0180
0100
C700
FE00
1000
1800
0800
1800
3000
ENDCHAR
STARTCHAR 015F
ENCODING 351
SWIDTH 411 0
DWIDTH 8 0
BBX 8 16 0 -5
BITMAP
0C
3F
60
60
30
38
0E
06
06
86
FC
30
30
10
10
60
ENDCHAR
STARTCHAR 0160
ENCODING 352
SWIDTH 462 0
DWIDTH 9 0
BBX 10 18 0 0
BITMAP
04C0
0780
0300
0000
0FC0
1CC0
3000
3000
3000
3800
1C00
0700
0300
0180
0180
0100
C700
FE00
ENDCHAR
STARTCHAR 0161
ENCODING 353
SWIDTH 411 0
DWIDTH 8 0
BBX 9 15 0 0
BITMAP
1180
0B00
0E00
0000
0C00
3F00
6000
6000
3000
3800
0E00
0600
0600
8600
FC00
ENDCHAR
STARTCHAR 0162
ENCODING 354
SWIDTH 462 0
DWIDTH 9 0
BBX 10 19 1 -5
BITMAP
7FC0
7FC0
0C00
0C00
0C00
0800
0800
1800
1800
1800
1000
1000
3000
3000
2000
3000
1000
3000
E000
ENDCHAR
STARTCHAR 0163
ENCODING 355
SWIDTH 308 0
DWIDTH 6 0
BBX 6 18 1 -5
BITMAP
10
30
20
FC
60
60
60
40
40
C0
C0
C0
70
40
60
20
60
C0
ENDCHAR
STARTCHAR 0164
ENCODING 356
SWIDTH 462 0
DWIDTH 9 0
BBX 9 18 2 0
BITMAP
1300
0E00
0C00
0000
FF80
FF80
1800
1800
1800
1000
1000
3000
3000
3000
2000
2000
6000
6000
ENDCHAR
STARTCHAR 0165
ENCODING 357
SWIDTH 308 0
DWIDTH 6 0
BBX 7 15 1 0
BITMAP
02
06
14
30
20
FC
60
60
60
40
40
C0
C0
C0
70
ENDCHAR
STARTCHAR 0166
ENCODING 358
SWIDTH 462 0
DWIDTH 9 0
BBX 9 14 2 0
BITMAP
FF80
FF80
1800
1800
1800
1000
FE00
FE00
3000
3000
2000
2000
6000
6000
ENDCHAR
STARTCHAR 0167
ENCODING 359
SWIDTH 308 0
DWIDTH 6 0
BBX 7 13 0 0
BITMAP
08
18
10
7E
30
30
7C
FC
60
60
60
60
38
ENDCHAR
STARTCHAR 0168
ENCODING 360
SWIDTH 668 0
DWIDTH 13 0
BBX 11 18 2 0
BITMAP
0640
0FC0
0980
0000
6020
6060
6060
4060
4040
C040
C0C0
C0C0
80C0
8080
8180
8180
C300
7E00
ENDCHAR
STARTCHAR 0169
ENCODING 361
SWIDTH 565 0
DWIDTH 11 0
BBX 9 14 1 0
BITMAP
1E80
1380
0000
0000
6080
6080
6180
4180
4180
C100
C300
C300
CF00
7B00
ENDCHAR
STARTCHAR 016A
ENCODING 362
SWIDTH 668 0
DWIDTH 13 0
BBX 11 17 2 0
BITMAP
0FC0
0F80
0000
6020
6060
6060
4060
4040
C040
C0C0
C0C0
80C0
8080
8180
8180
C300
7E00
ENDCHAR
STARTCHAR 016B
ENCODING 363
SWIDTH 565 0
DWIDTH 11 0
BBX 9 13 1 0
BITMAP
1F80
0000
0000
6080
6080
6180
4180
4180
C100
C300
C300
CF00
7B00
ENDCHAR
STARTCHAR 016C
ENCODING 364
SWIDTH 668 0
DWIDTH 13 0
BBX 11 18 2 0
BITMAP
0840
0780
0700
0000
6020
6060
6060
4060
4040
C040
C0C0
C0C0
80C0
8080
8180
8180
C300
7E00
ENDCHAR
STARTCHAR 016D
ENCODING 365
SWIDTH 565 0
DWIDTH 11 0
BBX 9 14 1 0
BITMAP
0880
0F00
0000
0000
6080
6080
6180
4180
4180
C100
C300
C300
CF00
7B00
ENDCHAR
STARTCHAR 016E
ENCODING 366
SWIDTH 668 0
DWIDTH 13 0
BBX 11 19 2 0
BITMAP
0780
0480
0480
0300
0000
6020
6060
6060
4060
4040
C040
C0C0
C0C0
80C0
8080
8180
8180
C300
7E00
ENDCHAR
STARTCHAR 016F
ENCODING 367
SWIDTH 565 0
DWIDTH 11 0
BBX 9 16 1 0
BITMAP
0600
0900
0900
0F00
0000
0000
6080
6080
6180
4180
4180
C100
C300
C300
CF00
7B00
ENDCHAR
STARTCHAR 0170
ENCODING 368
SWIDTH 668 0
DWIDTH 13 0
BBX 11 18 2 0
BITMAP
0360
0640
0C80
0000
6020
6060
6060
4060
4040
C040
C0C0
C0C0
80C0
8080
8180
8180
C300
7E00
ENDCHAR
STARTCHAR 0171
ENCODING 369
SWIDTH 565 0
DWIDTH 11 0
BBX 11 15 1 0
BITMAP
0260
04C0
0980
0000
0000
6080
6080
6180
4180
4180
C100
C300
C300
CF00
7B00
ENDCHAR
STARTCHAR 0172
ENCODING 370
SWIDTH 668 0
DWIDTH 13 0
BBX 11 18 2 -4
BITMAP
6020
6060
6060
4060
4040
C040
C0C0
C0C0
80C0
8080
8180
8180
C300
7E00
1800
3000
2000
3800
ENDCHAR
STARTCHAR 0173
ENCODING 371
SWIDTH 565 0
DWIDTH 11 0
BBX 9 14 1 -4
BITMAP
6080
6080
6180
4180
4180
C100
C300
C300
CF00
7B00
0600
0C00
0800
0E00
ENDCHAR
STARTCHAR 0174
ENCODING 372
SWIDTH 822 0
DWIDTH 16 0
BBX 16 18 2 0
BITMAP
01C0
0360
0620
0000
C183
C183
C386
C286
C684
C48C
CC88
C898
D890
50B0
50B0
70A0
60E0
60C0
ENDCHAR
STARTCHAR 0175
ENCODING 373
SWIDTH 668 0
DWIDTH 13 0
BBX 13 15 1 0
BITMAP
0300
0380
04C0
0000
0000
C308
C518
C510
C930
C920
D960
D140
F1C0
E180
6180
ENDCHAR
STARTCHAR 0176
ENCODING 374
SWIDTH 462 0
DWIDTH 9 0
BBX 9 18 2 0
BITMAP
0E00
1A00
2100
0000
8080
C180
C300
4200
4600
6C00
6800
3800
3000
3000
2000
2000
6000
6000
ENDCHAR
STARTCHAR 0177
ENCODING 375
SWIDTH 411 0
DWIDTH 8 0
BBX 11 20 -2 -5
BITMAP
0180
0380
0440
0000
0000
1820
1860
1840
08C0
0880
0980
0900
0B00
0E00
0C00
0C00
0800
1800
F000
E000
ENDCHAR
STARTCHAR 0178
ENCODING 376
SWIDTH 462 0
DWIDTH 9 0
BBX 9 18 2 0
BITMAP
1100
1300
0000
0000
8080
C180
C300
4200
4600
6C00
6800
3800
3000
3000
2000
2000
6000
6000
ENDCHAR
STARTCHAR 0179
ENCODING 377
SWIDTH 514 0
DWIDTH 10 0
BBX 11 18 0 0
BITMAP
00C0
0180
0300
0000
1FE0
1FE0
00C0
0180
0100
0300
0600
0C00
1800
1000
3000
6000
C000
FF80
ENDCHAR
STARTCHAR 017A
ENCODING 378
SWIDTH 411 0
DWIDTH 8 0
BBX 9 15 0 0
BITMAP
0180
0300
0600
0000
0000
3F00
0300
0600
0C00
0800
1000
3000
6000
C000
FE00
ENDCHAR
STARTCHAR 017B
ENCODING 379
SWIDTH 514 0
DWIDTH 10 0
BBX 11 18 0 0
BITMAP
0100
0100
0000
0000
1FE0
1FE0
00C0
0180
0100
0300
0600
0C00
1800
1000
3000
6000
C000
FF80
ENDCHAR
STARTCHAR 017C
ENCODING 380
SWIDTH 411 0
DWIDTH 8 0
BBX 8 14 0 0
BITMAP
06
06
00
00
3F
03
06
0C
08
10
30
60
C0
FE
ENDCHAR
STARTCHAR 017D
ENCODING 381
SWIDTH 514 0
DWIDTH 10 0
BBX 11 18 0 0
BITMAP
0640
0380
0300
0000
1FE0
1FE0
00C0
0180
0100
0300
0600
0C00
1800
1000
3000
6000
C000
FF80
ENDCHAR
STARTCHAR 017E
ENCODING 382
SWIDTH 411 0
DWIDTH 8 0
BBX 9 15 0 0
BITMAP
1880
0B00
0600
0000
0000
3F00
0300
0600
0C00
0800
1000
3000
6000
C000
FE00
ENDCHAR
STARTCHAR 017F
ENCODING 383
SWIDTH 257 0
DWIDTH 5 0
BBX 10 20 -2 -5
BITMAP
01C0
0340
0600
0600
0400
0400
0C00
0C00
0C00
0800
1800
1800
1800
1000
1000
3000
3000
3000
E000
C000
ENDCHAR
STARTCHAR 0192
ENCODING 402
SWIDTH 514 0
DWIDTH 10 0
BBX 11 19 0 -5
BITMAP
01E0
0300
0600
0600
0600
1F80
0400
0C00
0C00
0C00
0800
0800
1800
1800
1800
1000
3000
F000
C000
ENDCHAR
STARTCHAR 01A0
ENCODING 416
SWIDTH 668 0
DWIDTH 13 0
BBX 15 15 1 0
BITMAP
0006
07C6
1CEC
3038
3030
6010
6010
4010
C030
C030
C030
4060
6060
31C0
1F00
ENDCHAR
STARTCHAR 01A1
ENCODING 417
SWIDTH 565 0
DWIDTH 11 0
BBX 12 12 1 0
BITMAP
0030
0C20
3F60
6180
4180
C180
C180
C180
C100
C300
6600
7C00
ENDCHAR
STARTCHAR 01AF
ENCODING 431
SWIDTH 720 0
DWIDTH 14 0
BBX 15 15 2 0
BITMAP
0006
6024
606C
6078
4060
4040
C040
C0C0
C0C0
80C0
8080
8180
8180
C300
7E00
ENDCHAR
STARTCHAR 01B0
ENCODING 432
SWIDTH 617 0
DWIDTH 12 0
BBX 13 12 1 0
BITMAP
0018
0018
60B0
60E0
6180
4180
4180
C100
C300
C300
CF00
7B00
ENDCHAR
STARTCHAR 01EA
ENCODING 490
SWIDTH 720 0
DWIDTH 14 0
BBX 12 18 1 -4
BITMAP
07C0
1CE0
3030
3030
6010
6010
4010
C030
C030
C030
4060
6060
31C0
1F00
0400
0800
1800
1C00
ENDCHAR
STARTCHAR 01EB
ENCODING 491
SWIDTH 514 0
DWIDTH 10 0
BBX 9 15 1 -4
BITMAP
0C00
3F00
6180
4180
C180
C180
C180
C100
C300
6600
7C00
1000
2000
6000
3000
ENDCHAR
STARTCHAR 01EC
ENCODING 492
SWIDTH 720 0
DWIDTH 14 0
BBX 12 21 1 -4
BITMAP
03E0
07E0
0000
07C0
1CE0
3030
3030
6010
6010
4010
C030
C030
C030
4060
6060
31C0
1F00
0400
0800
1800
1C00
ENDCHAR
STARTCHAR 01ED
ENCODING 493
SWIDTH 514 0
DWIDTH 10 0
BBX 9 17 1 -4
BITMAP
1F00
0000
0C00
3F00
6180
4180
C180
C180
C180
C100
C300
6600
7C00
1000
2000
6000
3000
ENDCHAR
STARTCHAR 01F0
ENCODING 496
SWIDTH 205 0
DWIDTH 4 0
BBX 9 20 -2 -5
BITMAP
0880
0F00
0600
0000
0000
0400
0C00
0C00
0800
0800
0800
1800
1800
1000
1000
3000
3000
3000
E000
C000
ENDCHAR
STARTCHAR 01FA
ENCODING 506
SWIDTH 514 0
DWIDTH 10 0
BBX 12 19 -1 0
BITMAP
0030
0060
0080
0180
0240
0240
03C0
0380
02C0
06C0
04C0
0CC0
1840
1FC0
3FC0
3040
6060
4060
C060
ENDCHAR
STARTCHAR 01FB
ENCODING 507
SWIDTH 514 0
DWIDTH 10 0
BBX 10 19 1 0
BITMAP
01C0
0100
0200
0000
0F00
0900
0900
0600
0C00
3E80
6180
6180
C180
C180
C100
C300
C300
CF00
7B00
ENDCHAR
STARTCHAR 01FC
ENCODING 508
SWIDTH 771 0
DWIDTH 15 0
BBX 18 18 -1 0
BITMAP
000C00
001800
002000
000000
00FFC0
00FF80
01B000
013000
032000
066000
047F00
0C6000
1FC000
1FC000
30C000
60C000
60C000
C0FE00
ENDCHAR
STARTCHAR 01FD
ENCODING 509
SWIDTH 771 0
DWIDTH 15 0
BBX 15 15 1 0
BITMAP
0060
0040
0080
0000
0C18
3EFC
63C6
6184
C10C
C1F8
C300
C300
C700
CF88
72F8
ENDCHAR
STARTCHAR 01FE
ENCODING 510
SWIDTH 720 0
DWIDTH 14 0
BBX 13 18 1 -1
BITMAP
0060
00C0
0180
0000
07D8
1CF0
3070
3070
6090
6190
4310
C610
CC30
C830
5860
7060
71C0
DF00
ENDCHAR
STARTCHAR 01FF
ENCODING 511
SWIDTH 514 0
DWIDTH 10 0
BBX 9 16 1 -1
BITMAP
0180
0300
0200
0000
0C80
3F80
6380
4380
C580
CD80
D980
F100
E300
4600
FC00
8000
ENDCHAR
STARTCHAR 0218
ENCODING 536
SWIDTH 462 0
DWIDTH 9 0
BBX 10 18 0 -4
BITMAP
0FC0
1CC0
3000
3000
3000
3800
1C00
0700
0300
0180
0180
0100
C700
FE00
0000
1800
1000
2000
ENDCHAR
STARTCHAR 0219
ENCODING 537
SWIDTH 411 0
DWIDTH 8 0
BBX 8 15 0 -4
BITMAP
0C
3F
60
60
30
38
0E
06
06
86
FC
00
30
20
60
ENDCHAR
STARTCHAR 021A
ENCODING 538
SWIDTH 462 0
DWIDTH 9 0
BBX 9 18 2 -4
BITMAP
FF80
FF80
1800
1800
1800
1000
1000
3000
3000
3000
2000
2000
6000
6000
0000
6000
4000
8000
ENDCHAR
STARTCHAR 021B
ENCODING 539
SWIDTH 308 0
DWIDTH 6 0
BBX 6 17 1 -4
BITMAP
10
30
20
FC
60
60
60
40
40
C0
C0
C0
70
00
60
40
80
ENDCHAR
STARTCHAR 0237
ENCODING 567
SWIDTH 205 0
DWIDTH 4 0
BBX 6 15 -2 -5
BITMAP
04
0C
0C
08
08
08
18
18
10
10
30
30
30
E0
C0
ENDCHAR
STARTCHAR 0259
ENCODING 601
SWIDTH 462 0
DWIDTH 9 0
BBX 8 11 1 0
BITMAP
18
7E
02
03
03
1F
72
C6
86
8C
F8
ENDCHAR
STARTCHAR 02BC
ENCODING 700
SWIDTH 154 0
DWIDTH 3 0
BBX 4 5 1 9
BITMAP
30
20
60
40
C0
ENDCHAR
STARTCHAR 02C6
ENCODING 710
SWIDTH 360 0
DWIDTH 7 0
BBX 5 3 3 12
BITMAP
30
50
98
ENDCHAR
STARTCHAR 02C7
ENCODING 711
SWIDTH 360 0
DWIDTH 7 0
BBX 6 3 3 12
BITMAP
8C
50
70
ENDCHAR
STARTCHAR 02C9
ENCODING 713
SWIDTH 308 0
DWIDTH 6 0
BBX 6 1 2 12
BITMAP
FC
ENDCHAR
STARTCHAR 02D8
ENCODING 728
SWIDTH 360 0
DWIDTH 7 0
BBX 5 2 3 12
BITMAP
88
F0
ENDCHAR
STARTCHAR 02D9
ENCODING 729
SWIDTH 154 0
DWIDTH 3 0
BBX 1 2 3 12
BITMAP
80
80
ENDCHAR
STARTCHAR 02DA
ENCODING 730
SWIDTH 257 0
DWIDTH 5 0
BBX 4 4 3 12
BITMAP
60
90
90
E0
ENDCHAR
STARTCHAR 02DB
ENCODING 731
SWIDTH 205 0
DWIDTH 4 0
BBX 3 4 -1 -4
BITMAP
60
40
80
E0
ENDCHAR
STARTCHAR 02DC
ENCODING 732
SWIDTH 411 0
DWIDTH 8 0
BBX 7 2 2 12
BITMAP
72
9C
ENDCHAR
STARTCHAR 02DD
ENCODING 733
SWIDTH 411 0
DWIDTH 8 0
BBX 6 3 3 12
BITMAP
6C
C8
90
ENDCHAR
STARTCHAR 02F3
ENCODING 755
SWIDTH 308 0
DWIDTH 6 0
BBX 5 4 -1 -5
BITMAP
70
D0
98
70
ENDCHAR
STARTCHAR 0300
ENCODING 768
SWIDTH 0 0
DWIDTH 0 0
BBX 3 3 -7 12
BITMAP
C0
40
60
ENDCHAR
STARTCHAR 0301
ENCODING 769
SWIDTH 0 0
DWIDTH 0 0
BBX 3 3 -4 12
BITMAP
20
60
80
ENDCHAR
STARTCHAR 0302
ENCODING 770
SWIDTH 0 0
DWIDTH 0 0
BBX 5 3 -1 12
BITMAP
30
70
88
ENDCHAR
STARTCHAR 0303
ENCODING 771
SWIDTH 0 0
DWIDTH 0 0
BBX 7 2 -8 12
BITMAP
72
9C
ENDCHAR
STARTCHAR 0304
ENCODING 772
SWIDTH 0 0
DWIDTH 0 0
BBX 5 1 -1 12
BITMAP
F8
ENDCHAR
STARTCHAR 0306
ENCODING 774
SWIDTH 0 0
DWIDTH 0 0
BBX 5 2 -1 12
BITMAP
88
78
ENDCHAR
STARTCHAR 0307
ENCODING 775
SWIDTH 0 0
DWIDTH 0 0
BBX 2 2 1 12
BITMAP
C0
80
ENDCHAR
STARTCHAR 0308
ENCODING 776
SWIDTH 0 0
DWIDTH 0 0
BBX 5 2 -1 12
BITMAP
C8
88
ENDCHAR
STARTCHAR 0309
ENCODING 777
SWIDTH 0 0
DWIDTH 0 0
BBX 4 5 -6 11
BITMAP
E0
10
30
40
40
ENDCHAR
STARTCHAR 030A
ENCODING 778
SWIDTH 0 0
DWIDTH 0 0
BBX 4 4 0 12
BITMAP
60
90
90
F0
ENDCHAR
STARTCHAR 030B
ENCODING 779
SWIDTH 0 0
DWIDTH 0 0
BBX 7 3 -1 12
BITMAP
26
6C
98
ENDCHAR
STARTCHAR 030C
ENCODING 780
SWIDTH 0 0
DWIDTH 0 0
BBX 6 3 -1 12
BITMAP
8C
58
70
ENDCHAR
STARTCHAR 030F
ENCODING 783
SWIDTH 0 0
DWIDTH 0 0
BBX 6 3 -9 12
BITMAP
98
C8
4C
ENDCHAR
STARTCHAR 0312
ENCODING 786
SWIDTH 0 0
DWIDTH 0 0
BBX 3 5 0 9
BITMAP
20
60
40
C0
80
ENDCHAR
STARTCHAR 0323
ENCODING 803
SWIDTH 0 0
DWIDTH 0 0
BBX 2 2 -8 -3
BITMAP
C0
C0
ENDCHAR
STARTCHAR 0326
ENCODING 806
SWIDTH 0 0
DWIDTH 0 0
BBX 3 3 1 -4
BITMAP
60
40
C0
ENDCHAR
STARTCHAR 0327
ENCODING 807
SWIDTH 0 0
DWIDTH 0 0
BBX 3 5 -3 -5
BITMAP
40
60
20
20
C0
ENDCHAR
STARTCHAR 0328
ENCODING 808
SWIDTH 0 0
DWIDTH 0 0
BBX 3 4 -3 -4
BITMAP
20
40
C0
E0
ENDCHAR
STARTCHAR 0384
ENCODING 900
SWIDTH 514 0
DWIDTH 10 0
BBX 3 4 6 12
BITMAP
20
60
40
80
ENDCHAR
STARTCHAR 0385
ENCODING 901
SWIDTH 411 0
DWIDTH 8 0
BBX 6 4 3 12
BITMAP
18
10
EC
84
ENDCHAR
STARTCHAR 0386
ENCODING 902
SWIDTH 514 0
DWIDTH 10 0
BBX 11 14 -1 0
BITMAP
0980
1980
1380
22C0
06C0
04C0
0CC0
1840
1FC0
3FC0
3060
6060
4060
C060
ENDCHAR
STARTCHAR 0387
ENCODING 903
SWIDTH 205 0
DWIDTH 4 0
BBX 2 3 2 8
BITMAP
40
C0
C0
ENDCHAR
STARTCHAR 0388
ENCODING 904
SWIDTH 565 0
DWIDTH 11 0
BBX 11 14 1 0
BITMAP
6FE0
6FE0
4C00
8800
0800
1800
1FC0
1800
1000
1000
3000
3000
2000
3F80
ENDCHAR
STARTCHAR 0389
ENCODING 905
SWIDTH 720 0
DWIDTH 14 0
BBX 14 14 1 0
BITMAP
6C0C
6C08
C808
9818
1818
1818
1FF0
1010
3030
3030
3030
2020
2020
6060
ENDCHAR
STARTCHAR 038A
ENCODING 906
SWIDTH 308 0
DWIDTH 6 0
BBX 6 14 1 0
BITMAP
6C
6C
C8
88
18
18
18
10
10
30
30
20
20
60
ENDCHAR
STARTCHAR 038C
ENCODING 908
SWIDTH 771 0
DWIDTH 15 0
BBX 13 14 1 0
BITMAP
63E0
6E70
D818
9818
3008
3008
2008
6018
6018
6018
2030
3030
18E0
0F80
ENDCHAR
STARTCHAR 038E
ENCODING 910
SWIDTH 617 0
DWIDTH 12 0
BBX 13 14 1 0
BITMAP
6818
4810
CC30
8C60
0440
04C0
0780
0700
0300
0200
0600
0600
0600
0400
ENDCHAR
STARTCHAR 038F
ENCODING 911
SWIDTH 771 0
DWIDTH 15 0
BBX 14 14 1 0
BITMAP
63E0
6E38
5818
980C
300C
300C
300C
3008
3018
3018
3030
1860
08C0
F9F8
ENDCHAR
STARTCHAR 0390
ENCODING 912
SWIDTH 257 0
DWIDTH 5 0
BBX 6 16 1 0
BITMAP
18
10
E4
84
00
00
60
60
60
40
40
C0
C0
C0
C0
F0
ENDCHAR
STARTCHAR 0391
ENCODING 913
SWIDTH 514 0
DWIDTH 10 0
BBX 11 14 -1 0
BITMAP
0180
0180
0380
02C0
06C0
04C0
0CC0
1840
1FC0
3FC0
3060
6060
4060
C060
ENDCHAR
STARTCHAR 0392
ENCODING 914
SWIDTH 565 0
DWIDTH 11 0
BBX 10 14 1 0
BITMAP
1F80
3FC0
3040
3040
2040
20C0
7F00
6380
6080
40C0
4080
C180
C700
FE00
ENDCHAR
STARTCHAR 0393
ENCODING 915
SWIDTH 462 0
DWIDTH 9 0
BBX 10 14 1 0
BITMAP
1FC0
3FC0
3000
3000
2000
2000
6000
6000
6000
4000
4000
C000
C000
C000
ENDCHAR
STARTCHAR 0394
ENCODING 916
SWIDTH 514 0
DWIDTH 10 0
BBX 10 14 0 0
BITMAP
0300
0300
0700
0580
0D80
0980
1980
1080
3080
2080
6080
C080
C0C0
FFC0
ENDCHAR
STARTCHAR 0395
ENCODING 917
SWIDTH 514 0
DWIDTH 10 0
BBX 10 14 1 0
BITMAP
1FC0
3F80
3000
3000
2000
2000
7F00
6000
6000
4000
4000
C000
C000
FE00
ENDCHAR
STARTCHAR 0396
ENCODING 918
SWIDTH 514 0
DWIDTH 10 0
BBX 11 14 0 0
BITMAP
1FE0
1FE0
00C0
0180
0100
0300
0600
0C00
1800
1000
3000
6000
C000
FF80
ENDCHAR
STARTCHAR 0397
ENCODING 919
SWIDTH 668 0
DWIDTH 13 0
BBX 12 14 1 0
BITMAP
1010
3030
3030
3030
2020
2020
7FE0
6060
6060
4040
4040
C0C0
C0C0
C080
ENDCHAR
STARTCHAR 0398
ENCODING 920
SWIDTH 720 0
DWIDTH 14 0
BBX 12 14 1 0
BITMAP
07C0
1CE0
3030
3030
6010
6010
4F90
CF90
C030
C030
4060
6060
31C0
1F00
ENDCHAR
STARTCHAR 0399
ENCODING 921
SWIDTH 257 0
DWIDTH 5 0
BBX 4 14 1 0
BITMAP
10
30
30
30
20
20
60
60
60
40
40
C0
C0
80
ENDCHAR
STARTCHAR 039A
ENCODING 922
SWIDTH 514 0
DWIDTH 10 0
BBX 11 14 1 0
BITMAP
1060
30C0
3180
3300
2600
2C00
7C00
7C00
6400
4600
4200
C300
C300
C180
ENDCHAR
STARTCHAR 039B
ENCODING 923
SWIDTH 514 0
DWIDTH 10 0
BBX 11 14 -1 0
BITMAP
0180
0180
03C0
02C0
06C0
04C0
0CC0
1840
1840
3040
3060
6060
4060
C060
ENDCHAR
STARTCHAR 039C
ENCODING 924
SWIDTH 822 0
DWIDTH 16 0
BBX 15 14 1 0
BITMAP
1806
380E
380E
2816
2C34
2C24
6C6C
644C
44CC
4488
4588
C518
C618
8618
ENDCHAR
STARTCHAR 039D
ENCODING 925
SWIDTH 668 0
DWIDTH 13 0
BBX 13 14 1 0
BITMAP
1818
3810
3810
2C30
2430
2430
6620
6220
4360
4360
4160
C1C0
C0C0
80C0
ENDCHAR
STARTCHAR 039E
ENCODING 926
SWIDTH 514 0
DWIDTH 10 0
BBX 11 14 0 0
BITMAP
1FE0
1FC0
0000
0000
0000
0000
1F80
0000
0000
0000
0000
0000
0000
FF00
ENDCHAR
STARTCHAR 039F
ENCODING 927
SWIDTH 720 0
DWIDTH 14 0
BBX 12 14 1 0
BITMAP
07C0
1CE0
3030
3030
6010
6010
4010
C030
C030
C030
4060
6060
31C0
1F00
ENDCHAR
STARTCHAR 03A0
ENCODING 928
SWIDTH 668 0
DWIDTH 13 0
BBX 12 14 1 0
BITMAP
1FF0
3FF0
3030
3030
2020
2060
6060
6060
6040
4040
40C0
C0C0
C0C0
C080
ENDCHAR
STARTCHAR 03A1
ENCODING 929
SWIDTH 565 0
DWIDTH 11 0
BBX 10 14 1 0
BITMAP
1F00
3F80
30C0
30C0
20C0
20C0
6180
7F00
7800
4000
4000
C000
C000
C000
ENDCHAR
STARTCHAR 03A3
ENCODING 931
SWIDTH 514 0
DWIDTH 10 0
BBX 11 14 0 0
BITMAP
1FE0
1FE0
1800
0800
0C00
0400
0600
0400
0C00
1800
3000
6000
C000
FF80
ENDCHAR
STARTCHAR 03A4
ENCODING 932
SWIDTH 462 0
DWIDTH 9 0
BBX 9 14 2 0
BITMAP
FF80
FF80
1800
1800
1800
1000
1000
3000
3000
3000
2000
2000
6000
6000
ENDCHAR
STARTCHAR 03A5
ENCODING 933
SWIDTH 462 0
DWIDTH 9 0
BBX 9 14 2 0
BITMAP
8080
C180
C300
4200
4600
6C00
6800
3800
3000
3000
2000
2000
6000
6000
ENDCHAR
STARTCHAR 03A6
ENCODING 934
SWIDTH 720 0
DWIDTH 14 0
BBX 13 14 1 0
BITMAP
0180
0180
1FE0
3130
6318
4318
C318
C218
C210
6630
76E0
1F80
0400
0C00
ENDCHAR
STARTCHAR 03A7
ENCODING 935
SWIDTH 514 0
DWIDTH 10 0
BBX 12 14 -1 0
BITMAP
1810
0830
0C60
0CC0
0480
0700
0300
0700
0D00
1900
1180
3080
60C0
C0C0
ENDCHAR
STARTCHAR 03A8
ENCODING 936
SWIDTH 720 0
DWIDTH 14 0
BBX 13 14 2 0
BITMAP
6318
4318
C218
C218
C610
C630
C630
C460
7FC0
3F00
0C00
0800
0800
1800
ENDCHAR
STARTCHAR 03A9
ENCODING 937
SWIDTH 720 0
DWIDTH 14 0
BBX 14 14 0 0
BITMAP
03E0
0E30
1818
3008
300C
200C
2008
2008
2018
2010
3030
1060
1980
F9F8
ENDCHAR
STARTCHAR 03AA
ENCODING 938
SWIDTH 257 0
DWIDTH 5 0
BBX 7 18 1 0
BITMAP
22
26
00
00
10
30
30
30
20
20
60
60
60
40
40
C0
C0
80
ENDCHAR
STARTCHAR 03AB
ENCODING 939
SWIDTH 462 0
DWIDTH 9 0
BBX 9 18 2 0
BITMAP
1100
1300
0000
0000
8080
C180
C300
4200
4600
6C00
6800
3800
3000
3000
2000
2000
6000
6000
ENDCHAR
STARTCHAR 03AC
ENCODING 940
SWIDTH 565 0
DWIDTH 11 0
BBX 10 16 1 0
BITMAP
0180
0300
0200
0600
0000
0C00
3EC0
6180
6180
C180
C100
C100
C300
C300
CF00
7B80
ENDCHAR
STARTCHAR 03AD
ENCODING 941
SWIDTH 411 0
DWIDTH 8 0
BBX 8 16 1 0
BITMAP
03
06
06
04
00
0C
3F
60
40
60
38
C0
80
80
C4
7C
ENDCHAR
STARTCHAR 03AE
ENCODING 942
SWIDTH 565 0
DWIDTH 11 0
BBX 9 21 1 -5
BITMAP
0180
0300
0200
0600
0000
0200
2F80
7180
6180
6180
4180
4180
C100
C300
8300
8300
0200
0200
0600
0600
0600
ENDCHAR
STARTCHAR 03AF
ENCODING 943
SWIDTH 257 0
DWIDTH 5 0
BBX 5 16 1 0
BITMAP
08
18
10
30
00
00
60
60
60
40
40
C0
C0
C0
C0
F0
ENDCHAR
STARTCHAR 03B0
ENCODING 944
SWIDTH 565 0
DWIDTH 11 0
BBX 9 16 1 0
BITMAP
0300
0200
1C80
1080
0000
0000
6080
6080
6080
4080
4180
C180
C100
C300
6600
7C00
ENDCHAR
STARTCHAR 03B1
ENCODING 945
SWIDTH 565 0
DWIDTH 11 0
BBX 10 11 1 0
BITMAP
0C00
3EC0
6180
6180
C180
C100
C100
C300
C300
CF00
7B80
ENDCHAR
STARTCHAR 03B2
ENCODING 946
SWIDTH 565 0
DWIDTH 11 0
BBX 11 20 0 -5
BITMAP
0780
0EC0
1860
1860
1060
1040
31C0
3700
30C0
20C0
2040
60C0
60C0
6180
5F00
C000
C000
C000
8000
8000
ENDCHAR
STARTCHAR 03B3
ENCODING 947
SWIDTH 411 0
DWIDTH 8 0
BBX 8 15 1 -5
BITMAP
C1
C3
C2
46
44
4C
58
78
70
60
60
40
C0
C0
80
ENDCHAR
STARTCHAR 03B4
ENCODING 948
SWIDTH 514 0
DWIDTH 10 0
BBX 10 15 1 0
BITMAP
0700
1DC0
1800
1000
1800
0C00
1E00
3300
4100
C180
8180
8100
C300
C600
7C00
ENDCHAR
STARTCHAR 03B5
ENCODING 949
SWIDTH 411 0
DWIDTH 8 0
BBX 8 11 1 0
BITMAP
0C
3F
60
40
60
38
C0
80
80
C4
7C
ENDCHAR
STARTCHAR 03B6
ENCODING 950
SWIDTH 411 0
DWIDTH 8 0
BBX 9 19 1 -4
BITMAP
1F80
1F80
0300
0600
0C00
1800
3000
6000
4000
C000
C000
C000
C000
E000
3800
0C00
0C00
0C00
1800
ENDCHAR
STARTCHAR 03B7
ENCODING 951
SWIDTH 565 0
DWIDTH 11 0
BBX 9 16 1 -5
BITMAP
0200
2F80
7180
6180
6180
4180
4180
C100
C300
8300
8300
0200
0200
0600
0600
0600
ENDCHAR
STARTCHAR 03B8
ENCODING 952
SWIDTH 514 0
DWIDTH 10 0
BBX 9 15 1 0
BITMAP
0F00
1B80
3180
2080
6080
4080
4180
FF80
C180
C100
8300
8300
C200
C600
7800
ENDCHAR
STARTCHAR 03B9
ENCODING 953
SWIDTH 257 0
DWIDTH 5 0
BBX 4 10 1 0
BITMAP
60
60
60
40
40
C0
C0
C0
C0
F0
ENDCHAR
STARTCHAR 03BA
ENCODING 954
SWIDTH 462 0
DWIDTH 9 0
BBX 9 10 1 0
BITMAP
2380
6600
6C00
5800
7800
E800
CC00
C400
8600
8600
ENDCHAR
STARTCHAR 03BB
ENCODING 955
SWIDTH 462 0
DWIDTH 9 0
BBX 10 15 -1 0
BITMAP
1C00
0600
0200
0200
0200
0600
0700
0F00
0B00
1B00
1100
3100
6100
4100
C1C0
ENDCHAR
STARTCHAR 03BC
ENCODING 956
SWIDTH 565 0
DWIDTH 11 0
BBX 11 15 0 -5
BITMAP
1060
3040
3040
30C0
20C0
2080
6180
6180
6380
7D80
C000
C000
C000
8000
8000
ENDCHAR
STARTCHAR 03BD
ENCODING 957
SWIDTH 462 0
DWIDTH 9 0
BBX 9 10 1 0
BITMAP
C180
C100
C300
C300
4200
4600
4C00
4800
5000
6000
ENDCHAR
STARTCHAR 03BE
ENCODING 958
SWIDTH 411 0
DWIDTH 8 0
BBX 9 19 1 -4
BITMAP
1F80
3600
1800
3000
2000
2000
1800
1E00
6000
C000
8000
8000
C000
E000
3800
0C00
0C00
0800
1800
ENDCHAR
STARTCHAR 03BF
ENCODING 959
SWIDTH 514 0
DWIDTH 10 0
BBX 9 11 1 0
BITMAP
0C00
3F00
6180
4180
C180
C180
C180
C100
C300
6600
7C00
ENDCHAR
STARTCHAR 03C0
ENCODING 960
SWIDTH 565 0
DWIDTH 11 0
BBX 11 10 1 0
BITMAP
FFE0
2180
2180
6100
6100
6300
4300
C300
C200
C380
ENDCHAR
STARTCHAR 03C1
ENCODING 961
SWIDTH 565 0
DWIDTH 11 0
BBX 10 16 0 -5
BITMAP
0200
0F80
18C0
30C0
3040
20C0
20C0
60C0
6180
6380
5E00
C000
C000
C000
8000
8000
ENDCHAR
STARTCHAR 03C2
ENCODING 962
SWIDTH 411 0
DWIDTH 8 0
BBX 8 15 1 -4
BITMAP
0E
3F
60
40
C0
C0
C0
C0
C0
60
38
0C
0C
0C
18
ENDCHAR
STARTCHAR 03C3
ENCODING 963
SWIDTH 565 0
DWIDTH 11 0
BBX 10 10 1 0
BITMAP
3FC0
7100
4180
C180
C180
C180
C100
C300
6600
7C00
ENDCHAR
STARTCHAR 03C4
ENCODING 964
SWIDTH 411 0
DWIDTH 8 0
BBX 8 10 1 0
BITMAP
FF
10
30
30
30
20
20
60
60
38
ENDCHAR
STARTCHAR 03C5
ENCODING 965
SWIDTH 565 0
DWIDTH 11 0
BBX 9 10 1 0
BITMAP
6080
6080
6080
4080
4180
C180
C100
C300
6600
7C00
ENDCHAR
STARTCHAR 03C6
ENCODING 966
SWIDTH 668 0
DWIDTH 13 0
BBX 11 16 1 -5
BITMAP
0080
33E0
6660
4620
C420
C460
CC60
CC40
CCC0
6980
3F00
1800
1800
1800
1000
1000
ENDCHAR
STARTCHAR 03C7
ENCODING 967
SWIDTH 462 0
DWIDTH 9 0
BBX 12 15 -2 -5
BITMAP
1C30
0460
0640
06C0
0780
0700
0300
0600
0E00
0B00
1B00
3300
6100
41C0
C0C0
ENDCHAR
STARTCHAR 03C8
ENCODING 968
SWIDTH 668 0
DWIDTH 13 0
BBX 12 20 1 -5
BITMAP
0180
0100
0100
0100
0300
6310
6230
6230
4630
4630
C620
C460
C460
6DC0
3F00
0800
0800
0800
1800
1800
ENDCHAR
STARTCHAR 03C9
ENCODING 969
SWIDTH 720 0
DWIDTH 14 0
BBX 12 10 1 0
BITMAP
3010
6010
4010
C210
C610
C630
C630
C420
CE60
7BC0
ENDCHAR
STARTCHAR 03CA
ENCODING 970
SWIDTH 257 0
DWIDTH 5 0
BBX 6 14 1 0
BITMAP
4C
48
00
00
60
60
60
40
40
C0
C0
C0
C0
F0
ENDCHAR
STARTCHAR 03CB
ENCODING 971
SWIDTH 565 0
DWIDTH 11 0
BBX 9 14 1 0
BITMAP
0980
0900
0000
0000
6080
6080
6080
4080
4180
C180
C100
C300
6600
7C00
ENDCHAR
STARTCHAR 03CC
ENCODING 972
SWIDTH 514 0
DWIDTH 10 0
BBX 9 16 1 0
BITMAP
0300
0300
0600
0400
0000
0C00
3F00
6180
4180
C180
C180
C180
C100
C300
6600
7C00
ENDCHAR
STARTCHAR 03CD
ENCODING 973
SWIDTH 565 0
DWIDTH 11 0
BBX 9 16 1 0
BITMAP
0100
0300
0200
0600
0000
0000
6080
6080
6080
4080
4180
C180
C100
C300
6600
7C00
ENDCHAR
STARTCHAR 03CE
ENCODING 974
SWIDTH 720 0
DWIDTH 14 0
BBX 12 16 1 0
BITMAP
00C0
0080
0180
0100
0000
0000
3010
6010
4010
C210
C610
C630
C630
C420
CE60
7BC0
ENDCHAR
STARTCHAR 03D1
ENCODING 977
SWIDTH 565 0
DWIDTH 11 0
BBX 10 15 1 0
BITMAP
0E00
1B00
1180
3080
1080
1C80
07C0
C180
4180
4100
C100
C300
8600
CC00
7800
ENDCHAR
STARTCHAR 03D2
ENCODING 978
SWIDTH 462 0
DWIDTH 9 0
BBX 10 14 2 0
BITMAP
81C0
C300
C300
4600
4400
6C00
7800
3000
3000
2000
2000
6000
6000
6000
ENDCHAR
STARTCHAR 03D6
ENCODING 982
SWIDTH 771 0
DWIDTH 15 0
BBX 15 10 1 0
BITMAP
FFFE
3010
2018
6018
4218
4210
C610
C630
6E60
7BC0
ENDCHAR
STARTCHAR 0400
ENCODING 1024
SWIDTH 514 0
DWIDTH 10 0
BBX 10 18 1 0
BITMAP
0600
0200
0300
0000
1FC0
3F80
3000
3000
2000
2000
7F00
6000
6000
4000
4000
C000
C000
FE00
ENDCHAR
STARTCHAR 0401
ENCODING 1025
SWIDTH 514 0
DWIDTH 10 0
BBX 10 18 1 0
BITMAP
0480
0C80
0000
0000
1FC0
3F80
3000
3000
2000
2000
7F00
6000
6000
4000
4000
C000
C000
FE00
ENDCHAR
STARTCHAR 0402
ENCODING 1026
SWIDTH 668 0
DWIDTH 13 0
BBX 10 14 2 0
BITMAP
FF80
FF00
1000
3000
3000
3000
3F80
20C0
60C0
60C0
6080
4180
4180
CF00
ENDCHAR
STARTCHAR 0403
ENCODING 1027
SWIDTH 462 0
DWIDTH 9 0
BBX 10 18 1 0
BITMAP
0180
0300
0200
0000
1FC0
3FC0
3000
3000
2000
2000
6000
6000
6000
4000
4000
C000
C000
C000
ENDCHAR
STARTCHAR 0404
ENCODING 1028
SWIDTH 565 0
DWIDTH 11 0
BBX 11 14 1 0
BITMAP
07E0
0E60
1800
3000
6000
6000
7F00
4000
C000
C000
4000
6000
7080
1F80
ENDCHAR
STARTCHAR 0405
ENCODING 1029
SWIDTH 462 0
DWIDTH 9 0
BBX 10 14 0 0
BITMAP
0FC0
1CC0
3000
3000
3000
3800
1C00
0700
0300
0180
0180
0100
C700
FE00
ENDCHAR
STARTCHAR 0406
ENCODING 1030
SWIDTH 257 0
DWIDTH 5 0
BBX 4 14 1 0
BITMAP
10
30
30
30
20
20
60
60
60
40
40
C0
C0
80
ENDCHAR
STARTCHAR 0407
ENCODING 1031
SWIDTH 257 0
DWIDTH 5 0
BBX 7 18 1 0
BITMAP
22
26
00
00
10
30
30
30
20
20
60
60
60
40
40
C0
C0
80
ENDCHAR
STARTCHAR 0408
ENCODING 1032
SWIDTH 257 0
DWIDTH 5 0
BBX 8 18 -3 -4
BITMAP
01
03
03
03
02
02
06
06
06
04
04
0C
0C
0C
08
18
F0
E0
ENDCHAR
STARTCHAR 0409
ENCODING 1033
SWIDTH 874 0
DWIDTH 17 0
BBX 17 14 -1 0
BITMAP
01F800
01F800
031800
031000
021000
063000
063F00
043380
0C2180
0C2080
086080
186180
306700
F07E00
ENDCHAR
STARTCHAR 040A
ENCODING 1034
SWIDTH 874 0
DWIDTH 17 0
BBX 15 14 1 0
BITMAP
1020
3020
3060
3060
2040
2040
7FFC
60CE
60C2
4082
4082
C186
C18C
C1F8
ENDCHAR
STARTCHAR 040B
ENCODING 1035
SWIDTH 668 0
DWIDTH 13 0
BBX 10 14 2 0
BITMAP
FF80
FF00
1000
3000
3000
3000
3F80
20C0
60C0
60C0
6080
4080
4180
C180
ENDCHAR
STARTCHAR 040C
ENCODING 1036
SWIDTH 514 0
DWIDTH 10 0
BBX 11 18 1 0
BITMAP
00C0
0100
0200
0000
1060
30C0
3180
3300
2600
2C00
7800
7800
6C00
4C00
4600
C200
C300
C180
ENDCHAR
STARTCHAR 040D
ENCODING 1037
SWIDTH 668 0
DWIDTH 13 0
BBX 13 18 1 0
BITMAP
0300
0100
0080
0000
1018
3030
3070
30F0
21B0
2130
6220
6620
4C60
5860
5040
F040
E040
C0C0
ENDCHAR
STARTCHAR 040E
ENCODING 1038
SWIDTH 565 0
DWIDTH 11 0
BBX 13 18 0 0
BITMAP
0420
06E0
0380
0000
3018
3030
1020
1860
18C0
08C0
0980
0D00
0F00
0600
0400
0C00
1800
F000
ENDCHAR
STARTCHAR 040F
ENCODING 1039
SWIDTH 668 0
DWIDTH 13 0
BBX 12 18 1 -4
BITMAP
1010
3030
3030
3030
2020
2020
6060
6060
6040
4040
40C0
C0C0
C0C0
FF80
0800
0800
1800
1800
ENDCHAR
STARTCHAR 0410
ENCODING 1040
SWIDTH 514 0
DWIDTH 10 0
BBX 11 14 -1 0
BITMAP
0180
0180
0380
02C0
06C0
04C0
0CC0
1840
1FC0
3FC0
3060
6060
4060
C060
ENDCHAR
STARTCHAR 0411
ENCODING 1041
SWIDTH 514 0
DWIDTH 10 0
BBX 10 14 1 0
BITMAP
1FC0
3F80
3000
3000
2000
2000
7E00
6700
6180
4180
4180
C100
C700
FC00
ENDCHAR
STARTCHAR 0412
ENCODING 1042
SWIDTH 565 0
DWIDTH 11 0
BBX 10 14 1 0
BITMAP
1F80
3FC0
3040
3040
2040
20C0
7F00
6380
6080
40C0
4080
C180
C700
FE00
ENDCHAR
STARTCHAR 0413
ENCODING 1043
SWIDTH 462 0
DWIDTH 9 0
BBX 10 14 1 0
BITMAP
1FC0
3FC0
3000
3000
2000
2000
6000
6000
6000
4000
4000
C000
C000
C000
ENDCHAR
STARTCHAR 0414
ENCODING 1044
SWIDTH 617 0
DWIDTH 12 0
BBX 14 18 -2 -4
BITMAP
00FC
00FC
008C
0188
0188
0318
0318
0618
0610
0C30
0C30
1830
3020
7FF8
6018
4018
4010
C010
ENDCHAR
STARTCHAR 0415
ENCODING 1045
SWIDTH 514 0
DWIDTH 10 0
BBX 10 14 1 0
BITMAP
1FC0
3F80
3000
3000
2000
2000
7F00
6000
6000
4000
4000
C000
C000
FE00
ENDCHAR
STARTCHAR 0416
ENCODING 1046
SWIDTH 771 0
DWIDTH 15 0
BBX 16 14 0 0
BITMAP
3041
18C3
18C6
0CCC
0C98
06B0
07E0
07E0
0D60
1930
3330
6318
C318
820C
ENDCHAR
STARTCHAR 0417
ENCODING 1047
SWIDTH 514 0
DWIDTH 10 0
BBX 10 14 0 0
BITMAP
0F80
38C0
00C0
0040
00C0
0180
1F00
0700
0180
0080
0080
0180
8300
FE00
ENDCHAR
STARTCHAR 0418
ENCODING 1048
SWIDTH 668 0
DWIDTH 13 0
BBX 13 14 1 0
BITMAP
1018
3030
3070
30F0
21B0
2130
6220
6620
4C60
5860
5040
F040
E040
C0C0
ENDCHAR
STARTCHAR 0419
ENCODING 1049
SWIDTH 668 0
DWIDTH 13 0
BBX 13 18 1 0
BITMAP
0430
0660
03C0
0000
1018
3030
3070
30F0
21B0
2130
6220
6620
4C60
5860
5040
F040
E040
C0C0
ENDCHAR
STARTCHAR 041A
ENCODING 1050
SWIDTH 514 0
DWIDTH 10 0
BBX 11 14 1 0
BITMAP
1060
30C0
3180
3300
2600
2C00
7800
7800
6C00
4C00
4600
C200
C300
C180
ENDCHAR
STARTCHAR 041B
ENCODING 1051
SWIDTH 617 0
DWIDTH 12 0
BBX 14 14 -1 0
BITMAP
01FC
01F8
0308
0318
0218
0618
0610
0410
0C30
0C30
0820
1820
3060
F060
ENDCHAR
STARTCHAR 041C
ENCODING 1052
SWIDTH 822 0
DWIDTH 16 0
BBX 15 14 1 0
BITMAP
1806
380E
380E
2816
2C34
2C24
6C6C
644C
44CC
4488
4588
C518
C618
8618
ENDCHAR
STARTCHAR 041D
ENCODING 1053
SWIDTH 668 0
DWIDTH 13 0
BBX 12 14 1 0
BITMAP
1010
3030
3030
3030
2020
2020
7FE0
6060
6060
4040
4040
C0C0
C0C0
C080
ENDCHAR
STARTCHAR 041E
ENCODING 1054
SWIDTH 720 0
DWIDTH 14 0
BBX 12 14 1 0
BITMAP
07C0
1CE0
3030
3030
6010
6010
4010
C030
C030
C030
4060
6060
31C0
1F00
ENDCHAR
STARTCHAR 041F
ENCODING 1055
SWIDTH 668 0
DWIDTH 13 0
BBX 12 14 1 0
BITMAP
1FF0
3FF0
3030
3030
2020
2060
6060
6060
6040
4040
40C0
C0C0
C0C0
C080
ENDCHAR
STARTCHAR 0420
ENCODING 1056
SWIDTH 565 0
DWIDTH 11 0
BBX 10 14 1 0
BITMAP
1F00
3F80
30C0
30C0
20C0
20C0
6180
7F00
7800
4000
4000
C000
C000
C000
ENDCHAR
STARTCHAR 0421
ENCODING 1057
SWIDTH 565 0
DWIDTH 11 0
BBX 11 14 1 0
BITMAP
07E0
0E60
1800
3000
6000
6000
4000
4000
C000
C000
4000
6000
7080
1F80
ENDCHAR
STARTCHAR 0422
ENCODING 1058
SWIDTH 462 0
DWIDTH 9 0
BBX 9 14 2 0
BITMAP
FF80
FF80
1800
1800
1800
1000
1000
3000
3000
3000
2000
2000
6000
6000
ENDCHAR
STARTCHAR 0423
ENCODING 1059
SWIDTH 565 0
DWIDTH 11 0
BBX 13 14 0 0
BITMAP
3018
3030
1020
1860
18C0
08C0
0980
0D00
0F00
0600
0400
0C00
1800
F000
ENDCHAR
STARTCHAR 0424
ENCODING 1060
SWIDTH 720 0
DWIDTH 14 0
BBX 13 14 1 0
BITMAP
0180
0180
1FE0
3130
6318
4318
C318
C218
C210
6630
76E0
1F80
0400
0C00
ENDCHAR
STARTCHAR 0425
ENCODING 1061
SWIDTH 514 0
DWIDTH 10 0
BBX 12 14 -1 0
BITMAP
1810
0830
0C60
0CC0
0480
0700
0300
0700
0D00
1900
1180
3080
60C0
C0C0
ENDCHAR
STARTCHAR 0426
ENCODING 1062
SWIDTH 668 0
DWIDTH 13 0
BBX 12 18 1 -4
BITMAP
1030
3030
3030
3020
2060
2060
6060
6040
6040
40C0
40C0
C0C0
C080
FFE0
0060
0040
0040
00C0
ENDCHAR
STARTCHAR 0427
ENCODING 1063
SWIDTH 617 0
DWIDTH 12 0
BBX 10 14 2 0
BITMAP
6040
6040
60C0
40C0
40C0
C080
C080
E380
7F80
0100
0100
0300
0300
0300
ENDCHAR
STARTCHAR 0428
ENCODING 1064
SWIDTH 925 0
DWIDTH 18 0
BBX 18 14 1 0
BITMAP
1060C0
306080
306080
304180
20C180
20C180
60C100
608100
608300
418300
418200
C18200
C10600
FFFE00
ENDCHAR
STARTCHAR 0429
ENCODING 1065
SWIDTH 925 0
DWIDTH 18 0
BBX 18 18 1 -4
BITMAP
1060C0
306080
306080
304180
20C180
20C180
60C100
608100
608300
418300
418300
C18200
C10600
FFFF00
000100
000300
000300
000300
ENDCHAR
STARTCHAR 042A
ENCODING 1066
SWIDTH 617 0
DWIDTH 12 0
BBX 9 14 2 0
BITMAP
F800
F000
1000
3000
3000
3000
3E00
2380
6180
6180
6180
4180
4700
FE00
ENDCHAR
STARTCHAR 042B
ENCODING 1067
SWIDTH 771 0
DWIDTH 15 0
BBX 14 14 1 0
BITMAP
1004
300C
300C
300C
2008
2008
7E18
6718
6198
4190
4190
C330
C730
FC20
ENDCHAR
STARTCHAR 042C
ENCODING 1068
SWIDTH 514 0
DWIDTH 10 0
BBX 9 14 1 0
BITMAP
1000
3000
3000
3000
2000
2000
7E00
6700
6180
4180
4180
C300
C700
FC00
ENDCHAR
STARTCHAR 042D
ENCODING 1069
SWIDTH 565 0
DWIDTH 11 0
BBX 11 14 0 0
BITMAP
1F00
11C0
00C0
0060
0060
0060
1FE0
0060
0040
00C0
00C0
0180
C700
FE00
ENDCHAR
STARTCHAR 042E
ENCODING 1070
SWIDTH 977 0
DWIDTH 19 0
BBX 17 14 1 0
BITMAP
103E00
306300
30C180
318180
210080
230080
7F0080
630080
630180
430180
430300
C30300
C18E00
C0FC00
ENDCHAR
STARTCHAR 042F
ENCODING 1071
SWIDTH 565 0
DWIDTH 11 0
BBX 11 14 0 0
BITMAP
07E0
1FE0
1860
3040
3040
30C0
18C0
0FC0
0880
1880
3180
6180
C180
C100
ENDCHAR
STARTCHAR 0430
ENCODING 1072
SWIDTH 514 0
DWIDTH 10 0
BBX 9 11 1 0
BITMAP
0C00
3E80
6180
6180
C180
C180
C100
C300
C300
CF00
7B00
ENDCHAR
STARTCHAR 0431
ENCODING 1073
SWIDTH 514 0
DWIDTH 10 0
BBX 10 15 1 0
BITMAP
00C0
0FC0
1800
3000
6000
6E00
5F00
E100
C180
C180
C100
C100
C300
4600
7C00
ENDCHAR
STARTCHAR 0432
ENCODING 1074
SWIDTH 514 0
DWIDTH 10 0
BBX 9 11 1 0
BITMAP
0C00
3F00
6180
4180
C100
FE00
C700
C100
C100
6300
7E00
ENDCHAR
STARTCHAR 0433
ENCODING 1075
SWIDTH 411 0
DWIDTH 8 0
BBX 8 11 0 0
BITMAP
0C
3F
01
01
07
1C
70
40
C0
62
7E
ENDCHAR
STARTCHAR 0434
ENCODING 1076
SWIDTH 514 0
DWIDTH 10 0
BBX 9 15 1 0
BITMAP
1E00
1300
0180
0180
0080
1E80
3280
6180
C180
C180
C100
C300
C300
C600
7C00
ENDCHAR
STARTCHAR 0435
ENCODING 1077
SWIDTH 462 0
DWIDTH 9 0
BBX 8 11 1 0
BITMAP
0C
3F
63
63
C3
FC
C0
C0
C0
E2
7E
ENDCHAR
STARTCHAR 0436
ENCODING 1078
SWIDTH 822 0
DWIDTH 16 0
BBX 16 11 0 0
BITMAP
3003
78CF
0CCC
0C98
0C90
0FF0
0DB0
0930
1930
3118
E31E
ENDCHAR
STARTCHAR 0437
ENCODING 1079
SWIDTH 411 0
DWIDTH 8 0
BBX 8 11 0 0
BITMAP
0C
3F
03
03
02
1C
06
02
02
86
FC
ENDCHAR
STARTCHAR 0438
ENCODING 1080
SWIDTH 565 0
DWIDTH 11 0
BBX 9 10 1 0
BITMAP
6080
6080
6180
4180
4180
C100
C300
C300
CF00
7B00
ENDCHAR
STARTCHAR 0439
ENCODING 1081
SWIDTH 565 0
DWIDTH 11 0
BBX 10 15 1 0
BITMAP
10C0
1880
0F80
0000
0000
6080
6080
6180
4180
4180
C100
C300
C300
CF00
7B00
ENDCHAR
STARTCHAR 043A
ENCODING 1082
SWIDTH 462 0
DWIDTH 9 0
BBX 9 10 1 0
BITMAP
2380
6600
6C00
5800
7000
D000
D800
CC00
8400
8600
ENDCHAR
STARTCHAR 043B
ENCODING 1083
SWIDTH 514 0
DWIDTH 10 0
BBX 11 10 -1 1
BITMAP
03E0
0640
0C40
0CC0
08C0
18C0
1880
3080
3180
E180
ENDCHAR
STARTCHAR 043C
ENCODING 1084
SWIDTH 668 0
DWIDTH 13 0
BBX 12 10 1 0
BITMAP
3070
7070
50A0
50A0
5160
5B60
CA40
8E40
8C40
8CC0
ENDCHAR
STARTCHAR 043D
ENCODING 1085
SWIDTH 565 0
DWIDTH 11 0
BBX 10 10 1 0
BITMAP
20C0
60C0
6080
6080
7F80
4180
C180
C100
8100
8300
ENDCHAR
STARTCHAR 043E
ENCODING 1086
SWIDTH 514 0
DWIDTH 10 0
BBX 9 11 1 0
BITMAP
0C00
3F00
6180
4180
C180
C180
C180
C100
C300
6600
7C00
ENDCHAR
STARTCHAR 043F
ENCODING 1087
SWIDTH 565 0
DWIDTH 11 0
BBX 9 11 1 0
BITMAP
0700
2F80
7180
6180
6180
4180
C180
C100
C300
8300
8300
ENDCHAR
STARTCHAR 0440
ENCODING 1088
SWIDTH 565 0
DWIDTH 11 0
BBX 10 16 0 -5
BITMAP
0100
17C0
38C0
3040
3040
2040
20C0
60C0
6180
5380
5E00
C000
C000
C000
8000
8000
ENDCHAR
STARTCHAR 0441
ENCODING 1089
SWIDTH 411 0
DWIDTH 8 0
BBX 8 11 1 0
BITMAP
0E
3F
60
60
C0
C0
C0
C0
C0
E0
7C
ENDCHAR
STARTCHAR 0442
ENCODING 1090
SWIDTH 822 0
DWIDTH 16 0
BBX 15 11 1 0
BITMAP
0608
2F3E
71C6
6186
6186
4104
4104
C30C
C30C
830C
8208
ENDCHAR
STARTCHAR 0443
ENCODING 1091
SWIDTH 411 0
DWIDTH 8 0
BBX 11 15 -2 -5
BITMAP
1820
1860
1840
08C0
0880
0980
0900
0B00
0E00
0C00
0C00
0800
1800
F000
E000
ENDCHAR
STARTCHAR 0444
ENCODING 1092
SWIDTH 617 0
DWIDTH 12 0
BBX 11 20 1 -5
BITMAP
0100
0300
0300
0300
0700
3FC0
6660
4660
C460
C460
C460
CC40
CCC0
6980
3F00
0800
1800
1800
1000
1000
ENDCHAR
STARTCHAR 0445
ENCODING 1093
SWIDTH 462 0
DWIDTH 9 0
BBX 9 10 0 0
BITMAP
3180
3300
1200
1E00
0C00
1C00
3400
6600
4200
C300
ENDCHAR
STARTCHAR 0446
ENCODING 1094
SWIDTH 565 0
DWIDTH 11 0
BBX 9 14 1 -4
BITMAP
6080
6080
6180
4180
4180
C100
C300
C300
CF00
7980
0180
0180
0180
0100
ENDCHAR
STARTCHAR 0447
ENCODING 1095
SWIDTH 514 0
DWIDTH 10 0
BBX 8 10 2 0
BITMAP
C3
83
83
86
8E
FE
06
06
04
0C
ENDCHAR
STARTCHAR 0448
ENCODING 1096
SWIDTH 822 0
DWIDTH 16 0
BBX 15 10 1 0
BITMAP
6082
6186
6186
4106
4104
C30C
C30C
C71C
CF38
79E8
ENDCHAR
STARTCHAR 0449
ENCODING 1097
SWIDTH 874 0
DWIDTH 17 0
BBX 15 14 1 -4
BITMAP
6082
6186
6186
4106
4104
C30C
C30C
C71C
CF3C
79EE
0006
0006
0004
000C
ENDCHAR
STARTCHAR 044A
ENCODING 1098
SWIDTH 565 0
DWIDTH 11 0
BBX 9 10 1 0
BITMAP
F800
1800
1000
1000
3F00
3180
3080
3080
3180
1F00
ENDCHAR
STARTCHAR 044B
ENCODING 1099
SWIDTH 668 0
DWIDTH 13 0
BBX 12 10 1 0
BITMAP
6010
6030
6030
4030
7E20
C620
C360
C260
C660
7C40
ENDCHAR
STARTCHAR 044C
ENCODING 1100
SWIDTH 514 0
DWIDTH 10 0
BBX 8 10 1 0
BITMAP
60
60
60
40
7E
C3
C3
C3
C6
7C
ENDCHAR
STARTCHAR 044D
ENCODING 1101
SWIDTH 411 0
DWIDTH 8 0
BBX 8 11 0 0
BITMAP
18
7E
03
03
03
3F
03
03
06
8C
F8
ENDCHAR
STARTCHAR 044E
ENCODING 1102
SWIDTH 771 0
DWIDTH 15 0
BBX 13 11 1 0
BITMAP
0040
21F0
6318
6608
6608
7C08
4418
C418
C410
8630
83E0
ENDCHAR
STARTCHAR 044F
ENCODING 1103
SWIDTH 514 0
DWIDTH 10 0
BBX 9 10 0 0
BITMAP
1F80
3080
2180
2180
3F80
1F00
3100
6300
6300
C300
ENDCHAR
STARTCHAR 0450
ENCODING 1104
SWIDTH 462 0
DWIDTH 9 0
BBX 8 15 1 0
BITMAP
18
0C
04
00
0C
3F
63
63
C3
FC
C0
C0
C0
E2
7E
ENDCHAR
STARTCHAR 0451
ENCODING 1105
SWIDTH 462 0
DWIDTH 9 0
BBX 8 14 1 0
BITMAP
19
11
00
0C
3F
63
63
C3
FC
C0
C0
C0
E2
7E
ENDCHAR
STARTCHAR 0452
ENCODING 1106
SWIDTH 565 0
DWIDTH 11 0
BBX 9 20 1 -5
BITMAP
1000
3000
7E00
3000
2000
2F00
7980
6180
6180
4180
4100
C100
C300
8300
8300
0200
0200
0600
1C00
1800
ENDCHAR
STARTCHAR 0453
ENCODING 1107
SWIDTH 411 0
DWIDTH 8 0
BBX 9 15 0 0
BITMAP
0080
0100
0200
0000
0C00
3F00
0100
0100
0700
1C00
7000
4000
C000
6200
7E00
ENDCHAR
STARTCHAR 0454
ENCODING 1108
SWIDTH 411 0
DWIDTH 8 0
BBX 8 11 1 0
BITMAP
0E
3F
60
40
C0
FC
C0
C0
C0
E0
7C
ENDCHAR
STARTCHAR 0455
ENCODING 1109
SWIDTH 411 0
DWIDTH 8 0
BBX 8 11 0 0
BITMAP
0C
3F
60
60
30
38
0E
06
06
86
FC
ENDCHAR
STARTCHAR 0456
ENCODING 1110
SWIDTH 205 0
DWIDTH 4 0
BBX 4 14 1 0
BITMAP
30
30
00
00
20
60
60
60
40
40
C0
C0
80
80
ENDCHAR
STARTCHAR 0457
ENCODING 1111
SWIDTH 205 0
DWIDTH 4 0
BBX 6 14 1 0
BITMAP
4C
48
00
00
20
60
60
60
40
40
C0
C0
80
80
ENDCHAR
STARTCHAR 0458
ENCODING 1112
SWIDTH 205 0
DWIDTH 4 0
BBX 7 19 -2 -5
BITMAP
06
06
00
00
04
0C
0C
08
08
08
18
18
10
10
30
30
30
E0
C0
ENDCHAR
STARTCHAR 0459
ENCODING 1113
SWIDTH 771 0
DWIDTH 15 0
BBX 15 10 -1 1
BITMAP
03C0
06C0
0CC0
0CC0
08FC
1886
1986
3186
308C
E0F8
ENDCHAR
STARTCHAR 045A
ENCODING 1114
SWIDTH 771 0
DWIDTH 15 0
BBX 14 10 1 0
BITMAP
2180
6180
6180
6100
7FF8
4318
C30C
C30C
8318
81F0
ENDCHAR
STARTCHAR 045B
ENCODING 1115
SWIDTH 565 0
DWIDTH 11 0
BBX 9 15 1 0
BITMAP
1000
3000
7E00
3000
2000
2F80
7180
6180
6180
4180
4100
C100
C300
8300
8300
ENDCHAR
STARTCHAR 045C
ENCODING 1116
SWIDTH 462 0
DWIDTH 9 0
BBX 9 15 1 0
BITMAP
0300
0200
0400
0000
0000
2380
6600
6C00
5800
7000
D000
D800
CC00
8400
8600
ENDCHAR
STARTCHAR 045D
ENCODING 1117
SWIDTH 565 0
DWIDTH 11 0
BBX 9 15 1 0
BITMAP
0C00
0400
0600
0000
0000
6080
6080
6180
4180
4180
C100
C300
C300
CF00
7B00
ENDCHAR
STARTCHAR 045E
ENCODING 1118
SWIDTH 411 0
DWIDTH 8 0
BBX 11 20 -2 -5
BITMAP
0420
0460
07C0
0000
0000
1820
1860
1840
08C0
0880
0980
0900
0B00
0E00
0C00
0C00
0800
1800
F000
E000
ENDCHAR
STARTCHAR 045F
ENCODING 1119
SWIDTH 565 0
DWIDTH 11 0
BBX 9 15 1 -5
BITMAP
6080
6080
6180
4180
4180
C100
C300
C300
CF00
7B00
0000
1000
3000
3000
3000
ENDCHAR
STARTCHAR 0460
ENCODING 1120
SWIDTH 874 0
DWIDTH 17 0
BBX 17 14 2 0
BITMAP
C08180
C18180
C18180
C18100
C18300
C38200
C38600
C78600
C48C00
CC8C00
48D800
58D000
70F000
606000
ENDCHAR
STARTCHAR 0461
ENCODING 1121
SWIDTH 771 0
DWIDTH 15 0
BBX 14 10 1 0
BITMAP
C304
C30C
C30C
C308
C318
4710
4D30
5960
7140
6180
ENDCHAR
STARTCHAR 0462
ENCODING 1122
SWIDTH 565 0
DWIDTH 11 0
BBX 9 14 1 0
BITMAP
1800
1800
7F00
FF00
1000
3000
3F00
2380
2180
6080
6080
6180
4700
7E00
ENDCHAR
STARTCHAR 0463
ENCODING 1123
SWIDTH 514 0
DWIDTH 10 0
BBX 8 13 1 0
BITMAP
10
30
30
FC
20
20
60
7E
63
41
41
63
3E
ENDCHAR
STARTCHAR 0464
ENCODING 1124
SWIDTH 822 0
DWIDTH 16 0
BBX 16 14 1 0
BITMAP
103F
3071
30C0
3180
2100
2300
7FFC
6300
6200
4300
4300
C300
C184
C0FC
ENDCHAR
STARTCHAR 0465
ENCODING 1125
SWIDTH 668 0
DWIDTH 13 0
BBX 12 11 1 0
BITMAP
0060
21F0
6300
6600
6600
7FE0
4400
C400
C400
8620
83E0
ENDCHAR
STARTCHAR 0466
ENCODING 1126
SWIDTH 565 0
DWIDTH 11 0
BBX 12 14 -1 0
BITMAP
00C0
01C0
01C0
0340
0640
0440
0FE0
0960
1B60
1360
3220
6220
4630
C630
ENDCHAR
STARTCHAR 0467
ENCODING 1127
SWIDTH 514 0
DWIDTH 10 0
BBX 10 10 -1 0
BITMAP
0300
0780
0580
0980
1F80
1680
3680
24C0
64C0
CCC0
ENDCHAR
STARTCHAR 0468
ENCODING 1128
SWIDTH 822 0
DWIDTH 16 0
BBX 14 14 1 0
BITMAP
1030
3030
3070
3058
20D8
2098
7FF8
6368
6248
464C
444C
CCCC
D8C4
D884
ENDCHAR
STARTCHAR 0469
ENCODING 1129
SWIDTH 668 0
DWIDTH 13 0
BBX 12 10 1 0
BITMAP
21C0
6140
6340
6260
7FE0
45E0
CD20
D920
9320
B330
ENDCHAR
STARTCHAR 046A
ENCODING 1130
SWIDTH 617 0
DWIDTH 12 0
BBX 14 14 -1 0
BITMAP
0FFC
0FFC
0418
0630
0260
03C0
07E0
0DB0
1910
3110
3310
6310
6318
C218
ENDCHAR
STARTCHAR 046B
ENCODING 1131
SWIDTH 565 0
DWIDTH 11 0
BBX 12 10 -1 0
BITMAP
1FF0
0860
04C0
0780
0FC0
3260
2260
6660
4620
C420
ENDCHAR
STARTCHAR 046C
ENCODING 1132
SWIDTH 874 0
DWIDTH 17 0
BBX 17 14 1 0
BITMAP
11FF80
31FF80
308300
30C600
204C00
207800
7FFC00
612600
622600
466200
446200
CC6200
C84200
D84200
ENDCHAR
STARTCHAR 046D
ENCODING 1133
SWIDTH 771 0
DWIDTH 15 0
BBX 14 10 1 0
BITMAP
27FC
6218
6130
61E0
7FF0
4498
C898
D998
9188
B108
ENDCHAR
STARTCHAR 046E
ENCODING 1134
SWIDTH 514 0
DWIDTH 10 0
BBX 11 21 -1 -4
BITMAP
0020
02E0
0380
07C0
1CE0
0060
0060
0060
00C0
0F80
0380
00C0
0040
00C0
00C0
0380
3F00
6000
C000
FF00
3F00
ENDCHAR
STARTCHAR 046F
ENCODING 1135
SWIDTH 411 0
DWIDTH 8 0
BBX 10 16 -1 -4
BITMAP
08C0
0500
0600
1F80
0080
0080
0180
0E00
0300
0180
0100
0300
3E00
C000
C000
FE00
ENDCHAR
STARTCHAR 0470
ENCODING 1136
SWIDTH 720 0
DWIDTH 14 0
BBX 13 14 2 0
BITMAP
6318
4318
C218
C218
C610
C630
C630
C460
7FC0
3F00
0C00
0800
0800
1800
ENDCHAR
STARTCHAR 0471
ENCODING 1137
SWIDTH 668 0
DWIDTH 13 0
BBX 12 20 1 -5
BITMAP
0180
0100
0100
0100
0300
6310
6230
6230
4630
4630
C620
C460
C460
6DC0
3F00
0800
0800
0800
1800
1800
ENDCHAR
STARTCHAR 0472
ENCODING 1138
SWIDTH 720 0
DWIDTH 14 0
BBX 12 14 1 0
BITMAP
07C0
1CE0
3030
3030
6010
6010
7FF0
FFF0
C030
C030
4060
6060
31C0
1F00
ENDCHAR
STARTCHAR 0473
ENCODING 1139
SWIDTH 514 0
DWIDTH 10 0
BBX 9 11 1 0
BITMAP
0C00
3F00
6180
4180
C180
FF80
C180
C100
C300
6600
7C00
ENDCHAR
STARTCHAR 0474
ENCODING 1140
SWIDTH 514 0
DWIDTH 10 0
BBX 11 14 2 0
BITMAP
80E0
C0C0
C180
C100
C300
C200
4600
4400
4C00
4800
5800
7000
7000
6000
ENDCHAR
STARTCHAR 0475
ENCODING 1141
SWIDTH 411 0
DWIDTH 8 0
BBX 9 10 1 0
BITMAP
C380
C200
C600
C400
4C00
4800
5800
5000
5000
6000
ENDCHAR
STARTCHAR 0476
ENCODING 1142
SWIDTH 514 0
DWIDTH 10 0
BBX 11 18 2 0
BITMAP
6C00
2600
1200
0000
80E0
C0C0
C180
C100
C300
C200
4600
4400
4C00
4800
5800
7000
7000
6000
ENDCHAR
STARTCHAR 0477
ENCODING 1143
SWIDTH 411 0
DWIDTH 8 0
BBX 9 15 1 0
BITMAP
D800
4C00
6400
0000
0000
C380
C200
C600
C400
4C00
4800
5800
5000
5000
6000
ENDCHAR
STARTCHAR 0478
ENCODING 1144
SWIDTH 1131 0
DWIDTH 22 0
BBX 22 19 1 -5
BITMAP
07C000
1CE000
303000
303000
601304
60130C
401308
C03118
C03110
C03130
406120
606160
31C1C0
1F0180
000180
000100
000300
001E00
001C00
ENDCHAR
STARTCHAR 0479
ENCODING 1145
SWIDTH 977 0
DWIDTH 19 0
BBX 19 16 1 -5
BITMAP
0C0000
3F1820
619860
419840
C198C0
C18880
C18980
C10B00
C30B00
660A00
7C0C00
000C00
000800
001800
00F000
00E000
ENDCHAR
STARTCHAR 047A
ENCODING 1146
SWIDTH 720 0
DWIDTH 14 0
BBX 13 16 1 -1
BITMAP
0180
07C0
1FE0
3030
3010
6018
6018
4018
C018
C010
C030
4030
6060
3FC0
1F80
0C00
ENDCHAR
STARTCHAR 047B
ENCODING 1147
SWIDTH 565 0
DWIDTH 11 0
BBX 9 12 1 -1
BITMAP
0E00
3F00
6580
4080
C080
C080
C180
C180
C100
7F00
7C00
1800
ENDCHAR
STARTCHAR 047C
ENCODING 1148
SWIDTH 925 0
DWIDTH 18 0
BBX 17 20 1 0
BITMAP
007000
009C00
002000
003000
002000
000000
0F9E00
1D9300
300180
300180
600180
600180
400180
400180
C18100
C18300
C18200
618600
638C00
3EF800
ENDCHAR
STARTCHAR 047D
ENCODING 1149
SWIDTH 771 0
DWIDTH 15 0
BBX 13 17 1 0
BITMAP
03C0
0270
0180
0080
0180
0000
0C20
3E78
6018
4008
C008
C008
C218
C618
C610
C670
7FE0
ENDCHAR
STARTCHAR 047E
ENCODING 1150
SWIDTH 874 0
DWIDTH 17 0
BBX 17 17 2 0
BITMAP
03F800
000000
000000
C08180
C18180
C18180
C18100
C18300
C38200
C38600
C78600
C48C00
CC8C00
48D800
58D000
70F000
606000
ENDCHAR
STARTCHAR 047F
ENCODING 1151
SWIDTH 771 0
DWIDTH 15 0
BBX 14 14 1 0
BITMAP
0FF0
0490
0000
0000
C304
C30C
C30C
C308
C318
4710
4D30
5960
7140
6180
ENDCHAR
STARTCHAR 0480
ENCODING 1152
SWIDTH 565 0
DWIDTH 11 0
BBX 11 19 1 -5
BITMAP
07E0
0E60
1800
3000
6000
6000
4000
4000
C000
C000
4000
6000
3000
1E00
0600
0400
0C00
0C00
0C00
ENDCHAR
STARTCHAR 0481
ENCODING 1153
SWIDTH 411 0
DWIDTH 8 0
BBX 8 16 1 -5
BITMAP
0E
3F
60
60
C0
C0
C0
C0
C0
E4
78
08
18
18
18
10
ENDCHAR
STARTCHAR 0482
ENCODING 1154
SWIDTH 565 0
DWIDTH 11 0
BBX 10 12 1 0
BITMAP
0180
1100
1F00
0600
0780
0CC0
C800
7800
1C00
3600
2000
6000
ENDCHAR
STARTCHAR 0483
ENCODING 1155
SWIDTH 0 0
DWIDTH 0 0
BBX 7 3 -8 11
BITMAP
02
7E
C0
ENDCHAR
STARTCHAR 0484
ENCODING 1156
SWIDTH 0 0
DWIDTH 0 0
BBX 7 2 -8 12
BITMAP
1E
E2
ENDCHAR
STARTCHAR 0485
ENCODING 1157
SWIDTH 0 0
DWIDTH 0 0
BBX 2 3 -5 12
BITMAP
C0
80
C0
ENDCHAR
STARTCHAR 0486
ENCODING 1158
SWIDTH 0 0
DWIDTH 0 0
BBX 2 3 -5 12
BITMAP
C0
40
C0
ENDCHAR
STARTCHAR 0488
ENCODING 1160
SWIDTH 977 0
DWIDTH 19 0
BBX 19 17 0 -3
BITMAP
004000
00A000
000000
180300
240480
000000
000000
000000
7001C0
800120
000000
000000
000000
3C0780
000000
00E000
012000
ENDCHAR
STARTCHAR 0489
ENCODING 1161
SWIDTH 925 0
DWIDTH 18 0
BBX 18 18 0 -4
BITMAP
004000
004000
10C000
080300
080600
000000
000000
000000
F00180
100040
000000
000000
000000
0C0600
304200
004000
004000
008000
ENDCHAR
STARTCHAR 048A
ENCODING 1162
SWIDTH 668 0
DWIDTH 13 0
BBX 13 22 1 -4
BITMAP
0420
0460
03C0
0000
1038
3030
3070
30F0
21B0
2130
6220
6620
4C60
5860
5040
F040
E040
C0E0
0060
0040
00C0
0080
ENDCHAR
STARTCHAR 048B
ENCODING 1163
SWIDTH 565 0
DWIDTH 11 0
BBX 10 19 1 -4
BITMAP
10C0
1080
1F00
0000
0000
6080
6080
6180
4180
4180
C100
C300
C300
CF00
7B80
0180
0100
0300
0200
ENDCHAR
STARTCHAR 048C
ENCODING 1164
SWIDTH 514 0
DWIDTH 10 0
BBX 9 14 1 0
BITMAP
1000
3000
7E00
3000
2000
2000
7E00
6700
6180
4180
4180
C300
CE00
FC00
ENDCHAR
STARTCHAR 048D
ENCODING 1165
SWIDTH 514 0
DWIDTH 10 0
BBX 8 15 1 0
BITMAP
10
30
30
FC
20
60
60
60
40
7E
C3
C3
C3
C6
7C
ENDCHAR
STARTCHAR 048E
ENCODING 1166
SWIDTH 565 0
DWIDTH 11 0
BBX 10 14 1 0
BITMAP
1F00
3F80
30C0
30C0
20C0
24C0
6380
7F00
7B00
4100
4000
C000
C000
C000
ENDCHAR
STARTCHAR 048F
ENCODING 1167
SWIDTH 565 0
DWIDTH 11 0
BBX 10 16 0 -5
BITMAP
0100
17C0
38C0
3040
3040
2040
20C0
60C0
6580
5780
5E00
C100
C100
C000
8000
8000
ENDCHAR
STARTCHAR 0490
ENCODING 1168
SWIDTH 462 0
DWIDTH 9 0
BBX 10 17 1 0
BITMAP
0040
0040
00C0
1FC0
3F80
3000
3000
2000
2000
6000
6000
6000
4000
4000
C000
C000
C000
ENDCHAR
STARTCHAR 0491
ENCODING 1169
SWIDTH 360 0
DWIDTH 7 0
BBX 8 13 1 0
BITMAP
03
02
02
3E
60
60
60
40
40
C0
C0
80
80
ENDCHAR
STARTCHAR 0492
ENCODING 1170
SWIDTH 462 0
DWIDTH 9 0
BBX 10 14 1 0
BITMAP
1FC0
3F80
3000
3000
2000
2000
FC00
FC00
6000
4000
4000
C000
C000
C000
ENDCHAR
STARTCHAR 0493
ENCODING 1171
SWIDTH 360 0
DWIDTH 7 0
BBX 8 10 0 0
BITMAP
1F
30
30
30
FC
20
60
60
40
40
ENDCHAR
STARTCHAR 0494
ENCODING 1172
SWIDTH 565 0
DWIDTH 11 0
BBX 10 19 1 -5
BITMAP
1FC0
3FC0
3000
3000
2000
2000
7C00
7F00
6300
4180
4180
C180
C180
C180
0180
0300
0700
FE00
7800
ENDCHAR
STARTCHAR 0495
ENCODING 1173
SWIDTH 462 0
DWIDTH 9 0
BBX 7 15 1 -5
BITMAP
3E
60
60
60
7C
4E
C6
C2
82
82
06
06
0C
F8
70
ENDCHAR
STARTCHAR 0496
ENCODING 1174
SWIDTH 822 0
DWIDTH 16 0
BBX 16 18 0 -4
BITMAP
3041
18C3
18C6
0CCC
0C98
06B0
07E0
07E0
0D60
1930
3330
6318
C318
820E
0006
0004
0004
000C
ENDCHAR
STARTCHAR 0497
ENCODING 1175
SWIDTH 822 0
DWIDTH 16 0
BBX 16 15 0 -4
BITMAP
3003
78CF
0CCC
0C98
0C90
0FF0
0DB0
0930
1930
3118
E31E
0006
0004
0004
0004
ENDCHAR
STARTCHAR 0498
ENCODING 1176
SWIDTH 514 0
DWIDTH 10 0
BBX 10 18 0 -4
BITMAP
0F80
38C0
00C0
0040
00C0
0180
1F00
0700
0180
0080
0080
0180
8300
FE00
0800
0800
0800
3800
ENDCHAR
STARTCHAR 0499
ENCODING 1177
SWIDTH 411 0
DWIDTH 8 0
BBX 8 15 0 -4
BITMAP
0C
3F
03
03
02
1C
06
02
02
86
FC
10
10
10
70
ENDCHAR
STARTCHAR 049A
ENCODING 1178
SWIDTH 565 0
DWIDTH 11 0
BBX 11 18 1 -4
BITMAP
1060
30C0
3180
3300
2600
2C00
7800
7800
6C00
4C00
4600
C300
C300
C1C0
0080
0080
0180
0180
ENDCHAR
STARTCHAR 049B
ENCODING 1179
SWIDTH 514 0
DWIDTH 10 0
BBX 9 14 1 -4
BITMAP
2380
6600
6C00
5800
7000
D000
D800
CC00
8400
8700
0300
0300
0200
0200
ENDCHAR
STARTCHAR 049C
ENCODING 1180
SWIDTH 565 0
DWIDTH 11 0
BBX 11 14 1 0
BITMAP
1060
30C0
3180
3700
2600
2C00
7C00
7800
6C00
4C00
4E00
C200
C300
C180
ENDCHAR
STARTCHAR 049D
ENCODING 1181
SWIDTH 462 0
DWIDTH 9 0
BBX 9 10 1 0
BITMAP
2980
6E00
6C00
5800
7000
D000
D800
DC00
B400
8600
ENDCHAR
STARTCHAR 049E
ENCODING 1182
SWIDTH 514 0
DWIDTH 10 0
BBX 11 14 1 0
BITMAP
1060
30C0
7D80
3300
2600
2C00
7800
7800
6C00
4C00
4600
C200
C300
C180
ENDCHAR
STARTCHAR 049F
ENCODING 1183
SWIDTH 462 0
DWIDTH 9 0
BBX 9 15 1 0
BITMAP
1000
3000
7C00
3000
2000
2380
6600
6C00
5800
7000
5000
D800
CC00
8400
8600
ENDCHAR
STARTCHAR 04A0
ENCODING 1184
SWIDTH 617 0
DWIDTH 12 0
BBX 12 14 2 0
BITMAP
F830
F860
10C0
3180
3300
3600
2C00
3800
6C00
6600
6600
4300
4180
C180
ENDCHAR
STARTCHAR 04A1
ENCODING 1185
SWIDTH 514 0
DWIDTH 10 0
BBX 10 10 1 0
BITMAP
F8C0
1980
1300
1600
3C00
3C00
2600
2200
6300
6180
ENDCHAR
STARTCHAR 04A2
ENCODING 1186
SWIDTH 668 0
DWIDTH 13 0
BBX 12 18 1 -4
BITMAP
1010
3030
3030
3030
2020
2020
7FE0
6060
6060
4040
4040
C0C0
C0C0
C0E0
0060
0060
0040
0040
ENDCHAR
STARTCHAR 04A3
ENCODING 1187
SWIDTH 565 0
DWIDTH 11 0
BBX 10 14 1 -4
BITMAP
20C0
60C0
6080
6080
7F80
4180
C180
C100
8100
8380
0080
0180
0180
0100
ENDCHAR
STARTCHAR 04A4
ENCODING 1188
SWIDTH 720 0
DWIDTH 14 0
BBX 15 14 1 0
BITMAP
101E
303E
3030
3030
2020
2020
7FE0
6060
6040
4040
40C0
C0C0
C0C0
C080
ENDCHAR
STARTCHAR 04A5
ENCODING 1189
SWIDTH 668 0
DWIDTH 13 0
BBX 13 10 1 0
BITMAP
20F8
60C0
6080
6080
7F80
4180
C180
C100
8100
8300
ENDCHAR
STARTCHAR 04A6
ENCODING 1190
SWIDTH 977 0
DWIDTH 19 0
BBX 17 19 1 -5
BITMAP
1FF000
3FF000
303000
302000
202000
206000
607800
607E00
604300
40C100
40C180
C0C180
C08180
C08180
000100
000300
000600
00FC00
00F800
ENDCHAR
STARTCHAR 04A7
ENCODING 1191
SWIDTH 771 0
DWIDTH 15 0
BBX 14 15 1 -5
BITMAP
3FC0
6080
6080
6180
41F0
4198
C108
C30C
830C
830C
0008
0018
0018
01F0
01C0
ENDCHAR
STARTCHAR 04A8
ENCODING 1192
SWIDTH 720 0
DWIDTH 14 0
BBX 12 15 1 -1
BITMAP
07C0
1C00
3000
31F0
6130
6310
4210
C230
C630
C630
4660
6260
33C0
1FE0
00E0
ENDCHAR
STARTCHAR 04A9
ENCODING 1193
SWIDTH 565 0
DWIDTH 11 0
BBX 10 12 1 -1
BITMAP
0C00
3E00
6000
4780
C4C0
CCC0
CCC0
CC80
CD80
6F00
7F80
0100
ENDCHAR
STARTCHAR 04AA
ENCODING 1194
SWIDTH 565 0
DWIDTH 11 0
BBX 11 18 1 -4
BITMAP
07E0
0E60
1800
3000
6000
6000
4000
4000
C000
C000
4000
6000
7080
1F80
0400
0400
0400
1C00
ENDCHAR
STARTCHAR 04AB
ENCODING 1195
SWIDTH 411 0
DWIDTH 8 0
BBX 8 15 1 -4
BITMAP
0E
3F
60
60
C0
C0
C0
C0
C0
E0
7C
10
10
10
70
ENDCHAR
STARTCHAR 04AC
ENCODING 1196
SWIDTH 462 0
DWIDTH 9 0
BBX 9 18 2 -4
BITMAP
FF80
FF80
1800
1800
1800
1000
1000
3000
3000
3000
2000
2000
6000
7000
1000
3000
3000
2000
ENDCHAR
STARTCHAR 04AD
ENCODING 1197
SWIDTH 874 0
DWIDTH 17 0
BBX 15 15 1 -4
BITMAP
0608
2F3E
71C6
6186
6186
4104
4104
C30C
C30C
830C
820E
0006
0006
0004
0004
ENDCHAR
STARTCHAR 04AE
ENCODING 1198
SWIDTH 462 0
DWIDTH 9 0
BBX 9 14 2 0
BITMAP
8080
C180
C300
4200
4600
6C00
6800
3800
3000
3000
2000
2000
6000
6000
ENDCHAR
STARTCHAR 04AF
ENCODING 1199
SWIDTH 411 0
DWIDTH 8 0
BBX 8 15 1 -5
BITMAP
C1
C3
C2
C6
4C
4C
58
50
70
60
60
60
40
40
C0
ENDCHAR
STARTCHAR 04B0
ENCODING 1200
SWIDTH 462 0
DWIDTH 9 0
BBX 10 14 1 0
BITMAP
4040
60C0
6180
2100
2300
3600
3400
1C00
1800
FE00
FE00
3000
3000
3000
ENDCHAR
STARTCHAR 04B1
ENCODING 1201
SWIDTH 411 0
DWIDTH 8 0
BBX 9 15 0 -5
BITMAP
6080
6180
6100
6300
2600
2600
2C00
2800
3800
3000
FC00
3000
2000
2000
6000
ENDCHAR
STARTCHAR 04B2
ENCODING 1202
SWIDTH 565 0
DWIDTH 11 0
BBX 12 18 -1 -4
BITMAP
1810
0830
0C60
0CC0
0480
0700
0300
0700
0D00
1900
1180
3080
60C0
C0E0
0060
0060
0040
0040
ENDCHAR
STARTCHAR 04B3
ENCODING 1203
SWIDTH 514 0
DWIDTH 10 0
BBX 10 14 0 -4
BITMAP
30C0
1180
1B00
0E00
0C00
0C00
1600
3200
6300
C180
0180
0180
0100
0100
ENDCHAR
STARTCHAR 04B4
ENCODING 1204
SWIDTH 771 0
DWIDTH 15 0
BBX 13 18 2 -4
BITMAP
FF88
FF98
1818
1818
1810
1030
1030
3030
3020
3020
2060
2060
6060
7FF0
0030
0030
0020
0020
ENDCHAR
STARTCHAR 04B5
ENCODING 1205
SWIDTH 617 0
DWIDTH 12 0
BBX 11 14 1 -4
BITMAP
FE60
1060
3040
3040
30C0
20C0
20C0
2180
2280
3CE0
0040
0040
00C0
00C0
ENDCHAR
STARTCHAR 04B6
ENCODING 1206
SWIDTH 617 0
DWIDTH 12 0
BBX 10 18 2 -4
BITMAP
6040
6040
60C0
40C0
40C0
C080
C080
E380
7F80
0100
0100
0300
0300
0380
0180
0180
0180
0100
ENDCHAR
STARTCHAR 04B7
ENCODING 1207
SWIDTH 514 0
DWIDTH 10 0
BBX 8 14 2 -4
BITMAP
C3
83
83
86
8E
FE
06
06
04
0F
02
02
06
06
ENDCHAR
STARTCHAR 04B8
ENCODING 1208
SWIDTH 617 0
DWIDTH 12 0
BBX 10 14 2 0
BITMAP
6040
6040
60C0
40C0
4CC0
C880
C880
EB80
7F80
1900
1100
1300
0300
0300
ENDCHAR
STARTCHAR 04B9
ENCODING 1209
SWIDTH 514 0
DWIDTH 10 0
BBX 8 10 2 0
BITMAP
C3
83
93
96
9E
FE
26
26
24
0C
ENDCHAR
STARTCHAR 04BA
ENCODING 1210
SWIDTH 617 0
DWIDTH 12 0
BBX 10 14 1 0
BITMAP
1000
3000
3000
3000
2000
2F80
79C0
60C0
60C0
40C0
4080
C080
C180
C180
ENDCHAR
STARTCHAR 04BB
ENCODING 1211
SWIDTH 565 0
DWIDTH 11 0
BBX 9 15 1 0
BITMAP
1000
3000
3000
3000
2200
2F80
7180
6180
6180
4180
4180
C100
C300
8300
8300
ENDCHAR
STARTCHAR 04BC
ENCODING 1212
SWIDTH 720 0
DWIDTH 14 0
BBX 14 14 1 0
BITMAP
01F0
0718
0E0C
0C0C
D808
D838
FFF0
7F00
3000
3000
1000
1800
1C20
07E0
ENDCHAR
STARTCHAR 04BD
ENCODING 1213
SWIDTH 565 0
DWIDTH 11 0
BBX 10 11 1 0
BITMAP
0300
0FC0
18C0
90C0
B180
FF00
3000
3000
3000
3080
1F80
ENDCHAR
STARTCHAR 04BE
ENCODING 1214
SWIDTH 720 0
DWIDTH 14 0
BBX 14 18 1 -4
BITMAP
01F0
0718
0E0C
0C0C
D808
D838
FFF0
7F00
3000
3000
1000
1800
1C20
07E0
0300
0300
0200
0200
ENDCHAR
STARTCHAR 04BF
ENCODING 1215
SWIDTH 565 0
DWIDTH 11 0
BBX 10 15 1 -4
BITMAP
0300
0FC0
18C0
90C0
B180
FF00
3000
3000
3000
3080
1F80
0C00
0C00
0C00
0800
ENDCHAR
STARTCHAR 04C0
ENCODING 1216
SWIDTH 257 0
DWIDTH 5 0
BBX 4 14 1 0
BITMAP
10
30
30
30
20
20
60
60
60
40
40
C0
C0
80
ENDCHAR
STARTCHAR 04C1
ENCODING 1217
SWIDTH 771 0
DWIDTH 15 0
BBX 16 18 0 0
BITMAP
0108
0198
00E0
0000
3041
18C3
18C6
0CCC
0C98
06B0
07E0
07E0
0D60
1930
3330
6318
C318
820C
ENDCHAR
STARTCHAR 04C2
ENCODING 1218
SWIDTH 822 0
DWIDTH 16 0
BBX 16 15 0 0
BITMAP
0308
0118
01F0
0000
3003
78CF
0CCC
0C98
0C90
0FF0
0DB0
0930
1930
3118
E31E
ENDCHAR
STARTCHAR 04C3
ENCODING 1219
SWIDTH 617 0
DWIDTH 12 0
BBX 11 19 1 -5
BITMAP
1060
30C0
3180
3300
2600
2C00
7800
7F00
6380
4180
40C0
C0C0
C0C0
C080
0180
0180
0300
7E00
7C00
ENDCHAR
STARTCHAR 04C4
ENCODING 1220
SWIDTH 462 0
DWIDTH 9 0
BBX 9 15 1 -5
BITMAP
2380
6600
6C00
5800
7800
4E00
C200
C300
8300
8300
0200
0600
0600
7C00
7000
ENDCHAR
STARTCHAR 04C5
ENCODING 1221
SWIDTH 617 0
DWIDTH 12 0
BBX 14 18 -1 -4
BITMAP
01FC
03F8
0318
0318
0218
0610
0610
0430
0C30
0C30
0820
1820
3860
F070
0030
0020
0060
00C0
ENDCHAR
STARTCHAR 04C6
ENCODING 1222
SWIDTH 514 0
DWIDTH 10 0
BBX 11 14 -1 -3
BITMAP
03E0
0640
0C40
0CC0
08C0
18C0
1880
3080
3180
E1C0
00C0
0080
0180
0100
ENDCHAR
STARTCHAR 04C7
ENCODING 1223
SWIDTH 668 0
DWIDTH 13 0
BBX 12 19 1 -5
BITMAP
1010
3030
3030
3030
2020
2020
7FE0
6060
6040
4040
40C0
C0C0
C0C0
C080
0180
0180
0300
7E00
7C00
ENDCHAR
STARTCHAR 04C8
ENCODING 1224
SWIDTH 565 0
DWIDTH 11 0
BBX 10 15 1 -5
BITMAP
20C0
60C0
6080
6080
7F80
4180
C180
C100
8100
8300
0300
0200
0600
7C00
3800
ENDCHAR
STARTCHAR 04C9
ENCODING 1225
SWIDTH 668 0
DWIDTH 13 0
BBX 12 18 1 -4
BITMAP
1010
3030
3030
3030
2020
2020
7FE0
6060
6040
4040
40C0
C0C0
C0C0
C0E0
0040
00C0
00C0
0180
ENDCHAR
STARTCHAR 04CA
ENCODING 1226
SWIDTH 565 0
DWIDTH 11 0
BBX 10 14 1 -4
BITMAP
20C0
60C0
6080
6080
7F80
4180
C180
C100
8100
8380
0080
0100
0100
0300
ENDCHAR
STARTCHAR 04CB
ENCODING 1227
SWIDTH 617 0
DWIDTH 12 0
BBX 10 18 2 -4
BITMAP
6040
60C0
60C0
40C0
4080
C080
C180
E380
7F80
0100
0100
0300
0300
0F00
0C00
0800
0800
0800
ENDCHAR
STARTCHAR 04CC
ENCODING 1228
SWIDTH 565 0
DWIDTH 11 0
BBX 8 14 2 -4
BITMAP
C1
C1
C3
83
C6
FA
06
06
06
1C
18
18
10
10
ENDCHAR
STARTCHAR 04CD
ENCODING 1229
SWIDTH 822 0
DWIDTH 16 0
BBX 15 18 1 -4
BITMAP
1806
380E
380E
2816
2C34
2C24
6C6C
644C
44CC
4488
4588
C518
C618
861C
0008
0018
0018
0030
ENDCHAR
STARTCHAR 04CE
ENCODING 1230
SWIDTH 668 0
DWIDTH 13 0
BBX 12 14 1 -4
BITMAP
3070
7060
50A0
51A0
5160
DB60
DA40
8E40
8C40
88E0
0060
0040
00C0
0080
ENDCHAR
STARTCHAR 04CF
ENCODING 1231
SWIDTH 257 0
DWIDTH 5 0
BBX 4 14 1 0
BITMAP
10
30
30
30
20
20
60
60
60
40
40
C0
C0
80
ENDCHAR
STARTCHAR 04D0
ENCODING 1232
SWIDTH 514 0
DWIDTH 10 0
BBX 12 18 -1 0
BITMAP
0210
0370
01C0
0000
0180
0180
0380
02C0
06C0
04C0
0CC0
1840
1FC0
3FC0
3060
6060
4060
C060
ENDCHAR
STARTCHAR 04D1
ENCODING 1233
SWIDTH 514 0
DWIDTH 10 0
BBX 10 15 1 0
BITMAP
10C0
1080
1F80
0000
0C00
3E80
6180
6180
C180
C180
C100
C300
C300
CF00
7B00
ENDCHAR
STARTCHAR 04D2
ENCODING 1234
SWIDTH 514 0
DWIDTH 10 0
BBX 11 18 -1 0
BITMAP
0120
0320
0000
0000
0180
0180
0380
02C0
06C0
04C0
0CC0
1840
1FC0
3FC0
3060
6060
4060
C060
ENDCHAR
STARTCHAR 04D3
ENCODING 1235
SWIDTH 514 0
DWIDTH 10 0
BBX 9 14 1 0
BITMAP
0980
0900
0000
0C00
3E80
6180
6180
C180
C180
C100
C300
C300
CF00
7B00
ENDCHAR
STARTCHAR 04D4
ENCODING 1236
SWIDTH 771 0
DWIDTH 15 0
BBX 18 14 -1 0
BITMAP
00FFC0
00FF80
01B000
013000
032000
066000
047F00
0C6000
1FC000
1FC000
30C000
60C000
60C000
C0FE00
ENDCHAR
STARTCHAR 04D5
ENCODING 1237
SWIDTH 771 0
DWIDTH 15 0
BBX 15 11 1 0
BITMAP
0C18
3EFC
63C6
6184
C10C
C1F8
C300
C300
C700
CF88
72F8
ENDCHAR
STARTCHAR 04D6
ENCODING 1238
SWIDTH 514 0
DWIDTH 10 0
BBX 10 18 1 0
BITMAP
1840
0DC0
0700
0000
1FC0
3F80
3000
3000
2000
2000
7F00
6000
6000
4000
4000
C000
C000
FE00
ENDCHAR
STARTCHAR 04D7
ENCODING 1239
SWIDTH 462 0
DWIDTH 9 0
BBX 9 15 1 0
BITMAP
3080
3180
1F00
0000
0C00
3F00
6300
6300
C300
FC00
C000
C000
C000
E200
7E00
ENDCHAR
STARTCHAR 04D8
ENCODING 1240
SWIDTH 617 0
DWIDTH 12 0
BBX 11 14 1 0
BITMAP
1F80
31C0
0060
0060
0060
0060
01E0
3FE0
6060
C040
C0C0
C180
C700
7E00
ENDCHAR
STARTCHAR 04D9
ENCODING 1241
SWIDTH 462 0
DWIDTH 9 0
BBX 8 11 1 0
BITMAP
18
7E
02
03
03
1F
72
C6
86
8C
F8
ENDCHAR
STARTCHAR 04DA
ENCODING 1242
SWIDTH 617 0
DWIDTH 12 0
BBX 11 18 1 0
BITMAP
0440
04C0
0000
0000
1F80
31C0
0060
0060
0060
0060
01E0
3FE0
6060
C040
C0C0
C180
C700
7E00
ENDCHAR
STARTCHAR 04DB
ENCODING 1243
SWIDTH 462 0
DWIDTH 9 0
BBX 8 14 1 0
BITMAP
13
12
00
18
7E
02
03
03
1F
72
C6
86
8C
F8
ENDCHAR
STARTCHAR 04DC
ENCODING 1244
SWIDTH 771 0
DWIDTH 15 0
BBX 16 18 0 0
BITMAP
0090
0198
0000
0000
3041
18C3
18C6
0CCC
0C98
06B0
07E0
07E0
0D60
1930
3330
6318
C318
820C
ENDCHAR
STARTCHAR 04DD
ENCODING 1245
SWIDTH 822 0
DWIDTH 16 0
BBX 16 14 0 0
BITMAP
0190
0110
0000
3003
78CF
0CCC
0C98
0C90
0FF0
0DB0
0930
1930
3118
E31E
ENDCHAR
STARTCHAR 04DE
ENCODING 1246
SWIDTH 514 0
DWIDTH 10 0
BBX 10 17 0 0
BITMAP
0CC0
0000
0000
0F80
38C0
00C0
0040
00C0
0180
1F00
0700
0180
0080
0080
0180
8300
FE00
ENDCHAR
STARTCHAR 04DF
ENCODING 1247
SWIDTH 411 0
DWIDTH 8 0
BBX 8 14 0 0
BITMAP
19
11
00
0C
3F
03
03
02
1C
06
02
02
86
FC
ENDCHAR
STARTCHAR 04E0
ENCODING 1248
SWIDTH 514 0
DWIDTH 10 0
BBX 10 14 0 0
BITMAP
1FC0
1FC0
0180
0300
0600
0C00
1E00
0700
0180
0180
0180
0180
8300
FE00
ENDCHAR
STARTCHAR 04E1
ENCODING 1249
SWIDTH 411 0
DWIDTH 8 0
BBX 9 15 -1 -5
BITMAP
3F80
0180
0300
0600
0C00
1800
1E00
0300
0300
0100
0300
0300
0600
FC00
7000
ENDCHAR
STARTCHAR 04E2
ENCODING 1250
SWIDTH 668 0
DWIDTH 13 0
BBX 13 17 1 0
BITMAP
03E0
07C0
0000
1018
3030
3070
30F0
21B0
2130
6220
6620
4C60
5860
5040
F040
E040
C0C0
ENDCHAR
STARTCHAR 04E3
ENCODING 1251
SWIDTH 565 0
DWIDTH 11 0
BBX 9 13 1 0
BITMAP
1F80
0000
0000
6080
6080
6180
4180
4180
C100
C300
C300
CF00
7B00
ENDCHAR
STARTCHAR 04E4
ENCODING 1252
SWIDTH 668 0
DWIDTH 13 0
BBX 13 18 1 0
BITMAP
0240
0260
0000
0000
1018
3030
3070
30F0
21B0
2130
6220
6620
4C60
5860
5040
F040
E040
C0C0
ENDCHAR
STARTCHAR 04E5
ENCODING 1253
SWIDTH 565 0
DWIDTH 11 0
BBX 9 14 1 0
BITMAP
0980
0900
0000
0000
6080
6080
6180
4180
4180
C100
C300
C300
CF00
7B00
ENDCHAR
STARTCHAR 04E6
ENCODING 1254
SWIDTH 720 0
DWIDTH 14 0
BBX 12 18 1 0
BITMAP
0220
0260
0000
0000
07C0
1CE0
3030
3030
6010
6010
4010
C030
C030
C030
4060
6060
31C0
1F00
ENDCHAR
STARTCHAR 04E7
ENCODING 1255
SWIDTH 514 0
DWIDTH 10 0
BBX 9 14 1 0
BITMAP
1900
1900
0000
0C00
3F00
6180
4180
C180
C180
C180
C100
C300
6600
7C00
ENDCHAR
STARTCHAR 04E8
ENCODING 1256
SWIDTH 720 0
DWIDTH 14 0
BBX 12 14 1 0
BITMAP
07C0
1CE0
3030
3030
6010
6010
7FF0
FFF0
C030
C030
4060
6060
31C0
1F00
ENDCHAR
STARTCHAR 04E9
ENCODING 1257
SWIDTH 514 0
DWIDTH 10 0
BBX 9 11 1 0
BITMAP
0C00
3F00
6180
4180
C180
FF80
C180
C100
C300
6600
7C00
ENDCHAR
STARTCHAR 04EA
ENCODING 1258
SWIDTH 720 0
DWIDTH 14 0
BBX 12 17 1 0
BITMAP
0640
0000
0000
07C0
1CE0
3030
3030
6010
6010
7FF0
FFF0
C030
C030
4060
6060
31C0
1F00
ENDCHAR
STARTCHAR 04EB
ENCODING 1259
SWIDTH 514 0
DWIDTH 10 0
BBX 9 14 1 0
BITMAP
1900
1100
0000
0C00
3F00
6180
4180
C180
FF80
C180
C100
C300
6600
7C00
ENDCHAR
STARTCHAR 04EC
ENCODING 1260
SWIDTH 565 0
DWIDTH 11 0
BBX 11 17 0 0
BITMAP
0C80
0000
0000
1F00
11C0
00C0
0060
0060
0060
1FE0
0060
0040
00C0
00C0
0180
C700
FE00
ENDCHAR
STARTCHAR 04ED
ENCODING 1261
SWIDTH 411 0
DWIDTH 8 0
BBX 8 14 0 0
BITMAP
13
12
00
18
7E
03
03
03
3F
03
03
06
8C
F8
ENDCHAR
STARTCHAR 04EE
ENCODING 1262
SWIDTH 565 0
DWIDTH 11 0
BBX 13 17 0 0
BITMAP
07C0
07C0
0000
3018
3030
1020
1860
18C0
08C0
0980
0D00
0F00
0600
0400
0C00
1800
F000
ENDCHAR
STARTCHAR 04EF
ENCODING 1263
SWIDTH 411 0
DWIDTH 8 0
BBX 11 18 -2 -5
BITMAP
07C0
0000
0000
1820
1860
1840
08C0
0880
0980
0900
0B00
0E00
0C00
0C00
0800
1800
F000
E000
ENDCHAR
STARTCHAR 04F0
ENCODING 1264
SWIDTH 565 0
DWIDTH 11 0
BBX 13 18 0 0
BITMAP
0240
0640
0000
0000
3018
3030
1020
1860
18C0
08C0
0980
0D00
0F00
0600
0400
0C00
1800
F000
ENDCHAR
STARTCHAR 04F1
ENCODING 1265
SWIDTH 411 0
DWIDTH 8 0
BBX 11 19 -2 -5
BITMAP
0640
0440
0000
0000
1820
1860
1840
08C0
0880
0980
0900
0B00
0E00
0C00
0C00
0800
1800
F000
E000
ENDCHAR
STARTCHAR 04F2
ENCODING 1266
SWIDTH 565 0
DWIDTH 11 0
BBX 13 18 0 0
BITMAP
01B0
0360
0440
0000
3018
3030
1020
1860
18C0
08C0
0980
0D00
0F00
0600
0400
0C00
1800
F000
ENDCHAR
STARTCHAR 04F3
ENCODING 1267
SWIDTH 411 0
DWIDTH 8 0
BBX 12 20 -2 -5
BITMAP
01B0
0320
0240
0000
0000
1820
1860
1840
08C0
0880
0980
0900
0B00
0E00
0C00
0C00
0800
1800
F000
E000
ENDCHAR
STARTCHAR 04F4
ENCODING 1268
SWIDTH 617 0
DWIDTH 12 0
BBX 10 18 2 0
BITMAP
0880
0D80
0000
0000
6040
6040
60C0
40C0
40C0
C080
C080
E380
7F80
0100
0100
0300
0300
0300
ENDCHAR
STARTCHAR 04F5
ENCODING 1269
SWIDTH 514 0
DWIDTH 10 0
BBX 8 14 2 0
BITMAP
32
22
00
00
C3
83
83
86
8E
FE
06
06
04
0C
ENDCHAR
STARTCHAR 04F6
ENCODING 1270
SWIDTH 462 0
DWIDTH 9 0
BBX 10 18 1 -4
BITMAP
1FC0
3FC0
3000
3000
2000
2000
6000
6000
6000
4000
4000
C000
C000
E000
6000
6000
6000
4000
ENDCHAR
STARTCHAR 04F7
ENCODING 1271
SWIDTH 360 0
DWIDTH 7 0
BBX 7 14 1 -4
BITMAP
3E
60
60
60
40
40
C0
C0
80
E0
40
40
C0
C0
ENDCHAR
STARTCHAR 04F8
ENCODING 1272
SWIDTH 771 0
DWIDTH 15 0
BBX 14 18 1 0
BITMAP
0120
0330
0000
0000
1004
300C
300C
300C
2008
2008
7E18
6718
6198
4190
4190
C330
C730
FC20
ENDCHAR
STARTCHAR 04F9
ENCODING 1273
SWIDTH 668 0
DWIDTH 13 0
BBX 12 14 1 0
BITMAP
04C0
04C0
0000
0000
6010
6030
6030
4030
7E20
C620
C360
C260
C660
7C40
ENDCHAR
STARTCHAR 04FA
ENCODING 1274
SWIDTH 462 0
DWIDTH 9 0
BBX 11 18 0 -4
BITMAP
0FE0
1FC0
1800
1800
1000
1000
7E00
7E00
3000
2000
2000
6000
6000
7000
3000
2000
E000
C000
ENDCHAR
STARTCHAR 04FB
ENCODING 1275
SWIDTH 360 0
DWIDTH 7 0
BBX 8 14 0 -4
BITMAP
1F
30
30
30
FC
20
60
60
40
70
20
20
E0
C0
ENDCHAR
STARTCHAR 04FC
ENCODING 1276
SWIDTH 514 0
DWIDTH 10 0
BBX 12 18 -1 -4
BITMAP
1810
0830
0C60
0CC0
0480
0700
0300
0700
0D00
1900
1180
3080
60C0
C0E0
0060
0040
01C0
0180
ENDCHAR
STARTCHAR 04FD
ENCODING 1277
SWIDTH 462 0
DWIDTH 9 0
BBX 9 14 0 -4
BITMAP
3180
3300
1200
1E00
0C00
1C00
3400
6600
4200
C300
0100
0100
0700
0600
ENDCHAR
STARTCHAR 04FE
ENCODING 1278
SWIDTH 514 0
DWIDTH 10 0
BBX 12 14 -1 0
BITMAP
1810
0830
0C60
0CC0
0480
0700
1FE0
0700
0D00
1900
1180
3080
60C0
C0C0
ENDCHAR
STARTCHAR 04FF
ENCODING 1279
SWIDTH 462 0
DWIDTH 9 0
BBX 9 10 0 0
BITMAP
3180
3300
1200
1E00
7F00
1C00
3400
6600
4200
C300
ENDCHAR
STARTCHAR 0500
ENCODING 1280
SWIDTH 514 0
DWIDTH 10 0
BBX 10 14 1 0
BITMAP
00C0
00C0
00C0
0080
0080
0180
1F80
7180
C100
C300
C300
C300
E200
3E00
ENDCHAR
STARTCHAR 0501
ENCODING 1281
SWIDTH 565 0
DWIDTH 11 0
BBX 11 15 1 0
BITMAP
0060
0040
0040
00C0
0CC0
3E80
6180
6180
C180
C180
C100
C300
C300
CF00
7B00
ENDCHAR
STARTCHAR 0502
ENCODING 1282
SWIDTH 822 0
DWIDTH 16 0
BBX 14 14 1 0
BITMAP
00C0
00C0
00C0
0080
0080
0180
1F84
798C
C10C
C10C
C308
C318
C718
7DF0
ENDCHAR
STARTCHAR 0503
ENCODING 1283
SWIDTH 822 0
DWIDTH 16 0
BBX 14 15 1 0
BITMAP
0060
0040
0040
00C0
0CC0
3E80
6180
6180
C184
C18C
C10C
C30C
C308
C598
78F0
ENDCHAR
STARTCHAR 0504
ENCODING 1284
SWIDTH 822 0
DWIDTH 16 0
BBX 13 14 2 0
BITMAP
3E00
E300
0300
0300
0300
0600
7C08
1C18
0618
0618
0610
0630
0630
03E0
ENDCHAR
STARTCHAR 0505
ENCODING 1285
SWIDTH 720 0
DWIDTH 14 0
BBX 11 11 2 0
BITMAP
3000
F800
0C00
0C00
1820
F060
1860
0860
0840
08C0
0F80
ENDCHAR
STARTCHAR 0506
ENCODING 1286
SWIDTH 565 0
DWIDTH 11 0
BBX 8 18 2 -4
BITMAP
3E
E3
03
03
03
06
7C
1C
06
06
06
06
04
07
03
02
02
06
ENDCHAR
STARTCHAR 0507
ENCODING 1287
SWIDTH 462 0
DWIDTH 9 0
BBX 6 15 2 -4
BITMAP
30
F8
0C
0C
08
F0
18
08
18
18
1C
0C
0C
08
08
ENDCHAR
STARTCHAR 0508
ENCODING 1288
SWIDTH 874 0
DWIDTH 17 0
BBX 17 14 -1 0
BITMAP
01F800
01F800
031800
031800
021000
061000
063080
043080
0C3180
0C2180
086180
186100
303300
F03E00
ENDCHAR
STARTCHAR 0509
ENCODING 1289
SWIDTH 771 0
DWIDTH 15 0
BBX 15 10 -1 1
BITMAP
03E0
0640
0C40
0CC2
08C2
18C6
1886
3084
30CC
E078
ENDCHAR
STARTCHAR 050A
ENCODING 1290
SWIDTH 925 0
DWIDTH 18 0
BBX 16 14 1 0
BITMAP
1010
3030
3030
3030
2020
2020
7FE1
6061
6043
4043
40C3
C0C2
C066
C07C
ENDCHAR
STARTCHAR 050B
ENCODING 1291
SWIDTH 822 0
DWIDTH 16 0
BBX 14 10 1 0
BITMAP
20C0
60C0
6080
6084
7F84
418C
C18C
C10C
8198
80F0
ENDCHAR
STARTCHAR 050C
ENCODING 1292
SWIDTH 668 0
DWIDTH 13 0
BBX 12 14 1 0
BITMAP
07E0
1E70
3800
3000
6000
6000
4000
C1F0
C030
C020
4060
6060
31C0
1F80
ENDCHAR
STARTCHAR 050D
ENCODING 1293
SWIDTH 565 0
DWIDTH 11 0
BBX 9 11 1 0
BITMAP
0600
3F80
6000
4000
C000
C000
C780
C180
C180
6300
3E00
ENDCHAR
STARTCHAR 050E
ENCODING 1294
SWIDTH 617 0
DWIDTH 12 0
BBX 10 14 2 0
BITMAP
FF80
FF80
1800
1800
1800
1000
10C0
3080
3080
3180
2180
2180
3300
1E00
ENDCHAR
STARTCHAR 050F
ENCODING 1295
SWIDTH 565 0
DWIDTH 11 0
BBX 9 10 1 0
BITMAP
FE00
1000
3000
3080
3180
2180
2180
2100
3300
3E00
ENDCHAR
STARTCHAR 0510
ENCODING 1296
SWIDTH 514 0
DWIDTH 10 0
BBX 10 14 1 0
BITMAP
0F80
18C0
3000
3000
3000
3000
0F00
3C00
6000
C000
C000
C000
6100
3F00
ENDCHAR
STARTCHAR 0511
ENCODING 1297
SWIDTH 411 0
DWIDTH 8 0
BBX 8 11 1 0
BITMAP
0C
3F
60
40
60
38
C0
80
80
C4
7C
ENDCHAR
STARTCHAR 0512
ENCODING 1298
SWIDTH 617 0
DWIDTH 12 0
BBX 14 18 -1 -4
BITMAP
01FC
03F8
0308
0318
0218
0618
0610
0410
0C30
0C30
0820
1820
3060
F070
0010
0010
0070
0060
ENDCHAR
STARTCHAR 0513
ENCODING 1299
SWIDTH 514 0
DWIDTH 10 0
BBX 11 14 -1 -3
BITMAP
03E0
0640
0C40
0CC0
08C0
18C0
1880
3080
3180
E1C0
0040
00C0
0180
0180
ENDCHAR
STARTCHAR 05B0
ENCODING 1456
SWIDTH 0 0
DWIDTH 0 0
BBX 2 4 -3 -5
BITMAP
40
00
40
80
ENDCHAR
STARTCHAR 05B1
ENCODING 1457
SWIDTH 0 0
DWIDTH 0 0
BBX 7 4 1 -5
BITMAP
96
00
44
44
ENDCHAR
STARTCHAR 05B2
ENCODING 1458
SWIDTH 0 0
DWIDTH 0 0
BBX 5 4 2 -5
BITMAP
E8
00
08
10
ENDCHAR
STARTCHAR 05B3
ENCODING 1459
SWIDTH 0 0
DWIDTH 0 0
BBX 5 4 -4 -5
BITMAP
E8
40
08
08
ENDCHAR
STARTCHAR 05B4
ENCODING 1460
SWIDTH 0 0
DWIDTH 0 0
BBX 1 1 -2 -2
BITMAP
80
ENDCHAR
STARTCHAR 05B5
ENCODING 1461
SWIDTH 0 0
DWIDTH 0 0
BBX 4 1 2 -2
BITMAP
90
ENDCHAR
STARTCHAR 05B6
ENCODING 1462
SWIDTH 0 0
DWIDTH 0 0
BBX 4 4 -3 -5
BITMAP
B0
00
40
80
ENDCHAR
STARTCHAR 05B7
ENCODING 1463
SWIDTH 0 0
DWIDTH 0 0
BBX 3 1 -3 -2
BITMAP
E0
ENDCHAR
STARTCHAR 05B8
ENCODING 1464
SWIDTH 0 0
DWIDTH 0 0
BBX 3 3 -3 -4
BITMAP
E0
40
40
ENDCHAR
STARTCHAR 05B9
ENCODING 1465
SWIDTH 0 0
DWIDTH 0 0
BBX 1 1 1 12
BITMAP
80
ENDCHAR
STARTCHAR 05BA
ENCODING 1466
SWIDTH 0 0
DWIDTH 0 0
BBX 1 1 1 12
BITMAP
80
ENDCHAR
STARTCHAR 05BB
ENCODING 1467
SWIDTH 0 0
DWIDTH 0 0
BBX 4 4 -4 -5
BITMAP
C0
20
20
10
ENDCHAR
STARTCHAR 05BC
ENCODING 1468
SWIDTH 0 0
DWIDTH 0 0
BBX 2 1 -1 5
BITMAP
C0
ENDCHAR
STARTCHAR 05BD
ENCODING 1469
SWIDTH 0 0
DWIDTH 0 0
BBX 1 3 -2 -4
BITMAP
80
80
80
ENDCHAR
STARTCHAR 05BE
ENCODING 1470
SWIDTH 462 0
DWIDTH 9 0
BBX 4 1 3 11
BITMAP
F0
ENDCHAR
STARTCHAR 05C1
ENCODING 1473
SWIDTH 0 0
DWIDTH 0 0
BBX 1 1 1 12
BITMAP
80
ENDCHAR
STARTCHAR 05C2
ENCODING 1474
SWIDTH 0 0
DWIDTH 0 0
BBX 1 1 1 12
BITMAP
80
ENDCHAR
STARTCHAR 05C7
ENCODING 1479
SWIDTH 0 0
DWIDTH 0 0
BBX 2 2 -2 -3
BITMAP
C0
80
ENDCHAR
STARTCHAR 05D0
ENCODING 1488
SWIDTH 565 0
DWIDTH 11 0
BBX 11 12 0 0
BITMAP
1020
1860
1860
0C60
3C40
64C0
4780
4700
C300
C300
C100
8180
ENDCHAR
STARTCHAR 05D1
ENCODING 1489
SWIDTH 514 0
DWIDTH 10 0
BBX 9 12 0 0
BITMAP
3F80
0180
0080
0180
0180
0180
0100
0100
0300
0300
0200
FF80
ENDCHAR
STARTCHAR 05D2
ENCODING 1490
SWIDTH 360 0
DWIDTH 7 0
BBX 8 12 -1 0
BITMAP
0F
01
01
03
03
03
02
02
06
0E
1E
F4
ENDCHAR
STARTCHAR 05D3
ENCODING 1491
SWIDTH 462 0
DWIDTH 9 0
BBX 9 12 2 0
BITMAP
FF80
0600
0400
0C00
0C00
0C00
0800
1800
1800
1800
1000
1000
ENDCHAR
STARTCHAR 05D4
ENCODING 1492
SWIDTH 565 0
DWIDTH 11 0
BBX 11 12 0 0
BITMAP
1FE0
0060
0060
0060
2060
2060
6040
60C0
60C0
40C0
C080
C080
ENDCHAR
STARTCHAR 05D5
ENCODING 1493
SWIDTH 205 0
DWIDTH 4 0
BBX 4 12 0 0
BITMAP
10
30
30
30
20
20
60
60
60
40
C0
C0
ENDCHAR
STARTCHAR 05D6
ENCODING 1494
SWIDTH 257 0
DWIDTH 5 0
BBX 5 12 1 0
BITMAP
78
18
30
20
60
60
60
40
40
C0
C0
C0
ENDCHAR
STARTCHAR 05D7
ENCODING 1495
SWIDTH 565 0
DWIDTH 11 0
BBX 11 12 0 0
BITMAP
1FE0
3060
3060
3060
2060
2060
6040
60C0
40C0
40C0
C080
C080
ENDCHAR
STARTCHAR 05D8
ENCODING 1496
SWIDTH 565 0
DWIDTH 11 0
BBX 10 12 1 0
BITMAP
2380
60C0
6040
6040
4040
40C0
C0C0
C0C0
C180
C180
6300
7E00
ENDCHAR
STARTCHAR 05D9
ENCODING 1497
SWIDTH 205 0
DWIDTH 4 0
BBX 3 8 1 4
BITMAP
20
60
60
40
40
C0
C0
80
ENDCHAR
STARTCHAR 05DA
ENCODING 1498
SWIDTH 462 0
DWIDTH 9 0
BBX 7 17 2 -5
BITMAP
FC
0C
04
06
04
04
0C
0C
0C
08
08
18
18
18
10
10
30
ENDCHAR
STARTCHAR 05DB
ENCODING 1499
SWIDTH 462 0
DWIDTH 9 0
BBX 10 12 -1 0
BITMAP
1F80
0180
00C0
00C0
00C0
0080
0080
0180
0180
0300
0600
FC00
ENDCHAR
STARTCHAR 05DC
ENCODING 1500
SWIDTH 462 0
DWIDTH 9 0
BBX 8 15 2 0
BITMAP
C0
C0
C0
FF
03
02
06
04
0C
08
18
10
30
20
60
ENDCHAR
STARTCHAR 05DD
ENCODING 1501
SWIDTH 565 0
DWIDTH 11 0
BBX 11 12 0 0
BITMAP
1FE0
3060
3060
3060
2060
2060
6040
60C0
60C0
40C0
C080
FF80
ENDCHAR
STARTCHAR 05DE
ENCODING 1502
SWIDTH 565 0
DWIDTH 11 0
BBX 11 12 0 0
BITMAP
17C0
1860
1060
3060
2060
2040
6040
60C0
40C0
C0C0
C080
8780
ENDCHAR
STARTCHAR 05DF
ENCODING 1503
SWIDTH 205 0
DWIDTH 4 0
BBX 5 17 -1 -5
BITMAP
18
18
18
10
10
30
30
30
20
20
60
60
60
40
C0
C0
C0
ENDCHAR
STARTCHAR 05E0
ENCODING 1504
SWIDTH 411 0
DWIDTH 8 0
BBX 7 12 0 0
BITMAP
1E
02
02
02
06
06
06
04
0C
0C
0C
F8
ENDCHAR
STARTCHAR 05E1
ENCODING 1505
SWIDTH 565 0
DWIDTH 11 0
BBX 10 12 1 0
BITMAP
7F80
3180
60C0
40C0
C0C0
C0C0
8080
8180
8180
8300
C600
7C00
ENDCHAR
STARTCHAR 05E2
ENCODING 1506
SWIDTH 565 0
DWIDTH 11 0
BBX 12 12 0 -1
BITMAP
1010
1030
1820
1820
1860
1840
18C0
1880
1980
1B00
1E00
F800
ENDCHAR
STARTCHAR 05E3
ENCODING 1507
SWIDTH 565 0
DWIDTH 11 0
BBX 9 17 1 -5
BITMAP
1F00
6180
4080
C080
C080
C080
E180
6180
0180
0100
0100
0300
0300
0300
0200
0600
0600
ENDCHAR
STARTCHAR 05E4
ENCODING 1508
SWIDTH 565 0
DWIDTH 11 0
BBX 10 12 1 0
BITMAP
1F80
6180
40C0
C0C0
C0C0
C080
6080
3180
0100
0300
0600
FC00
ENDCHAR
STARTCHAR 05E5
ENCODING 1509
SWIDTH 462 0
DWIDTH 9 0
BBX 9 17 1 -5
BITMAP
4180
4100
6100
6300
6300
6600
3C00
7000
6000
6000
4000
4000
C000
C000
C000
8000
8000
ENDCHAR
STARTCHAR 05E6
ENCODING 1510
SWIDTH 514 0
DWIDTH 10 0
BBX 12 12 -1 0
BITMAP
1830
0820
0C20
0C60
0640
06C0
0380
0300
0100
0180
0080
FF80
ENDCHAR
STARTCHAR 05E7
ENCODING 1511
SWIDTH 565 0
DWIDTH 11 0
BBX 13 17 -1 -5
BITMAP
0FF8
0018
0030
0030
0060
1060
30C0
3080
3180
2180
2100
6300
6000
6000
4000
C000
C000
ENDCHAR
STARTCHAR 05E8
ENCODING 1512
SWIDTH 462 0
DWIDTH 9 0
BBX 7 12 2 0
BITMAP
FC
06
06
06
06
04
04
0C
0C
08
08
18
ENDCHAR
STARTCHAR 05E9
ENCODING 1513
SWIDTH 720 0
DWIDTH 14 0
BBX 13 12 1 0
BITMAP
6108
6318
4218
4210
4610
4C30
D820
F060
C0C0
C180
8700
FC00
ENDCHAR
STARTCHAR 05EA
ENCODING 1514
SWIDTH 617 0
DWIDTH 12 0
BBX 13 12 -1 0
BITMAP
0FF0
0418
0C18
0C10
0C10
0830
0830
1830
1820
1820
3060
E060
ENDCHAR
STARTCHAR 1E00
ENCODING 7680
SWIDTH 514 0
DWIDTH 10 0
BBX 11 19 -1 -5
BITMAP
0180
0180
0380
02C0
06C0
04C0
0CC0
1840
1FC0
3FC0
3060
6060
4060
C060
0000
0C00
1200
1200
1E00
ENDCHAR
STARTCHAR 1E01
ENCODING 7681
SWIDTH 514 0
DWIDTH 10 0
BBX 9 16 1 -5
BITMAP
0C00
3E80
6180
6180
C180
C180
C100
C300
C300
CF00
7B00
0000
3800
4800
4800
3800
ENDCHAR
STARTCHAR 1E3E
ENCODING 7742
SWIDTH 822 0
DWIDTH 16 0
BBX 15 18 1 0
BITMAP
0030
0060
0080
0000
1806
380E
380E
2816
2C34
2C24
6C6C
644C
44CC
4488
4588
C518
C618
8618
ENDCHAR
STARTCHAR 1E3F
ENCODING 7743
SWIDTH 822 0
DWIDTH 16 0
BBX 15 15 1 0
BITMAP
0030
0060
0040
0000
0608
2F3E
71C6
6186
6186
4104
4104
C30C
C30C
830C
8208
ENDCHAR
STARTCHAR 1E80
ENCODING 7808
SWIDTH 822 0
DWIDTH 16 0
BBX 16 18 2 0
BITMAP
0100
0180
0080
0000
C183
C183
C386
C286
C684
C48C
CC88
C898
D890
50B0
50B0
70A0
60E0
60C0
ENDCHAR
STARTCHAR 1E81
ENCODING 7809
SWIDTH 668 0
DWIDTH 13 0
BBX 13 15 1 0
BITMAP
0600
0200
0100
0000
0000
C308
C518
C510
C930
C920
D960
D140
F1C0
E180
6180
ENDCHAR
STARTCHAR 1E82
ENCODING 7810
SWIDTH 822 0
DWIDTH 16 0
BBX 16 18 2 0
BITMAP
0060
00C0
0180
0000
C183
C183
C386
C286
C684
C48C
CC88
C898
D890
50B0
50B0
70A0
60E0
60C0
ENDCHAR
STARTCHAR 1E83
ENCODING 7811
SWIDTH 668 0
DWIDTH 13 0
BBX 13 15 1 0
BITMAP
00C0
0180
0100
0000
0000
C308
C518
C510
C930
C920
D960
D140
F1C0
E180
6180
ENDCHAR
STARTCHAR 1E84
ENCODING 7812
SWIDTH 822 0
DWIDTH 16 0
BBX 16 18 2 0
BITMAP
0020
0320
0000
0000
C183
C183
C386
C286
C684
C48C
CC88
C898
D890
50B0
50B0
70A0
60E0
60C0
ENDCHAR
STARTCHAR 1E85
ENCODING 7813
SWIDTH 668 0
DWIDTH 13 0
BBX 13 14 1 0
BITMAP
04C0
04C0
0000
0000
C308
C518
C510
C930
C920
D960
D140
F1C0
E180
6180
ENDCHAR
STARTCHAR 1E9E
ENCODING 7838
SWIDTH 668 0
DWIDTH 13 0
BBX 11 14 1 0
BITMAP
0F80
1CE0
3060
3060
20C0
6180
6380
60C0
4060
4060
C060
C060
D0C0
9F80
ENDCHAR
STARTCHAR 1EA0
ENCODING 7840
SWIDTH 514 0
DWIDTH 10 0
BBX 11 17 -1 -3
BITMAP
0180
0180
0380
02C0
06C0
04C0
0CC0
1840
1FC0
3FC0
3060
6060
4060
C060
0000
0C00
0C00
ENDCHAR
STARTCHAR 1EA1
ENCODING 7841
SWIDTH 514 0
DWIDTH 10 0
BBX 9 14 1 -3
BITMAP
0C00
3E80
6180
6180
C180
C180
C100
C300
C300
CF00
7B00
0000
3000
3000
ENDCHAR
STARTCHAR 1EA2
ENCODING 7842
SWIDTH 514 0
DWIDTH 10 0
BBX 11 19 -1 0
BITMAP
00E0
0020
0060
0080
0000
0180
0180
0380
02C0
06C0
04C0
0CC0
1840
1FC0
3FC0
3060
6060
4060
C060
ENDCHAR
STARTCHAR 1EA3
ENCODING 7843
SWIDTH 514 0
DWIDTH 10 0
BBX 9 16 1 0
BITMAP
0700
0100
0100
0600
0400
0C00
3E80
6180
6180
C180
C180
C100
C300
C300
CF00
7B00
ENDCHAR
STARTCHAR 1EA4
ENCODING 7844
SWIDTH 514 0
DWIDTH 10 0
BBX 14 19 -1 0
BITMAP
000C
00D0
0140
0220
0000
0180
0180
0380
02C0
06C0
04C0
0CC0
1840
1FC0
3FC0
3060
6060
4060
C060
ENDCHAR
STARTCHAR 1EA5
ENCODING 7845
SWIDTH 514 0
DWIDTH 10 0
BBX 11 16 1 0
BITMAP
0020
0040
0600
1900
0000
0C00
3E80
6180
6180
C180
C180
C100
C300
C300
CF00
7B00
ENDCHAR
STARTCHAR 1EA6
ENCODING 7846
SWIDTH 514 0
DWIDTH 10 0
BBX 11 19 -1 0
BITMAP
0400
06C0
0140
0220
0000
0180
0180
0380
02C0
06C0
04C0
0CC0
1840
1FC0
3FC0
3060
6060
4060
C060
ENDCHAR
STARTCHAR 1EA7
ENCODING 7847
SWIDTH 514 0
DWIDTH 10 0
BBX 9 16 1 0
BITMAP
2000
3000
0700
1900
0000
0C00
3E80
6180
6180
C180
C180
C100
C300
C300
CF00
7B00
ENDCHAR
STARTCHAR 1EA8
ENCODING 7848
SWIDTH 514 0
DWIDTH 10 0
BBX 13 20 -1 0
BITMAP
0018
0008
00D0
0140
0220
0000
0180
0180
0380
02C0
06C0
04C0
0CC0
1840
1FC0
3FC0
3060
6060
4060
C060
ENDCHAR
STARTCHAR 1EA9
ENCODING 7849
SWIDTH 514 0
DWIDTH 10 0
BBX 11 17 1 0
BITMAP
00C0
0020
00C0
0700
1900
0000
0C00
3E80
6180
6180
C180
C180
C100
C300
C300
CF00
7B00
ENDCHAR
STARTCHAR 1EAA
ENCODING 7850
SWIDTH 514 0
DWIDTH 10 0
BBX 13 21 -1 0
BITMAP
0188
03F0
0000
00C0
0160
0220
0000
0180
0180
0380
02C0
06C0
04C0
0CC0
1840
1FC0
3FC0
3060
6060
4060
C060
ENDCHAR
STARTCHAR 1EAB
ENCODING 7851
SWIDTH 514 0
DWIDTH 10 0
BBX 10 17 1 0
BITMAP
0E40
1180
0000
0700
1900
0000
0C00
3E80
6180
6180
C180
C180
C100
C300
C300
CF00
7B00
ENDCHAR
STARTCHAR 1EAC
ENCODING 7852
SWIDTH 514 0
DWIDTH 10 0
BBX 11 21 -1 -3
BITMAP
00C0
0160
0620
0000
0180
0180
0380
02C0
06C0
04C0
0CC0
1840
1FC0
3FC0
3060
6060
4060
C060
0000
0C00
0C00
ENDCHAR
STARTCHAR 1EAD
ENCODING 7853
SWIDTH 514 0
DWIDTH 10 0
BBX 9 18 1 -3
BITMAP
0600
0F00
1900
0000
0C00
3E80
6180
6180
C180
C180
C100
C300
C300
CF00
7B00
0000
3000
3000
ENDCHAR
STARTCHAR 1EAE
ENCODING 7854
SWIDTH 514 0
DWIDTH 10 0
BBX 12 20 -1 0
BITMAP
0020
0040
0210
03E0
01C0
0000
0180
0180
0380
02C0
06C0
04C0
0CC0
1840
1FC0
3FC0
3060
6060
4060
C060
ENDCHAR
STARTCHAR 1EAF
ENCODING 7855
SWIDTH 514 0
DWIDTH 10 0
BBX 9 16 1 0
BITMAP
0100
0200
1980
0F00
0000
0C00
3E80
6180
6180
C180
C180
C100
C300
C300
CF00
7B00
ENDCHAR
STARTCHAR 1EB0
ENCODING 7856
SWIDTH 514 0
DWIDTH 10 0
BBX 12 20 -1 0
BITMAP
0100
0080
0230
03E0
01C0
0000
0180
0180
0380
02C0
06C0
04C0
0CC0
1840
1FC0
3FC0
3060
6060
4060
C060
ENDCHAR
STARTCHAR 1EB1
ENCODING 7857
SWIDTH 514 0
DWIDTH 10 0
BBX 9 16 1 0
BITMAP
0400
0200
1980
0F00
0000
0C00
3E80
6180
6180
C180
C180
C100
C300
C300
CF00
7B00
ENDCHAR
STARTCHAR 1EB2
ENCODING 7858
SWIDTH 514 0
DWIDTH 10 0
BBX 12 21 -1 0
BITMAP
0080
0060
00C0
0230
03E0
01C0
0000
0180
0180
0380
02C0
06C0
04C0
0CC0
1840
1FC0
3FC0
3060
6060
4060
C060
ENDCHAR
STARTCHAR 1EB3
ENCODING 7859
SWIDTH 514 0
DWIDTH 10 0
BBX 9 17 1 0
BITMAP
0700
0100
0200
1980
0F00
0000
0C00
3E80
6180
6180
C180
C180
C100
C300
C300
CF00
7B00
ENDCHAR
STARTCHAR 1EB4
ENCODING 7860
SWIDTH 514 0
DWIDTH 10 0
BBX 13 21 -1 0
BITMAP
0188
03F0
0000
0210
03E0
01C0
0000
0180
0180
0380
02C0
06C0
04C0
0CC0
1840
1FC0
3FC0
3060
6060
4060
C060
ENDCHAR
STARTCHAR 1EB5
ENCODING 7861
SWIDTH 514 0
DWIDTH 10 0
BBX 10 17 1 0
BITMAP
0E40
1380
0000
1980
0F00
0000
0C00
3E80
6180
6180
C180
C180
C100
C300
C300
CF00
7B00
ENDCHAR
STARTCHAR 1EB6
ENCODING 7862
SWIDTH 514 0
DWIDTH 10 0
BBX 12 21 -1 -3
BITMAP
0210
03E0
01C0
0000
0180
0180
0380
02C0
06C0
04C0
0CC0
1840
1FC0
3FC0
3060
6060
4060
C060
0000
0C00
0C00
ENDCHAR
STARTCHAR 1EB7
ENCODING 7863
SWIDTH 514 0
DWIDTH 10 0
BBX 9 17 1 -3
BITMAP
0980
0F00
0000
0C00
3E80
6180
6180
C180
C180
C100
C300
C300
CF00
7B00
0000
3000
3000
ENDCHAR
STARTCHAR 1EB8
ENCODING 7864
SWIDTH 514 0
DWIDTH 10 0
BBX 10 17 1 -3
BITMAP
1FC0
3F80
3000
3000
2000
2000
7F00
6000
6000
4000
4000
C000
C000
FE00
0000
1000
3000
ENDCHAR
STARTCHAR 1EB9
ENCODING 7865
SWIDTH 462 0
DWIDTH 9 0
BBX 8 14 1 -3
BITMAP
0C
3F
63
63
C3
FC
C0
C0
C0
E2
7E
00
30
30
ENDCHAR
STARTCHAR 1EBA
ENCODING 7866
SWIDTH 514 0
DWIDTH 10 0
BBX 10 19 1 0
BITMAP
0780
0080
0300
0200
0000
1FC0
3F80
3000
3000
2000
2000
7F00
6000
6000
4000
4000
C000
C000
FE00
ENDCHAR
STARTCHAR 1EBB
ENCODING 7867
SWIDTH 462 0
DWIDTH 9 0
BBX 8 16 1 0
BITMAP
0E
03
03
04
04
0C
3F
63
63
C3
FC
C0
C0
C0
E2
7E
ENDCHAR
STARTCHAR 1EBC
ENCODING 7868
SWIDTH 514 0
DWIDTH 10 0
BBX 10 18 1 0
BITMAP
0440
0FC0
1180
0000
1FC0
3F80
3000
3000
2000
2000
7F00
6000
6000
4000
4000
C000
C000
FE00
ENDCHAR
STARTCHAR 1EBD
ENCODING 7869
SWIDTH 462 0
DWIDTH 9 0
BBX 9 14 1 0
BITMAP
1C80
2700
0000
0C00
3F00
6300
6300
C300
FC00
C000
C000
C000
E200
7E00
ENDCHAR
STARTCHAR 1EBE
ENCODING 7870
SWIDTH 514 0
DWIDTH 10 0
BBX 12 19 1 0
BITMAP
0030
0340
0500
0880
0000
1FC0
3F80
3000
3000
2000
2000
7F00
6000
6000
4000
4000
C000
C000
FE00
ENDCHAR
STARTCHAR 1EBF
ENCODING 7871
SWIDTH 462 0
DWIDTH 9 0
BBX 11 16 1 0
BITMAP
0060
00C0
0E00
1300
0000
0C00
3F00
6300
6300
C300
FC00
C000
C000
C000
E200
7E00
ENDCHAR
STARTCHAR 1EC0
ENCODING 7872
SWIDTH 514 0
DWIDTH 10 0
BBX 10 19 1 0
BITMAP
1000
1300
0500
0880
0000
1FC0
3F80
3000
3000
2000
2000
7F00
6000
6000
4000
4000
C000
C000
FE00
ENDCHAR
STARTCHAR 1EC1
ENCODING 7873
SWIDTH 462 0
DWIDTH 9 0
BBX 8 16 1 0
BITMAP
40
20
0E
13
00
0C
3F
63
63
C3
FC
C0
C0
C0
E2
7E
ENDCHAR
STARTCHAR 1EC2
ENCODING 7874
SWIDTH 514 0
DWIDTH 10 0
BBX 11 20 1 0
BITMAP
0060
0020
0340
0500
0880
0000
1FC0
3F80
3000
3000
2000
2000
7F00
6000
6000
4000
4000
C000
C000
FE00
ENDCHAR
STARTCHAR 1EC3
ENCODING 7875
SWIDTH 462 0
DWIDTH 9 0
BBX 10 17 1 0
BITMAP
00C0
0040
00C0
0E00
1300
0000
0C00
3F00
6300
6300
C300
FC00
C000
C000
C000
E200
7E00
ENDCHAR
STARTCHAR 1EC4
ENCODING 7876
SWIDTH 514 0
DWIDTH 10 0
BBX 11 21 1 0
BITMAP
0620
0FC0
0000
0300
0500
0880
0000
1FC0
3F80
3000
3000
2000
2000
7F00
6000
6000
4000
4000
C000
C000
FE00
ENDCHAR
STARTCHAR 1EC5
ENCODING 7877
SWIDTH 462 0
DWIDTH 9 0
BBX 9 17 1 0
BITMAP
1E80
1380
0000
0E00
1300
0000
0C00
3F00
6300
6300
C300
FC00
C000
C000
C000
E200
7E00
ENDCHAR
STARTCHAR 1EC6
ENCODING 7878
SWIDTH 514 0
DWIDTH 10 0
BBX 10 21 1 -3
BITMAP
0700
0D80
1880
0000
1FC0
3F80
3000
3000
2000
2000
7F00
6000
6000
4000
4000
C000
C000
FE00
0000
1000
3000
ENDCHAR
STARTCHAR 1EC7
ENCODING 7879
SWIDTH 462 0
DWIDTH 9 0
BBX 8 18 1 -3
BITMAP
06
0A
13
00
0C
3F
63
63
C3
FC
C0
C0
C0
E2
7E
00
30
30
ENDCHAR
STARTCHAR 1EC8
ENCODING 7880
SWIDTH 257 0
DWIDTH 5 0
BBX 6 19 1 0
BITMAP
1C
04
0C
10
00
10
30
30
30
20
20
60
60
60
40
40
C0
C0
80
ENDCHAR
STARTCHAR 1EC9
ENCODING 7881
SWIDTH 205 0
DWIDTH 4 0
BBX 5 16 1 0
BITMAP
38
08
08
30
20
00
20
60
60
60
40
40
C0
C0
80
80
ENDCHAR
STARTCHAR 1ECA
ENCODING 7882
SWIDTH 257 0
DWIDTH 5 0
BBX 5 17 0 -3
BITMAP
08
18
18
18
10
10
30
30
30
20
20
60
60
40
00
40
C0
ENDCHAR
STARTCHAR 1ECB
ENCODING 7883
SWIDTH 205 0
DWIDTH 4 0
BBX 5 17 0 -3
BITMAP
18
18
00
00
10
30
30
30
20
20
60
60
40
40
00
C0
C0
ENDCHAR
STARTCHAR 1ECC
ENCODING 7884
SWIDTH 720 0
DWIDTH 14 0
BBX 12 17 1 -3
BITMAP
07C0
1CE0
3030
3030
6010
6010
4010
C030
C030
C030
4060
6060
31C0
1F00
0000
0C00
0C00
ENDCHAR
STARTCHAR 1ECD
ENCODING 7885
SWIDTH 514 0
DWIDTH 10 0
BBX 9 14 1 -3
BITMAP
0C00
3F00
6180
4180
C180
C180
C180
C100
C300
6600
7C00
0000
1000
3000
ENDCHAR
STARTCHAR 1ECE
ENCODING 7886
SWIDTH 720 0
DWIDTH 14 0
BBX 12 19 1 0
BITMAP
01C0
0060
00C0
0100
0000
07C0
1CE0
3030
3030
6010
6010
4010
C030
C030
C030
4060
6060
31C0
1F00
ENDCHAR
STARTCHAR 1ECF
ENCODING 7887
SWIDTH 514 0
DWIDTH 10 0
BBX 9 16 1 0
BITMAP
0700
0100
0300
0400
0400
0C00
3F00
6180
4180
C180
C180
C180
C100
C300
6600
7C00
ENDCHAR
STARTCHAR 1ED0
ENCODING 7888
SWIDTH 720 0
DWIDTH 14 0
BBX 13 19 1 0
BITMAP
0018
01B0
0340
0420
0000
07C0
1CE0
3030
3030
6010
6010
4010
C030
C030
C030
4060
6060
31C0
1F00
ENDCHAR
STARTCHAR 1ED1
ENCODING 7889
SWIDTH 514 0
DWIDTH 10 0
BBX 11 16 1 0
BITMAP
0060
00C0
0E00
1900
0000
0C00
3F00
6180
4180
C180
C180
C180
C100
C300
6600
7C00
ENDCHAR
STARTCHAR 1ED2
ENCODING 7890
SWIDTH 720 0
DWIDTH 14 0
BBX 12 19 1 0
BITMAP
0800
0580
0340
0420
0000
07C0
1CE0
3030
3030
6010
6010
4010
C030
C030
C030
4060
6060
31C0
1F00
ENDCHAR
STARTCHAR 1ED3
ENCODING 7891
SWIDTH 514 0
DWIDTH 10 0
BBX 9 16 1 0
BITMAP
6000
2000
0E00
1900
0000
0C00
3F00
6180
4180
C180
C180
C180
C100
C300
6600
7C00
ENDCHAR
STARTCHAR 1ED4
ENCODING 7892
SWIDTH 720 0
DWIDTH 14 0
BBX 13 20 1 0
BITMAP
0038
0008
0190
0340
0420
0000
07C0
1CE0
3030
3030
6010
6010
4010
C030
C030
C030
4060
6060
31C0
1F00
ENDCHAR
STARTCHAR 1ED5
ENCODING 7893
SWIDTH 514 0
DWIDTH 10 0
BBX 10 17 1 0
BITMAP
00C0
0040
00C0
0E00
1900
0000
0C00
3F00
6180
4180
C180
C180
C180
C100
C300
6600
7C00
ENDCHAR
STARTCHAR 1ED6
ENCODING 7894
SWIDTH 720 0
DWIDTH 14 0
BBX 12 21 1 0
BITMAP
0110
02F0
0000
0180
0340
0420
0000
07C0
1CE0
3030
3030
6010
6010
4010
C030
C030
C030
4060
6060
31C0
1F00
ENDCHAR
STARTCHAR 1ED7
ENCODING 7895
SWIDTH 514 0
DWIDTH 10 0
BBX 9 17 1 0
BITMAP
0E80
1380
0000
0E00
1900
0000
0C00
3F00
6180
4180
C180
C180
C180
C100
C300
6600
7C00
ENDCHAR
STARTCHAR 1ED8
ENCODING 7896
SWIDTH 720 0
DWIDTH 14 0
BBX 12 21 1 -3
BITMAP
01C0
0340
0420
0000
07C0
1CE0
3030
3030
6010
6010
4010
C030
C030
C030
4060
6060
31C0
1F00
0000
0C00
0C00
ENDCHAR
STARTCHAR 1ED9
ENCODING 7897
SWIDTH 514 0
DWIDTH 10 0
BBX 9 18 1 -3
BITMAP
0600
0E00
1900
0000
0C00
3F00
6180
4180
C180
C180
C180
C100
C300
6600
7C00
0000
1000
3000
ENDCHAR
STARTCHAR 1EDA
ENCODING 7898
SWIDTH 668 0
DWIDTH 13 0
BBX 15 18 1 0
BITMAP
00C0
0080
0100
0006
07C6
1CEC
3038
3030
6010
6010
4010
C030
C030
C030
4060
6060
31C0
1F00
ENDCHAR
STARTCHAR 1EDB
ENCODING 7899
SWIDTH 565 0
DWIDTH 11 0
BBX 12 15 1 0
BITMAP
0100
0300
0400
0030
0C20
3F60
6180
4180
C180
C180
C180
C100
C300
6600
7C00
ENDCHAR
STARTCHAR 1EDC
ENCODING 7900
SWIDTH 668 0
DWIDTH 13 0
BBX 15 18 1 0
BITMAP
0300
0100
0080
0006
07C6
1CEC
3038
3030
6010
6010
4010
C030
C030
C030
4060
6060
31C0
1F00
ENDCHAR
STARTCHAR 1EDD
ENCODING 7901
SWIDTH 565 0
DWIDTH 11 0
BBX 12 15 1 0
BITMAP
0800
0C00
0400
0030
0C20
3F60
6180
4180
C180
C180
C180
C100
C300
6600
7C00
ENDCHAR
STARTCHAR 1EDE
ENCODING 7902
SWIDTH 668 0
DWIDTH 13 0
BBX 15 19 1 0
BITMAP
01C0
0060
00C0
0100
0006
07C6
1CEC
3038
3030
6010
6010
4010
C030
C030
C030
4060
6060
31C0
1F00
ENDCHAR
STARTCHAR 1EDF
ENCODING 7903
SWIDTH 565 0
DWIDTH 11 0
BBX 12 16 1 0
BITMAP
0700
0100
0300
0400
0430
0C20
3F60
6180
4180
C180
C180
C180
C100
C300
6600
7C00
ENDCHAR
STARTCHAR 1EE0
ENCODING 7904
SWIDTH 668 0
DWIDTH 13 0
BBX 15 18 1 0
BITMAP
0320
07E0
04C0
0006
07C6
1CEC
3038
3030
6010
6010
4010
C030
C030
C030
4060
6060
31C0
1F00
ENDCHAR
STARTCHAR 1EE1
ENCODING 7905
SWIDTH 565 0
DWIDTH 11 0
BBX 12 14 1 0
BITMAP
1C80
1780
0030
0C20
3F60
6180
4180
C180
C180
C180
C100
C300
6600
7C00
ENDCHAR
STARTCHAR 1EE2
ENCODING 7906
SWIDTH 668 0
DWIDTH 13 0
BBX 15 18 1 -3
BITMAP
0006
07C6
1CEC
3038
3030
6010
6010
4010
C030
C030
C030
4060
6060
31C0
1F00
0000
0800
0800
ENDCHAR
STARTCHAR 1EE3
ENCODING 7907
SWIDTH 565 0
DWIDTH 11 0
BBX 12 15 1 -3
BITMAP
0030
0C20
3F60
6180
4180
C180
C180
C180
C100
C300
6600
7C00
0000
3000
3000
ENDCHAR
STARTCHAR 1EE4
ENCODING 7908
SWIDTH 668 0
DWIDTH 13 0
BBX 11 17 2 -3
BITMAP
6020
6060
6060
4060
4040
C040
C0C0
C0C0
80C0
8080
8180
8180
C300
7E00
0000
1000
3000
ENDCHAR
STARTCHAR 1EE5
ENCODING 7909
SWIDTH 565 0
DWIDTH 11 0
BBX 9 13 1 -3
BITMAP
6080
6080
6180
4180
4180
C100
C300
C300
CF00
7B00
0000
3000
3000
ENDCHAR
STARTCHAR 1EE6
ENCODING 7910
SWIDTH 668 0
DWIDTH 13 0
BBX 11 19 2 0
BITMAP
0380
0080
0180
0200
0000
6020
6060
6060
4060
4040
C040
C0C0
C0C0
80C0
8080
8180
8180
C300
7E00
ENDCHAR
STARTCHAR 1EE7
ENCODING 7911
SWIDTH 565 0
DWIDTH 11 0
BBX 9 16 1 0
BITMAP
0700
0100
0100
0600
0400
0000
6080
6080
6180
4180
4180
C100
C300
C300
CF00
7B00
ENDCHAR
STARTCHAR 1EE8
ENCODING 7912
SWIDTH 720 0
DWIDTH 14 0
BBX 15 18 2 0
BITMAP
0180
0100
0200
0006
6024
606C
6078
4060
4040
C040
C0C0
C0C0
80C0
8080
8180
8180
C300
7E00
ENDCHAR
STARTCHAR 1EE9
ENCODING 7913
SWIDTH 617 0
DWIDTH 12 0
BBX 13 15 1 0
BITMAP
0180
0300
0600
0018
0018
60B0
60E0
6180
4180
4180
C100
C300
C300
CF00
7B00
ENDCHAR
STARTCHAR 1EEA
ENCODING 7914
SWIDTH 720 0
DWIDTH 14 0
BBX 15 18 2 0
BITMAP
0600
0200
0100
0006
6024
606C
6078
4060
4040
C040
C0C0
C0C0
80C0
8080
8180
8180
C300
7E00
ENDCHAR
STARTCHAR 1EEB
ENCODING 7915
SWIDTH 617 0
DWIDTH 12 0
BBX 13 15 1 0
BITMAP
0C00
0400
0600
0018
0018
60B0
60E0
6180
4180
4180
C100
C300
C300
CF00
7B00
ENDCHAR
STARTCHAR 1EEC
ENCODING 7916
SWIDTH 720 0
DWIDTH 14 0
BBX 15 19 2 0
BITMAP
0380
0080
0180
0200
0006
6024
606C
6078
4060
4040
C040
C0C0
C0C0
80C0
8080
8180
8180
C300
7E00
ENDCHAR
STARTCHAR 1EED
ENCODING 7917
SWIDTH 617 0
DWIDTH 12 0
BBX 13 16 1 0
BITMAP
0700
0100
0100
0600
0418
0018
60B0
60E0
6180
4180
4180
C100
C300
C300
CF00
7B00
ENDCHAR
STARTCHAR 1EEE
ENCODING 7918
SWIDTH 720 0
DWIDTH 14 0
BBX 15 18 2 0
BITMAP
0440
0FC0
1180
0006
6024
606C
6078
4060
4040
C040
C0C0
C0C0
80C0
8080
8180
8180
C300
7E00
ENDCHAR
STARTCHAR 1EEF
ENCODING 7919
SWIDTH 617 0
DWIDTH 12 0
BBX 13 14 1 0
BITMAP
1E80
1380
0018
0018
60B0
60E0
6180
4180
4180
C100
C300
C300
CF00
7B00
ENDCHAR
STARTCHAR 1EF0
ENCODING 7920
SWIDTH 720 0
DWIDTH 14 0
BBX 15 18 2 -3
BITMAP
0006
6024
606C
6078
4060
4040
C040
C0C0
C0C0
80C0
8080
8180
8180
C300
7E00
0000
1000
3000
ENDCHAR
STARTCHAR 1EF1
ENCODING 7921
SWIDTH 617 0
DWIDTH 12 0
BBX 13 15 1 -3
BITMAP
0018
0018
60B0
60E0
6180
4180
4180
C100
C300
C300
CF00
7B00
0000
1000
3000
ENDCHAR
STARTCHAR 1EF2
ENCODING 7922
SWIDTH 462 0
DWIDTH 9 0
BBX 9 18 2 0
BITMAP
1800
0C00
0400
0000
8080
C180
C300
4200
4600
6C00
6800
3800
3000
3000
2000
2000
6000
6000
ENDCHAR
STARTCHAR 1EF3
ENCODING 7923
SWIDTH 411 0
DWIDTH 8 0
BBX 11 20 -2 -5
BITMAP
0200
0300
0100
0000
0000
1820
1860
1840
08C0
0880
0980
0900
0B00
0E00
0C00
0C00
0800
1800
F000
E000
ENDCHAR
STARTCHAR 1EF4
ENCODING 7924
SWIDTH 462 0
DWIDTH 9 0
BBX 9 17 2 -3
BITMAP
8080
C180
C300
4200
4600
6C00
6800
3800
3000
3000
2000
2000
6000
6000
0000
4000
C000
ENDCHAR
STARTCHAR 1EF5
ENCODING 7925
SWIDTH 411 0
DWIDTH 8 0
BBX 11 15 -2 -5
BITMAP
1820
1860
1840
08C0
0880
0980
0900
0B00
0E00
0C00
0C00
0900
1B00
F000
E000
ENDCHAR
STARTCHAR 1EF6
ENCODING 7926
SWIDTH 462 0
DWIDTH 9 0
BBX 9 19 2 0
BITMAP
0E00
0200
0600
0800
0000
8080
C180
C300
4200
4600
6C00
6800
3800
3000
3000
2000
2000
6000
6000
ENDCHAR
STARTCHAR 1EF7
ENCODING 7927
SWIDTH 411 0
DWIDTH 8 0
BBX 11 21 -2 -5
BITMAP
0180
0040
00C0
0100
0100
0000
1820
1860
1840
08C0
0880
0980
0900
0B00
0E00
0C00
0C00
0800
1800
F000
E000
ENDCHAR
STARTCHAR 1EF8
ENCODING 7928
SWIDTH 462 0
DWIDTH 9 0
BBX 9 18 2 0
BITMAP
1880
3F00
2200
0000
8080
C180
C300
4200
4600
6C00
6800
3800
3000
3000
2000
2000
6000
6000
ENDCHAR
STARTCHAR 1EF9
ENCODING 7929
SWIDTH 411 0
DWIDTH 8 0
BBX 11 19 -2 -5
BITMAP
0720
0DC0
0000
0000
1820
1860
1840
08C0
0880
0980
0900
0B00
0E00
0C00
0C00
0800
1800
F000
E000
ENDCHAR
STARTCHAR 1F4D
ENCODING 8013
SWIDTH 874 0
DWIDTH 17 0
BBX 15 14 2 0
BITMAP
D1F8
B39C
A60C
0C06
0C06
1806
1806
1806
1806
180C
180C
1818
0E30
07E0
ENDCHAR
STARTCHAR 1FDE
ENCODING 8158
SWIDTH 514 0
DWIDTH 10 0
BBX 5 3 5 12
BITMAP
D8
B0
A0
ENDCHAR
STARTCHAR 2000
ENCODING 8192
SWIDTH 462 0
DWIDTH 9 0
BBX 0 0 0 0
BITMAP
ENDCHAR
STARTCHAR 2001
ENCODING 8193
SWIDTH 977 0
DWIDTH 19 0
BBX 0 0 0 0
BITMAP
ENDCHAR
STARTCHAR 2002
ENCODING 8194
SWIDTH 462 0
DWIDTH 9 0
BBX 0 0 0 0
BITMAP
ENDCHAR
STARTCHAR 2003
ENCODING 8195
SWIDTH 977 0
DWIDTH 19 0
BBX 0 0 0 0
BITMAP
ENDCHAR
STARTCHAR 2004
ENCODING 8196
SWIDTH 308 0
DWIDTH 6 0
BBX 0 0 0 0
BITMAP
ENDCHAR
STARTCHAR 2005
ENCODING 8197
SWIDTH 205 0
DWIDTH 4 0
BBX 0 0 0 0
BITMAP
ENDCHAR
STARTCHAR 2006
ENCODING 8198
SWIDTH 154 0
DWIDTH 3 0
BBX 0 0 0 0
BITMAP
ENDCHAR
STARTCHAR 2007
ENCODING 8199
SWIDTH 514 0
DWIDTH 10 0
BBX 0 0 0 0
BITMAP
ENDCHAR
STARTCHAR 2008
ENCODING 8200
SWIDTH 205 0
DWIDTH 4 0
BBX 0 0 0 0
BITMAP
ENDCHAR
STARTCHAR 2009
ENCODING 8201
SWIDTH 154 0
DWIDTH 3 0
BBX 0 0 0 0
BITMAP
ENDCHAR
STARTCHAR 200A
ENCODING 8202
SWIDTH 51 0
DWIDTH 1 0
BBX 0 0 0 0
BITMAP
ENDCHAR
STARTCHAR 200B
ENCODING 8203
SWIDTH 0 0
DWIDTH 0 0
BBX 0 0 0 0
BITMAP
ENDCHAR
STARTCHAR 2013
ENCODING 8211
SWIDTH 462 0
DWIDTH 9 0
BBX 8 2 1 4
BITMAP
FF
FE
ENDCHAR
STARTCHAR 2014
ENCODING 8212
SWIDTH 925 0
DWIDTH 18 0
BBX 17 2 1 4
BITMAP
FFFF80
FFFF80
ENDCHAR
STARTCHAR 2015
ENCODING 8213
SWIDTH 925 0
DWIDTH 18 0
BBX 17 2 1 4
BITMAP
FFFF80
FFFF80
ENDCHAR
STARTCHAR 2017
ENCODING 8215
SWIDTH 360 0
DWIDTH 7 0
BBX 8 3 -2 -4
BITMAP
7F
00
FF
ENDCHAR
STARTCHAR 2018
ENCODING 8216
SWIDTH 154 0
DWIDTH 3 0
BBX 4 5 1 9
BITMAP
30
20
60
40
C0
ENDCHAR
STARTCHAR 2019
ENCODING 8217
SWIDTH 154 0
DWIDTH 3 0
BBX 4 5 1 9
BITMAP
30
20
60
40
C0
ENDCHAR
STARTCHAR 201A
ENCODING 8218
SWIDTH 205 0
DWIDTH 4 0
BBX 4 5 -1 -3
BITMAP
30
60
40
40
80
ENDCHAR
STARTCHAR 201B
ENCODING 8219
SWIDTH 154 0
DWIDTH 3 0
BBX 2 5 2 9
BITMAP
C0
C0
C0
40
40
ENDCHAR
STARTCHAR 201C
ENCODING 8220
SWIDTH 308 0
DWIDTH 6 0
BBX 7 5 1 9
BITMAP
32
26
64
4C
CC
ENDCHAR
STARTCHAR 201D
ENCODING 8221
SWIDTH 308 0
DWIDTH 6 0
BBX 7 5 1 9
BITMAP
36
26
64
4C
C8
ENDCHAR
STARTCHAR 201E
ENCODING 8222
SWIDTH 411 0
DWIDTH 8 0
BBX 7 5 -1 -3
BITMAP
36
64
4C
48
98
ENDCHAR
STARTCHAR 2020
ENCODING 8224
SWIDTH 462 0
DWIDTH 9 0
BBX 7 15 2 0
BITMAP
08
18
18
10
FE
10
10
30
20
20
20
60
60
60
40
ENDCHAR
STARTCHAR 2021
ENCODING 8225
SWIDTH 462 0
DWIDTH 9 0
BBX 8 15 1 0
BITMAP
04
04
0C
08
7F
08
08
18
18
10
FE
96
30
20
20
ENDCHAR
STARTCHAR 2022
ENCODING 8226
SWIDTH 360 0
DWIDTH 7 0
BBX 4 4 2 5
BITMAP
F0
F0
F0
F0
ENDCHAR
STARTCHAR 2026
ENCODING 8230
SWIDTH 720 0
DWIDTH 14 0
BBX 13 2 0 0
BITMAP
6338
E630
ENDCHAR
STARTCHAR 2030
ENCODING 8240
SWIDTH 1080 0
DWIDTH 21 0
BBX 19 14 2 0
BITMAP
383000
486000
C84000
888000
898000
892080
9AF3E0
F59A20
6D1E20
091660
111460
211440
6126C0
41E380
ENDCHAR
STARTCHAR 2032
ENCODING 8242
SWIDTH 205 0
DWIDTH 4 0
BBX 3 5 2 9
BITMAP
20
60
40
80
80
ENDCHAR
STARTCHAR 2033
ENCODING 8243
SWIDTH 360 0
DWIDTH 7 0
BBX 7 5 2 9
BITMAP
26
6C
48
98
90
ENDCHAR
STARTCHAR 2039
ENCODING 8249
SWIDTH 257 0
DWIDTH 5 0
BBX 4 8 1 1
BITMAP
10
20
60
C0
C0
40
60
20
ENDCHAR
STARTCHAR 203A
ENCODING 8250
SWIDTH 257 0
DWIDTH 5 0
BBX 3 7 1 1
BITMAP
C0
40
60
20
60
40
80
ENDCHAR
STARTCHAR 203C
ENCODING 8252
SWIDTH 462 0
DWIDTH 9 0
BBX 10 14 0 0
BITMAP
18C0
1880
1980
1180
3180
3100
3100
2300
2300
2200
0000
0000
6600
C600
ENDCHAR
STARTCHAR 2044
ENCODING 8260
SWIDTH 102 0
DWIDTH 2 0
BBX 11 14 -4 0
BITMAP
0060
0040
0080
0180
0300
0200
0400
0C00
1800
1000
2000
6000
C000
8000
ENDCHAR
STARTCHAR 2070
ENCODING 8304
SWIDTH 308 0
DWIDTH 6 0
BBX 6 9 2 8
BITMAP
10
6C
44
C4
8C
8C
88
98
70
ENDCHAR
STARTCHAR 2074
ENCODING 8308
SWIDTH 308 0
DWIDTH 6 0
BBX 5 8 2 8
BITMAP
18
18
28
58
90
F8
10
10
ENDCHAR
STARTCHAR 2075
ENCODING 8309
SWIDTH 308 0
DWIDTH 6 0
BBX 6 8 2 8
BITMAP
7C
40
40
78
08
08
18
F0
ENDCHAR
STARTCHAR 2076
ENCODING 8310
SWIDTH 308 0
DWIDTH 6 0
BBX 6 9 2 8
BITMAP
08
3C
40
40
F8
88
88
88
70
ENDCHAR
STARTCHAR 2077
ENCODING 8311
SWIDTH 308 0
DWIDTH 6 0
BBX 6 8 2 8
BITMAP
7C
08
08
10
30
20
40
C0
ENDCHAR
STARTCHAR 2078
ENCODING 8312
SWIDTH 308 0
DWIDTH 6 0
BBX 6 9 2 8
BITMAP
10
6C
44
48
30
D8
88
88
F0
ENDCHAR
STARTCHAR 2079
ENCODING 8313
SWIDTH 308 0
DWIDTH 6 0
BBX 6 9 2 8
BITMAP
10
78
4C
CC
CC
78
08
10
E0
ENDCHAR
STARTCHAR 207A
ENCODING 8314
SWIDTH 308 0
DWIDTH 6 0
BBX 6 5 1 6
BITMAP
10
10
FC
10
10
ENDCHAR
STARTCHAR 207C
ENCODING 8316
SWIDTH 308 0
DWIDTH 6 0
BBX 5 3 2 7
BITMAP
F8
00
F8
ENDCHAR
STARTCHAR 207D
ENCODING 8317
SWIDTH 154 0
DWIDTH 3 0
BBX 4 11 1 4
BITMAP
10
20
60
40
40
C0
C0
C0
C0
40
40
ENDCHAR
STARTCHAR 207E
ENCODING 8318
SWIDTH 154 0
DWIDTH 3 0
BBX 4 11 0 4
BITMAP
30
10
10
10
10
10
10
30
20
40
80
ENDCHAR
STARTCHAR 207F
ENCODING 8319
SWIDTH 360 0
DWIDTH 7 0
BBX 6 6 2 6
BITMAP
78
C4
8C
88
88
88
ENDCHAR
STARTCHAR 2080
ENCODING 8320
SWIDTH 308 0
DWIDTH 6 0
BBX 6 9 0 -3
BITMAP
38
48
CC
8C
88
88
88
F0
60
ENDCHAR
STARTCHAR 2081
ENCODING 8321
SWIDTH 308 0
DWIDTH 6 0
BBX 4 9 1 -3
BITMAP
30
E0
A0
20
60
40
40
40
40
ENDCHAR
STARTCHAR 2082
ENCODING 8322
SWIDTH 308 0
DWIDTH 6 0
BBX 6 9 -1 -3
BITMAP
3C
24
04
04
08
10
60
FC
F8
ENDCHAR
STARTCHAR 2083
ENCODING 8323
SWIDTH 308 0
DWIDTH 6 0
BBX 6 9 -1 -3
BITMAP
3C
04
04
0C
38
0C
0C
D8
70
ENDCHAR
STARTCHAR 2084
ENCODING 8324
SWIDTH 308 0
DWIDTH 6 0
BBX 6 9 -1 -3
BITMAP
04
0C
14
3C
68
48
FC
08
18
ENDCHAR
STARTCHAR 2085
ENCODING 8325
SWIDTH 308 0
DWIDTH 6 0
BBX 6 9 -1 -3
BITMAP
3C
20
20
78
0C
04
0C
D8
70
ENDCHAR
STARTCHAR 2086
ENCODING 8326
SWIDTH 308 0
DWIDTH 6 0
BBX 6 9 0 -3
BITMAP
3C
60
40
B0
C8
88
88
D8
60
ENDCHAR
STARTCHAR 2087
ENCODING 8327
SWIDTH 308 0
DWIDTH 6 0
BBX 6 9 0 -3
BITMAP
7C
0C
08
10
30
20
60
40
80
ENDCHAR
STARTCHAR 2088
ENCODING 8328
SWIDTH 308 0
DWIDTH 6 0
BBX 6 9 0 -3
BITMAP
38
4C
4C
78
70
98
88
98
60
ENDCHAR
STARTCHAR 2089
ENCODING 8329
SWIDTH 308 0
DWIDTH 6 0
BBX 5 9 0 -3
BITMAP
38
48
88
88
D8
28
18
30
C0
ENDCHAR
STARTCHAR 208A
ENCODING 8330
SWIDTH 308 0
DWIDTH 6 0
BBX 5 5 0 -2
BITMAP
20
20
F8
20
20
ENDCHAR
STARTCHAR 208C
ENCODING 8332
SWIDTH 308 0
DWIDTH 6 0
BBX 5 3 0 -1
BITMAP
F8
00
F8
ENDCHAR
STARTCHAR 208D
ENCODING 8333
SWIDTH 154 0
DWIDTH 3 0
BBX 3 10 0 -4
BITMAP
20
40
40
80
80
80
80
80
80
80
ENDCHAR
STARTCHAR 208E
ENCODING 8334
SWIDTH 154 0
DWIDTH 3 0
BBX 4 10 -1 -4
BITMAP
20
20
30
30
30
20
20
60
40
80
ENDCHAR
STARTCHAR 2095
ENCODING 8341
SWIDTH 411 0
DWIDTH 8 0
BBX 6 9 0 -2
BITMAP
20
20
20
5C
64
44
44
84
88
ENDCHAR
STARTCHAR 2096
ENCODING 8342
SWIDTH 308 0
DWIDTH 6 0
BBX 6 9 0 -2
BITMAP
20
20
20
4C
50
70
50
98
88
ENDCHAR
STARTCHAR 2097
ENCODING 8343
SWIDTH 205 0
DWIDTH 4 0
BBX 3 9 0 -2
BITMAP
20
20
20
40
40
40
40
80
80
ENDCHAR
STARTCHAR 2098
ENCODING 8344
SWIDTH 617 0
DWIDTH 12 0
BBX 10 6 0 -2
BITMAP
5FC0
6440
4440
4440
8880
8880
ENDCHAR
STARTCHAR 2099
ENCODING 8345
SWIDTH 360 0
DWIDTH 7 0
BBX 7 6 -1 -1
BITMAP
3E
66
44
44
44
84
ENDCHAR
STARTCHAR 209A
ENCODING 8346
SWIDTH 360 0
DWIDTH 7 0
BBX 7 9 -1 -5
BITMAP
3C
62
42
44
44
B8
80
80
80
ENDCHAR
STARTCHAR 209B
ENCODING 8347
SWIDTH 257 0
DWIDTH 5 0
BBX 4 6 0 -2
BITMAP
F0
80
60
10
10
E0
ENDCHAR
STARTCHAR 209C
ENCODING 8348
SWIDTH 205 0
DWIDTH 4 0
BBX 3 8 0 -2
BITMAP
40
40
E0
80
80
80
80
C0
ENDCHAR
STARTCHAR 20A3
ENCODING 8355
SWIDTH 514 0
DWIDTH 10 0
BBX 10 14 1 0
BITMAP
1FC0
1FC0
1800
1000
1000
3000
3000
3F00
2000
6000
FC00
6000
4000
4000
ENDCHAR
STARTCHAR 20A4
ENCODING 8356
SWIDTH 514 0
DWIDTH 10 0
BBX 11 14 0 0
BITMAP
03E0
0660
0C00
0800
0800
1800
7F00
1800
7F00
7F00
3000
2000
4000
FF80
ENDCHAR
STARTCHAR 20A7
ENCODING 8359
SWIDTH 720 0
DWIDTH 14 0
BBX 13 14 1 0
BITMAP
3E00
3F00
3100
2100
2120
6320
63F8
7E60
7040
C040
C0C0
C0C0
80C0
80F0
ENDCHAR
STARTCHAR 20AA
ENCODING 8362
SWIDTH 771 0
DWIDTH 15 0
BBX 14 14 1 0
BITMAP
3F04
31C4
20CC
204C
24C8
64C8
6488
4C98
4C98
4990
C810
C830
9860
9FC0
ENDCHAR
STARTCHAR 20AB
ENCODING 8363
SWIDTH 565 0
DWIDTH 11 0
BBX 13 18 0 -3
BITMAP
0030
0020
03F8
0060
0660
1F40
30C0
30C0
60C0
60C0
6080
6180
6180
6380
3D80
0000
0000
FF00
ENDCHAR
STARTCHAR 20AC
ENCODING 8364
SWIDTH 514 0
DWIDTH 10 0
BBX 10 14 1 0
BITMAP
07C0
0E40
1800
1000
3000
FF00
2000
6000
FC00
6000
6000
2000
3100
1F00
ENDCHAR
STARTCHAR 2105
ENCODING 8453
SWIDTH 771 0
DWIDTH 15 0
BBX 12 14 2 0
BITMAP
3C20
6060
4040
4080
4100
7B00
0200
0400
09E0
1B20
1230
2220
4220
C1C0
ENDCHAR
STARTCHAR 2113
ENCODING 8467
SWIDTH 514 0
DWIDTH 10 0
BBX 8 14 1 0
BITMAP
1C
32
22
22
22
24
2C
30
E0
20
20
21
32
1E
ENDCHAR
STARTCHAR 2116
ENCODING 8470
SWIDTH 925 0
DWIDTH 18 0
BBX 17 14 1 0
BITMAP
302000
382000
382000
286000
2C6000
6C4700
644980
445880
46D180
42D900
C28F00
C38000
838000
819E00
ENDCHAR
STARTCHAR 2120
ENCODING 8480
SWIDTH 771 0
DWIDTH 15 0
BBX 13 7 1 7
BITMAP
7318
8318
8398
72A8
1AA8
0A68
F248
ENDCHAR
STARTCHAR 2122
ENCODING 8482
SWIDTH 720 0
DWIDTH 14 0
BBX 13 7 0 7
BITMAP
FB08
2318
2298
2298
22A8
2268
2248
ENDCHAR
STARTCHAR 2126
ENCODING 8486
SWIDTH 720 0
DWIDTH 14 0
BBX 14 14 0 0
BITMAP
03E0
0E30
1818
3008
300C
200C
2008
2008
2018
2010
3030
1060
1980
F9F8
ENDCHAR
STARTCHAR 212E
ENCODING 8494
SWIDTH 617 0
DWIDTH 12 0
BBX 10 10 1 0
BITMAP
3F00
4080
40C0
C0C0
FFC0
C000
C000
4000
6080
3F00
ENDCHAR
STARTCHAR 215B
ENCODING 8539
SWIDTH 771 0
DWIDTH 15 0
BBX 13 14 2 0
BITMAP
3020
7040
30C0
2180
2100
2200
26F0
6C98
0890
1060
31B0
6110
4110
81E0
ENDCHAR
STARTCHAR 215C
ENCODING 8540
SWIDTH 822 0
DWIDTH 16 0
BBX 14 14 1 0
BITMAP
3C08
0410
0430
0860
3840
0880
09BC
DB64
6224
0438
0C68
18C4
10CC
2078
ENDCHAR
STARTCHAR 215D
ENCODING 8541
SWIDTH 822 0
DWIDTH 16 0
BBX 15 14 1 0
BITMAP
3C08
2010
2030
7060
0840
0C80
0DBC
DB26
6224
0438
0C68
18C4
10CC
2078
ENDCHAR
STARTCHAR 215E
ENCODING 8542
SWIDTH 771 0
DWIDTH 15 0
BBX 12 14 2 0
BITMAP
7C60
0840
1880
1180
3300
2200
44F0
CD90
1990
10E0
21A0
6330
C330
81E0
ENDCHAR
STARTCHAR 2202
ENCODING 8706
SWIDTH 565 0
DWIDTH 11 0
BBX 9 14 1 0
BITMAP
1E00
1300
0180
0080
0C80
3E80
6180
4180
C180
C180
C100
C300
4600
7C00
ENDCHAR
STARTCHAR 2206
ENCODING 8710
SWIDTH 514 0
DWIDTH 10 0
BBX 10 14 0 0
BITMAP
0300
0300
0700
0580
0D80
0980
1980
1080
3080
2080
6080
C080
C0C0
FFC0
ENDCHAR
STARTCHAR 220F
ENCODING 8719
SWIDTH 720 0
DWIDTH 14 0
BBX 11 19 2 -5
BITMAP
FFE0
FFE0
C060
C060
C060
C060
C060
C060
C060
C060
C060
C060
C060
C060
C060
C060
C060
C060
C060
ENDCHAR
STARTCHAR 2211
ENCODING 8721
SWIDTH 617 0
DWIDTH 12 0
BBX 11 19 2 -5
BITMAP
FFC0
FFC0
6000
3000
1000
1800
0C00
0600
0300
0600
0600
0C00
1800
1800
3000
6000
6000
FFE0
FFE0
ENDCHAR
STARTCHAR 2212
ENCODING 8722
SWIDTH 514 0
DWIDTH 10 0
BBX 9 2 1 6
BITMAP
FF80
FF80
ENDCHAR
STARTCHAR 2215
ENCODING 8725
SWIDTH 308 0
DWIDTH 6 0
BBX 9 14 -1 0
BITMAP
0080
0180
0100
0300
0600
0400
0C00
0800
1800
1000
3000
2000
6000
C000
ENDCHAR
STARTCHAR 221A
ENCODING 8730
SWIDTH 514 0
DWIDTH 10 0
BBX 11 16 1 0
BITMAP
0020
0060
0040
0040
00C0
0080
0080
E100
E100
2300
3200
1200
1600
1C00
0C00
0C00
ENDCHAR
STARTCHAR 221E
ENCODING 8734
SWIDTH 668 0
DWIDTH 13 0
BBX 12 6 1 4
BITMAP
38C0
4D30
C610
C610
4730
79E0
ENDCHAR
STARTCHAR 222B
ENCODING 8747
SWIDTH 360 0
DWIDTH 7 0
BBX 7 20 0 -5
BITMAP
06
1E
18
10
10
10
10
10
10
10
10
10
10
10
10
10
10
10
F0
E0
ENDCHAR
STARTCHAR 2248
ENCODING 8776
SWIDTH 514 0
DWIDTH 10 0
BBX 9 6 1 4
BITMAP
7880
8F80
0000
0000
7880
8F80
ENDCHAR
STARTCHAR 2260
ENCODING 8800
SWIDTH 514 0
DWIDTH 10 0
BBX 9 10 1 2
BITMAP
0300
0200
0600
FF80
0C00
0800
FF80
FF80
3000
2000
ENDCHAR
STARTCHAR 2264
ENCODING 8804
SWIDTH 514 0
DWIDTH 10 0
BBX 9 11 1 1
BITMAP
0180
0600
1800
6000
E000
3800
0E00
0380
0000
0000
FF80
ENDCHAR
STARTCHAR 2265
ENCODING 8805
SWIDTH 565 0
DWIDTH 11 0
BBX 9 12 1 0
BITMAP
8000
E000
3800
0E00
0380
0180
0E00
3800
E000
8000
0000
FF80
ENDCHAR
STARTCHAR 25CA
ENCODING 9674
SWIDTH 565 0
DWIDTH 11 0
BBX 8 14 2 0
BITMAP
18
18
3C
26
62
C3
81
81
C3
62
26
3C
18
18
ENDCHAR
STARTCHAR A7B3
ENCODING 42931
SWIDTH 617 0
DWIDTH 12 0
BBX 15 19 -2 -5
BITMAP
0E06
060C
0308
0318
0330
0160
0140
01C0
0180
0380
0380
0680
0C80
0880
18C0
30C0
60C0
4070
C030
ENDCHAR
STARTCHAR A7B4
ENCODING 42932
SWIDTH 565 0
DWIDTH 11 0
BBX 11 19 0 -5
BITMAP
0FC0
1FE0
1820
1820
1020
1060
3F80
31C0
3040
2060
2040
60C0
6380
7F00
4000
C000
C000
C000
8000
ENDCHAR
STARTCHAR A7B5
ENCODING 42933
SWIDTH 565 0
DWIDTH 11 0
BBX 11 20 0 -5
BITMAP
0780
0EC0
1860
1860
1060
1040
31C0
3700
30C0
20C0
2040
60C0
60C0
6180
5F00
C000
C000
C000
8000
8000
ENDCHAR
STARTCHAR AB53
ENCODING 43859
SWIDTH 462 0
DWIDTH 9 0
BBX 12 15 -2 -5
BITMAP
1C30
0460
0640
06C0
0780
0700
0300
0600
0E00
0B00
1B00
3300
6100
41C0
C0C0
ENDCHAR
STARTCHAR FB00
ENCODING 64256
SWIDTH 617 0
DWIDTH 12 0
BBX 17 20 -2 -5
BITMAP
01E780
034C00
020800
061800
061800
1FFE00
041000
0C3000
0C3000
0C3000
082000
082000
186000
186000
186000
104000
104000
30C000
E38000
C30000
ENDCHAR
STARTCHAR FB01
ENCODING 64257
SWIDTH 514 0
DWIDTH 10 0
BBX 13 20 -2 -5
BITMAP
01E0
0358
0218
0600
0600
1F90
0430
0C30
0C30
0C20
0820
0860
1860
1860
1840
1000
1000
3000
E000
C000
ENDCHAR
STARTCHAR FB02
ENCODING 64258
SWIDTH 514 0
DWIDTH 10 0
BBX 13 20 -2 -5
BITMAP
01E8
0358
0218
0618
0610
1F90
0430
0C30
0C30
0C20
0820
0860
1860
1840
1840
1000
1000
3000
E000
C000
ENDCHAR
STARTCHAR FB03
ENCODING 64259
SWIDTH 874 0
DWIDTH 17 0
BBX 19 20 -2 -5
BITMAP
01E780
034C60
020820
061800
061800
1FFE40
0410C0
0C30C0
0C30C0
0C3080
082080
082180
186180
186180
186100
104000
104000
30C000
E38000
C30000
ENDCHAR
STARTCHAR FB04
ENCODING 64260
SWIDTH 874 0
DWIDTH 17 0
BBX 19 20 -2 -5
BITMAP
01E7A0
034C20
020860
061860
061840
1FFE40
041040
0C30C0
0C30C0
0C3080
082080
082180
186180
186180
186100
104000
104000
30C000
E38000
C30000
ENDCHAR
STARTCHAR FB2A
ENCODING 64298
SWIDTH 720 0
DWIDTH 14 0
BBX 14 15 1 0
BITMAP
0004
0004
0000
6108
6318
4218
4210
4610
4C30
D820
F060
C0C0
C180
8700
FC00
ENDCHAR
STARTCHAR FB2B
ENCODING 64299
SWIDTH 720 0
DWIDTH 14 0
BBX 13 15 1 0
BITMAP
2000
6000
0000
6108
6318
4218
4210
4610
4C30
D820
F060
C0C0
C180
8700
FC00
ENDCHAR
STARTCHAR FB2C
ENCODING 64300
SWIDTH 720 0
DWIDTH 14 0
BBX 14 15 1 0
BITMAP
0004
0004
0000
6108
6318
4218
4210
4610
4C30
D820
F260
C0C0
C180
8700
FC00
ENDCHAR
STARTCHAR FB2D
ENCODING 64301
SWIDTH 720 0
DWIDTH 14 0
BBX 13 15 1 0
BITMAP
2000
2000
0000
6108
6318
4218
4210
4610
4C30
D820
F260
C0C0
C180
8700
FC00
ENDCHAR
STARTCHAR FB2E
ENCODING 64302
SWIDTH 565 0
DWIDTH 11 0
BBX 11 13 0 -1
BITMAP
1020
1860
1860
0C60
3C40
64C0
4780
4700
C300
C300
C100
8180
1C00
ENDCHAR
STARTCHAR FB2F
ENCODING 64303
SWIDTH 565 0
DWIDTH 11 0
BBX 11 15 0 -3
BITMAP
1020
1860
1860
0C60
3C40
64C0
4780
4700
C300
C300
C100
8180
3C00
1000
1000
ENDCHAR
STARTCHAR FB30
ENCODING 64304
SWIDTH 565 0
DWIDTH 11 0
BBX 11 12 0 0
BITMAP
1020
1860
1860
0C60
3C40
64C0
4780
4700
D300
D300
C100
8180
ENDCHAR
STARTCHAR FB31
ENCODING 64305
SWIDTH 514 0
DWIDTH 10 0
BBX 9 12 0 0
BITMAP
3F80
0180
0080
0180
0180
1180
0100
0100
0300
0300
0200
FF80
ENDCHAR
STARTCHAR FB32
ENCODING 64306
SWIDTH 360 0
DWIDTH 7 0
BBX 8 12 -1 0
BITMAP
0F
01
01
03
03
13
02
02
06
0E
1E
F4
ENDCHAR
STARTCHAR FB33
ENCODING 64307
SWIDTH 462 0
DWIDTH 9 0
BBX 9 12 2 0
BITMAP
FF80
0600
0400
0C00
0C00
4C00
0800
1800
1800
1800
1000
1000
ENDCHAR
STARTCHAR FB34
ENCODING 64308
SWIDTH 565 0
DWIDTH 11 0
BBX 11 12 0 0
BITMAP
1FE0
0060
0060
0060
2060
2660
6040
60C0
60C0
40C0
C080
C080
ENDCHAR
STARTCHAR FB35
ENCODING 64309
SWIDTH 205 0
DWIDTH 4 0
BBX 5 12 -1 0
BITMAP
08
18
18
18
10
D0
30
30
30
20
60
60
ENDCHAR
STARTCHAR FB36
ENCODING 64310
SWIDTH 257 0
DWIDTH 5 0
BBX 6 12 0 0
BITMAP
3C
0C
18
10
30
B0
30
20
20
60
60
60
ENDCHAR
STARTCHAR FB38
ENCODING 64312
SWIDTH 565 0
DWIDTH 11 0
BBX 10 12 1 0
BITMAP
2380
60C0
6040
6040
4040
44C0
C0C0
C0C0
C180
C180
6300
7E00
ENDCHAR
STARTCHAR FB39
ENCODING 64313
SWIDTH 205 0
DWIDTH 4 0
BBX 4 8 0 4
BITMAP
10
30
30
A0
20
60
60
40
ENDCHAR
STARTCHAR FB3A
ENCODING 64314
SWIDTH 462 0
DWIDTH 9 0
BBX 7 17 2 -5
BITMAP
FC
0C
04
06
04
44
0C
0C
0C
08
08
18
18
18
10
10
30
ENDCHAR
STARTCHAR FB3B
ENCODING 64315
SWIDTH 462 0
DWIDTH 9 0
BBX 10 12 -1 0
BITMAP
1F80
0180
00C0
00C0
00C0
0880
0080
0180
0180
0300
0600
FC00
ENDCHAR
STARTCHAR FB3C
ENCODING 64316
SWIDTH 462 0
DWIDTH 9 0
BBX 8 15 2 0
BITMAP
C0
C0
C0
FF
03
02
06
04
4C
08
18
10
30
20
60
ENDCHAR
STARTCHAR FB3E
ENCODING 64318
SWIDTH 565 0
DWIDTH 11 0
BBX 11 12 0 0
BITMAP
17C0
1860
1060
3060
2060
2640
6040
60C0
40C0
C0C0
C080
8780
ENDCHAR
STARTCHAR FB40
ENCODING 64320
SWIDTH 411 0
DWIDTH 8 0
BBX 7 12 0 0
BITMAP
1E
02
02
02
06
36
06
04
0C
0C
0C
F8
ENDCHAR
STARTCHAR FB41
ENCODING 64321
SWIDTH 565 0
DWIDTH 11 0
BBX 10 12 1 0
BITMAP
7F80
3180
60C0
40C0
C0C0
C8C0
8080
8180
8180
8300
C600
7C00
ENDCHAR
STARTCHAR FB43
ENCODING 64323
SWIDTH 565 0
DWIDTH 11 0
BBX 9 17 1 -5
BITMAP
1F00
6180
4080
C880
C880
C080
E180
6180
0180
0100
0100
0300
0300
0300
0200
0600
0600
ENDCHAR
STARTCHAR FB44
ENCODING 64324
SWIDTH 565 0
DWIDTH 11 0
BBX 10 12 1 0
BITMAP
1F80
6180
40C0
C4C0
C8C0
C080
6080
3180
0100
0300
0600
FC00
ENDCHAR
STARTCHAR FB46
ENCODING 64326
SWIDTH 514 0
DWIDTH 10 0
BBX 12 12 -1 0
BITMAP
1830
0820
0C20
0C60
0640
06C0
0380
3300
0100
0180
0080
FF80
ENDCHAR
STARTCHAR FB47
ENCODING 64327
SWIDTH 565 0
DWIDTH 11 0
BBX 13 17 -1 -5
BITMAP
0FF8
0018
0030
0030
0060
1260
30C0
3080
3180
2180
2100
6300
6000
6000
4000
C000
C000
ENDCHAR
STARTCHAR FB48
ENCODING 64328
SWIDTH 462 0
DWIDTH 9 0
BBX 7 12 2 0
BITMAP
FC
06
06
06
06
44
04
0C
0C
08
08
18
ENDCHAR
STARTCHAR FB49
ENCODING 64329
SWIDTH 720 0
DWIDTH 14 0
BBX 13 12 1 0
BITMAP
6108
6318
4218
4210
4610
4C30
D820
F260
C0C0
C180
8700
FC00
ENDCHAR
STARTCHAR FB4A
ENCODING 64330
SWIDTH 617 0
DWIDTH 12 0
BBX 13 12 -1 0
BITMAP
0FF0
0418
0C18
0C10
0C10
0930
0830
1830
1820
1820
3060
E060
ENDCHAR
STARTCHAR FB4B
ENCODING 64331
SWIDTH 205 0
DWIDTH 4 0
BBX 4 15 0 0
BITMAP
10
10
00
10
30
30
30
20
20
60
60
60
40
C0
C0
ENDCHAR
STARTCHAR FEFF
ENCODING 65279
SWIDTH 0 0
DWIDTH 0 0
BBX 0 0 0 0
BITMAP
ENDCHAR
STARTCHAR FFFC
ENCODING 65532
SWIDTH 977 0
DWIDTH 19 0
BBX 18 18 1 -4
BITMAP
ECDDC0
800040
000000
000000
800040
9CE240
129200
A2E240
A2B240
929240
1CEC00
800040
800040
800040
000000
800040
800040
ECDDC0
ENDCHAR
STARTCHAR FFFD
ENCODING 65533
SWIDTH 977 0
DWIDTH 19 0
BBX 17 18 1 -3
BITMAP
008000
01C000
03E000
07F000
0C1800
1C0C00
3FCE00
7FCF00
FF9F80
FF3F80
7E7F00
3E7E00
1FFC00
0E3800
063000
03E000
01C000
008000
ENDCHAR
ENDFONT
